<svg width="167" height="58" viewBox="0 0 167 58" fill="none" xmlns="http://www.w3.org/2000/svg">
<path d="M162.62 27.6217C161.209 26.2167 158.913 26.2167 157.502 27.6217L153.8 31.3069C153.286 29.9422 151.961 28.9691 150.411 28.9691H146.496C145.941 28.9691 145.698 28.6639 145.131 28.1745C143.378 26.6371 141.036 25.8885 138.711 26.1188C136.554 26.3319 134.611 27.3396 133.182 28.9691H128.544C127.878 28.9691 127.341 29.5046 127.341 30.1726V39.7771C127.341 40.4393 127.878 40.9748 128.544 40.9748C129.556 40.9748 151.805 40.9748 152.823 40.9748C153.789 40.9748 154.697 40.6005 155.379 39.9211L162.615 32.7177C164.032 31.3069 164.032 29.0267 162.62 27.6217ZM132.332 38.5737H129.758V31.3703H132.332V38.5737ZM160.92 31.0132L153.685 38.2167C153.459 38.4412 153.147 38.5679 152.835 38.5679C152.441 38.5679 135.137 38.5679 134.749 38.5679V30.8693C135.796 29.5104 137.294 28.6697 138.971 28.5027C140.631 28.3357 142.303 28.8712 143.558 29.971C144.171 30.5065 144.975 31.3645 146.513 31.3645H150.429C151.094 31.3645 151.632 31.9058 151.632 32.5622C151.632 33.2244 151.088 33.7656 150.429 33.7656H145.501C144.344 33.7656 143.245 34.3242 142.569 35.257C142.181 35.7925 142.297 36.5468 142.841 36.9326C143.378 37.3184 144.136 37.2032 144.524 36.662C144.749 36.351 145.114 36.1668 145.501 36.1668C146.791 36.1668 150.527 36.1668 151.84 36.1668C152.158 36.1668 152.464 36.0401 152.69 35.8155L159.22 29.3146C159.688 28.8482 160.457 28.8482 160.926 29.3146C161.388 29.7868 161.388 30.5468 160.92 31.0132Z" fill="white"/>
<path d="M164.888 21.7657H163.644C163.095 13.3992 156.849 6.57578 148.885 5.1017C149.099 4.64681 149.214 4.13434 149.214 3.59883C149.214 1.61228 147.589 0 145.6 0C143.604 0 141.979 1.61803 141.979 3.59883C141.979 4.13434 142.1 4.64105 142.309 5.1017C134.345 6.56427 127.948 13.3704 127.387 21.7715H126.138C125.473 21.7715 124.929 22.307 124.929 22.9692C124.929 23.6314 125.467 24.1726 126.138 24.1726H164.888C165.553 24.1726 166.091 23.6371 166.091 22.9692C166.097 22.3012 165.553 21.7657 164.888 21.7657ZM145.594 2.39538C146.259 2.39538 146.803 2.93665 146.803 3.59307C146.803 4.25526 146.259 4.79652 145.594 4.79652C144.929 4.79652 144.391 4.25526 144.391 3.59307C144.391 2.93089 144.929 2.39538 145.594 2.39538ZM129.805 21.7657C130.447 13.7562 137.416 7.18039 145.594 7.18039C153.835 7.18039 160.614 13.6295 161.227 21.7657H129.805Z" fill="white"/>
<path d="M163.611 57.8874H68.9616C67.759 57.8874 66.7861 57.0113 66.7861 55.9283C66.7861 54.8453 67.759 53.9761 68.9616 53.9761H163.611C164.814 53.9761 165.787 54.8522 165.787 55.9283C165.787 57.0113 164.814 57.8874 163.611 57.8874Z" fill="#FC791A"/>
<path d="M112.601 12.2582H2.53001C1.13144 12.2582 0 11.2647 0 10.0366C0 8.80842 1.13144 7.82275 2.53001 7.82275H112.601C114 7.82275 115.131 8.81624 115.131 10.0366C115.131 11.2647 114 12.2582 112.601 12.2582Z" fill="#FC791A"/>
<path d="M3.44163 25.7598L5.09164 24.0232V31.31L3.96021 30.3947H11.067V33.2109H3.96021L5.09164 32.2252V40.2512H1.43805V22.9437H12.116V25.7598H3.44163Z" fill="white"/>
<path d="M14.651 40.2512V22.9437H21.6989C23.5218 22.9437 24.8811 23.3583 25.7768 24.1875C26.6804 25.0089 27.1321 26.194 27.1321 27.7429C27.1321 28.6346 26.9593 29.3974 26.6136 30.031C26.2757 30.6568 25.8554 31.1418 25.3525 31.486C24.8575 31.8302 24.3782 32.0218 23.9146 32.061C24.3939 32.0922 24.8457 32.2135 25.27 32.4247C25.7021 32.6281 26.0557 32.9527 26.3307 33.3986C26.6057 33.8445 26.7432 34.4429 26.7432 35.1939C26.7432 35.7493 26.7432 36.2969 26.7432 36.8367C26.7432 37.3764 26.7432 37.9279 26.7432 38.4911C26.7432 38.8745 26.7707 39.2304 26.8257 39.5589C26.8886 39.8797 26.9789 40.1104 27.0968 40.2512H23.4314C23.3293 40.0948 23.2468 39.8601 23.1839 39.5472C23.121 39.2265 23.0896 38.8745 23.0896 38.4911C23.0896 37.9905 23.0896 37.5133 23.0896 37.0596C23.0896 36.5981 23.0896 36.117 23.0896 35.6163C23.0896 34.9358 22.9128 34.4116 22.5593 34.044C22.2057 33.6685 21.64 33.4808 20.8621 33.4808H17.2557L18.2339 32.3191V40.2512H14.651ZM18.2339 31.9905L17.2557 30.6646H20.9093C21.3807 30.6646 21.801 30.559 22.1703 30.3478C22.5396 30.1366 22.8303 29.8354 23.0425 29.4443C23.2625 29.0532 23.3725 28.5955 23.3725 28.0714C23.3725 27.3361 23.1486 26.765 22.7007 26.3583C22.2607 25.9515 21.64 25.7481 20.8385 25.7481H17.1732L18.2339 24.563V31.9905Z" fill="white"/>
<path d="M31.7096 25.7598L33.3596 24.0232V31.1926L32.5346 30.1601H38.9461V32.9762H32.5346L33.3596 31.9436V39.1717L31.7096 37.4351H40.2543V40.2512H29.6825V22.9437H40.2543V25.7598H31.7096Z" fill="white"/>
<path d="M49.0185 40.5328C47.7614 40.5328 46.6535 40.3334 45.6949 39.9344C44.7442 39.5355 43.9978 38.9409 43.4556 38.1509C42.9213 37.353 42.6542 36.3634 42.6542 35.1822C42.6542 35.057 42.6542 34.9436 42.6542 34.8419C42.6542 34.7324 42.6542 34.615 42.6542 34.4899H46.3196C46.3196 34.6072 46.3196 34.7128 46.3196 34.8067C46.3196 34.8927 46.3196 34.9944 46.3196 35.1118C46.3196 35.9175 46.5474 36.5355 47.0031 36.9657C47.4589 37.396 48.1346 37.6111 49.0303 37.6111C49.9339 37.6111 50.6292 37.4703 51.1164 37.1887C51.6035 36.8992 51.8471 36.426 51.8471 35.7689C51.8471 35.3073 51.6624 34.9006 51.2932 34.5485C50.9317 34.1965 50.4367 33.8836 49.8082 33.6098C49.1874 33.3282 48.4764 33.0662 47.6749 32.8237C46.8028 32.5499 45.9935 32.19 45.2471 31.7441C44.5006 31.2982 43.8996 30.7311 43.4438 30.0427C42.996 29.3543 42.772 28.5056 42.772 27.4965C42.772 26.4795 43.0431 25.6151 43.5853 24.9033C44.1274 24.1836 44.866 23.636 45.801 23.2605C46.736 22.8772 47.7928 22.6855 48.9714 22.6855C50.2049 22.6855 51.2932 22.8772 52.236 23.2605C53.1867 23.636 53.9292 24.2031 54.4635 24.9619C55.0057 25.7129 55.2768 26.6516 55.2768 27.7781C55.2768 27.9032 55.2768 28.0206 55.2768 28.1301C55.2768 28.2318 55.2768 28.3491 55.2768 28.4821H51.6232C51.6232 28.3961 51.6232 28.3061 51.6232 28.2122C51.6232 28.1184 51.6232 28.0284 51.6232 27.9423C51.6232 27.1836 51.411 26.6008 50.9867 26.194C50.5703 25.7872 49.9142 25.5838 49.0185 25.5838C48.1542 25.5838 47.4824 25.7403 47.0031 26.0532C46.5317 26.3661 46.296 26.8472 46.296 27.4965C46.296 27.9658 46.4649 28.3648 46.8028 28.6933C47.1485 29.0219 47.6199 29.3152 48.2171 29.5734C48.8142 29.8315 49.4939 30.0897 50.256 30.3478C51.2932 30.7076 52.1967 31.1066 52.9667 31.5447C53.7446 31.9749 54.3457 32.5186 54.77 33.1757C55.1943 33.825 55.4064 34.6541 55.4064 35.6633C55.4064 36.6959 55.1393 37.5759 54.605 38.3034C54.0707 39.0309 53.3203 39.5863 52.3539 39.9696C51.3953 40.3451 50.2835 40.5328 49.0185 40.5328Z" fill="white"/>
<path d="M71.4362 22.9437V40.2512H67.7708V31.9436L69.4208 33.0466H59.8272L61.4772 31.9905V40.2512H57.8118V22.9437H61.4772V31.31L59.8272 30.2187H69.4208L67.7708 31.31V22.9437H71.4362Z" fill="white"/>
<path d="M76.3436 25.7598L77.9937 24.0232V31.1926L77.1686 30.1601H83.5801V32.9762H77.1686L77.9937 31.9436V39.1717L76.3436 37.4351H84.8883V40.2512H74.3165V22.9437H84.8883V25.7598H76.3436Z" fill="white"/>
<path d="M86.5787 40.2512L90.9158 22.9202H96.7026L101.016 40.2512H97.2684L93.8033 25.1379H93.8269L90.3265 40.2512H86.5787ZM89.6901 36.2382V33.3986H97.9402V36.2382H89.6901Z" fill="white"/>
<path d="M112.741 25.7598H107.001L108.463 24.0232V40.2512H104.821V24.0232L106.33 25.7598H100.555V22.9437H112.741V25.7598Z" fill="white"/>
<path d="M0.575256 57.8874V50.9643H3.39441C4.12356 50.9643 4.66728 51.1302 5.02556 51.4619C5.38699 51.7904 5.56771 52.2645 5.56771 52.884C5.56771 53.2407 5.49857 53.5458 5.36028 53.7993C5.22514 54.0496 5.05699 54.2436 4.85585 54.3813C4.65785 54.5189 4.46613 54.5956 4.2807 54.6112C4.47242 54.6238 4.65313 54.6723 4.82285 54.7567C4.99571 54.8381 5.13714 54.968 5.24714 55.1463C5.35714 55.3247 5.41214 55.564 5.41214 55.8644C5.41214 56.0866 5.41214 56.3056 5.41214 56.5215C5.41214 56.7374 5.41214 56.958 5.41214 57.1833C5.41214 57.3366 5.42314 57.479 5.44514 57.6104C5.47028 57.7387 5.50642 57.831 5.55357 57.8874H4.08742C4.04656 57.8248 4.01356 57.7309 3.98842 57.6057C3.96327 57.4775 3.9507 57.3366 3.9507 57.1833C3.9507 56.9831 3.9507 56.7922 3.9507 56.6107C3.9507 56.4261 3.9507 56.2337 3.9507 56.0334C3.9507 55.7612 3.87999 55.5515 3.73856 55.4045C3.59713 55.2543 3.37084 55.1792 3.0597 55.1792H1.61712L2.00841 54.7145V57.8874H0.575256ZM2.00841 54.5831L1.61712 54.0527H3.07855C3.26713 54.0527 3.43527 54.0105 3.58299 53.926C3.7307 53.8415 3.84699 53.721 3.93184 53.5646C4.01985 53.4081 4.06385 53.2251 4.06385 53.0154C4.06385 52.7213 3.97427 52.4929 3.79513 52.3302C3.61913 52.1675 3.37084 52.0861 3.05027 52.0861H1.58412L2.00841 51.6121V54.5831Z" fill="white"/>
<path d="M7.3987 52.0908L8.05871 51.3962V54.2639L7.7287 53.8509H10.2933V54.9773H7.7287L8.05871 54.5643V57.4555L7.3987 56.7609H10.8166V57.8874H6.58784V50.9643H10.8166V52.0908H7.3987Z" fill="white"/>
<path d="M14.3223 58C13.8194 58 13.3763 57.9202 12.9928 57.7606C12.6125 57.601 12.314 57.3632 12.0971 57.0472C11.8834 56.728 11.7765 56.3322 11.7765 55.8597C11.7765 55.8097 11.7765 55.7643 11.7765 55.7236C11.7765 55.6798 11.7765 55.6329 11.7765 55.5828H13.2427C13.2427 55.6298 13.2427 55.672 13.2427 55.7095C13.2427 55.744 13.2427 55.7846 13.2427 55.8316C13.2427 56.1539 13.3338 56.4011 13.5161 56.5732C13.6984 56.7453 13.9687 56.8313 14.327 56.8313C14.6884 56.8313 14.9665 56.775 15.1614 56.6623C15.3563 56.5466 15.4537 56.3573 15.4537 56.0944C15.4537 55.9098 15.3798 55.7471 15.2321 55.6063C15.0875 55.4655 14.8895 55.3403 14.6381 55.2308C14.3898 55.1182 14.1054 55.0133 13.7848 54.9163C13.436 54.8068 13.1122 54.6629 12.8137 54.4845C12.5151 54.3062 12.2747 54.0793 12.0924 53.804C11.9132 53.5286 11.8237 53.1891 11.8237 52.7854C11.8237 52.3787 11.9321 52.0329 12.149 51.7482C12.3658 51.4603 12.6612 51.2413 13.0352 51.0911C13.4093 50.9377 13.832 50.8611 14.3034 50.8611C14.7968 50.8611 15.2321 50.9377 15.6093 51.0911C15.9895 51.2413 16.2866 51.4681 16.5003 51.7716C16.7171 52.072 16.8256 52.4475 16.8256 52.8981C16.8256 52.9482 16.8256 52.9951 16.8256 53.0389C16.8256 53.0796 16.8256 53.1265 16.8256 53.1797H15.3641C15.3641 53.1453 15.3641 53.1093 15.3641 53.0718C15.3641 53.0342 15.3641 52.9982 15.3641 52.9638C15.3641 52.6603 15.2793 52.4272 15.1095 52.2645C14.943 52.1018 14.6805 52.0204 14.3223 52.0204C13.9765 52.0204 13.7078 52.083 13.5161 52.2081C13.3275 52.3333 13.2333 52.5257 13.2333 52.7854C13.2333 52.9732 13.3008 53.1328 13.436 53.2642C13.5743 53.3956 13.7628 53.513 14.0017 53.6162C14.2405 53.7195 14.5124 53.8227 14.8173 53.926C15.2321 54.0699 15.5935 54.2295 15.9015 54.4047C16.2127 54.5768 16.4531 54.7943 16.6228 55.0571C16.7926 55.3168 16.8774 55.6485 16.8774 56.0522C16.8774 56.4652 16.7706 56.8172 16.5568 57.1082C16.3431 57.3992 16.043 57.6214 15.6564 57.7747C15.273 57.9249 14.8283 58 14.3223 58Z" fill="white"/>
<path d="M19.3057 57.8874H17.8396V50.9643H20.2203C20.7514 50.9643 21.2056 51.0676 21.5827 51.2741C21.963 51.4775 22.2522 51.7544 22.4502 52.1049C22.6513 52.4522 22.7519 52.8449 22.7519 53.283C22.7519 53.7179 22.6497 54.1169 22.4455 54.4798C22.2443 54.8397 21.9552 55.1291 21.578 55.3481C21.2009 55.564 20.7483 55.672 20.2203 55.672H19.3057V57.8874ZM19.3057 55.2214L18.6457 54.5455H20.0647C20.3099 54.5455 20.5236 54.497 20.7059 54.4C20.8882 54.2999 21.0296 54.156 21.1302 53.9682C21.2307 53.7774 21.281 53.5489 21.281 53.283C21.281 53.0139 21.2307 52.7917 21.1302 52.6165C21.0327 52.4381 20.8929 52.3067 20.7106 52.2222C20.5314 52.1346 20.3162 52.0908 20.0647 52.0908H18.6457L19.3057 51.3962V55.2214Z" fill="white"/>
<path d="M26.6097 58C26.176 58 25.7706 57.9218 25.3934 57.7653C25.0163 57.6089 24.6847 57.3789 24.3987 57.0754C24.1127 56.7719 23.888 56.3979 23.7246 55.9536C23.5611 55.5062 23.4794 54.9946 23.4794 54.4188C23.4794 53.8399 23.5596 53.3299 23.7199 52.8887C23.8833 52.4444 24.108 52.072 24.394 51.7716C24.68 51.4712 25.0116 51.2444 25.3887 51.0911C25.7659 50.9377 26.1729 50.8611 26.6097 50.8611C27.0435 50.8611 27.4489 50.9377 27.826 51.0911C28.2063 51.2444 28.5395 51.4712 28.8255 51.7716C29.1115 52.072 29.3346 52.4444 29.4949 52.8887C29.6552 53.3299 29.7353 53.8399 29.7353 54.4188C29.7353 54.9946 29.6536 55.5062 29.4902 55.9536C29.3299 56.3979 29.1052 56.7719 28.816 57.0754C28.53 57.3789 28.1969 57.6089 27.8166 57.7653C27.4395 57.9218 27.0372 58 26.6097 58ZM26.6097 56.8313C26.902 56.8313 27.1723 56.7515 27.4206 56.5919C27.672 56.4324 27.8732 56.1758 28.024 55.8222C28.1749 55.4655 28.2503 54.9977 28.2503 54.4188C28.2503 53.8368 28.1733 53.3706 28.0193 53.0201C27.8685 52.6697 27.6689 52.4178 27.4206 52.2645C27.1723 52.108 26.902 52.0298 26.6097 52.0298C26.3174 52.0298 26.0456 52.108 25.7942 52.2645C25.5459 52.4178 25.3463 52.6697 25.1954 53.0201C25.0446 53.3706 24.9692 53.8368 24.9692 54.4188C24.9692 55.0008 25.0446 55.4686 25.1954 55.8222C25.3463 56.1758 25.5459 56.4324 25.7942 56.5919C26.0456 56.7515 26.3174 56.8313 26.6097 56.8313Z" fill="white"/>
<path d="M32.1311 57.8874H30.7026V50.9643H32.9749L35.3038 57.3617L35.0587 57.4227V50.9643H36.4824V57.8874H34.1959L31.8671 51.5088L32.1311 51.4478V57.8874Z" fill="white"/>
<path d="M37.636 57.8874V50.9643H39.8847C40.3499 50.9643 40.7726 51.0488 41.1529 51.2178C41.5363 51.3836 41.8647 51.6199 42.1382 51.9265C42.4147 52.23 42.6269 52.593 42.7746 53.0154C42.9223 53.4379 42.9962 53.9041 42.9962 54.4141C42.9962 54.9242 42.9223 55.3919 42.7746 55.8175C42.6269 56.243 42.4147 56.6107 42.1382 56.9205C41.8647 57.2271 41.5363 57.4649 41.1529 57.6339C40.7726 57.8029 40.3499 57.8874 39.8847 57.8874H37.636ZM39.1069 57.4555L38.4468 56.7609H39.6961C40.0356 56.7609 40.342 56.667 40.6154 56.4793C40.892 56.2884 41.1104 56.0178 41.2707 55.6673C41.431 55.3137 41.5112 54.896 41.5112 54.4141C41.5112 53.9291 41.431 53.5145 41.2707 53.1703C41.1104 52.823 40.892 52.557 40.6154 52.3724C40.342 52.1847 40.0356 52.0908 39.6961 52.0908H38.4468L39.1069 51.3962V57.4555Z" fill="white"/>
<path d="M44.7725 52.0908L45.4325 51.3962V54.2639L45.1025 53.8509H47.6671V54.9773H45.1025L45.4325 54.5643V57.4555L44.7725 56.7609H48.1904V57.8874H43.9616V50.9643H48.1904V52.0908H44.7725Z" fill="white"/>
<path d="M50.7673 57.8874H49.3389V50.9643H51.6112L53.9401 57.3617L53.6949 57.4227V50.9643H55.1186V57.8874H52.8322L50.5033 51.5088L50.7673 51.4478V57.8874Z" fill="white"/>
<path d="M60.8876 52.0908H58.5917L59.1763 51.3962V57.8874H57.7195V51.3962L58.323 52.0908H56.013V50.9643H60.8876V52.0908Z" fill="white"/>
</svg>
