<svg width="152" height="152" viewBox="0 0 152 152" fill="none" xmlns="http://www.w3.org/2000/svg">
<mask id="path-1-inside-1_1_1906" fill="white">
<path d="M152 76C152 117.974 117.974 152 76 152C34.0264 152 0 117.974 0 76C0 34.0264 34.0264 0 76 0C117.974 0 152 34.0264 152 76ZM33.5107 76C33.5107 99.4662 52.5338 118.489 76 118.489C99.4662 118.489 118.489 99.4662 118.489 76C118.489 52.5338 99.4662 33.5107 76 33.5107C52.5338 33.5107 33.5107 52.5338 33.5107 76Z"/>
</mask>
<path d="M152 76C152 117.974 117.974 152 76 152C34.0264 152 0 117.974 0 76C0 34.0264 34.0264 0 76 0C117.974 0 152 34.0264 152 76ZM33.5107 76C33.5107 99.4662 52.5338 118.489 76 118.489C99.4662 118.489 118.489 99.4662 118.489 76C118.489 52.5338 99.4662 33.5107 76 33.5107C52.5338 33.5107 33.5107 52.5338 33.5107 76Z" fill="white" fill-opacity="0.1" stroke="white" stroke-width="3" mask="url(#path-1-inside-1_1_1906)"/>
<path d="M129.123 80.8066L129.263 79.0762L141.025 80.031L140.737 83.5713C140.664 84.475 140.432 85.2187 140.043 85.8024C139.652 86.3915 139.155 86.8166 138.551 87.0779C137.951 87.3449 137.295 87.4495 136.583 87.3917C135.87 87.3339 135.227 87.1211 134.652 86.7534C134.082 86.3914 133.641 85.8875 133.33 85.2415C133.019 84.5955 132.899 83.8286 132.971 82.9409L133.118 81.1308L129.123 80.8066ZM133.708 81.1787L134.617 80.4659L134.422 82.8581C134.377 83.4215 134.439 83.9028 134.61 84.302C134.786 84.7069 135.055 85.023 135.416 85.2503C135.778 85.4776 136.213 85.612 136.724 85.6534C137.234 85.6948 137.675 85.6343 138.047 85.4719C138.419 85.3094 138.71 85.0441 138.922 84.6761C139.139 84.3084 139.271 83.8349 139.318 83.2555L139.512 80.8633L140.358 81.7186L133.708 81.1787Z" fill="white"/>
<path d="M128.073 87.0486L139.53 89.8747L139.114 91.5602L128.17 88.8605L129.275 88.3254L127.993 93.5217L126.564 93.1691L128.073 87.0486Z" fill="white"/>
<path d="M126.317 94.4283L135.866 102.081L134.766 104.577L122.688 102.664L123.407 101.032L134.318 102.876L134.311 102.891L125.594 96.0681L126.317 94.4283ZM128.327 97.3072L129.645 97.8879L127.477 102.807L126.159 102.227L128.327 97.3072Z" fill="white"/>
<path d="M127.324 117.055L122.844 109.942L119.469 107.635L120.449 106.202L123.824 108.509L132.069 110.114L131.03 111.633L123.941 110.082L124.343 109.494L128.367 115.53L127.324 117.055Z" fill="white"/>
<path d="M112.222 114.975L122.349 121.868L120.907 123.123L112.024 116.77L112.096 116.707L117.19 126.359L115.742 127.62L110.285 116.662L112.222 114.975Z" fill="white"/>
<path d="M106.303 119.788L112.783 129.65L111.352 130.59L104.873 120.729L106.303 119.788Z" fill="white"/>
<path d="M102.873 122.171L107.951 132.823L105.026 134.217C104.318 134.554 103.618 134.734 102.926 134.757C102.234 134.78 101.575 134.657 100.95 134.387C100.321 134.12 99.7394 133.712 99.2058 133.163C98.6722 132.614 98.2127 131.935 97.8271 131.126C97.4392 130.312 97.2 129.525 97.1093 128.765C97.0186 128.005 97.0666 127.294 97.2532 126.631C97.435 125.972 97.7527 125.38 98.2062 124.857C98.6598 124.333 99.2404 123.903 99.9481 123.565L102.873 122.171ZM101.526 123.398L102.626 123.884L100.756 124.776C100.13 125.074 99.6492 125.504 99.3142 126.065C98.9744 126.629 98.8084 127.279 98.816 128.013C98.8259 128.753 99.0283 129.537 99.423 130.365C99.8201 131.198 100.3 131.846 100.864 132.31C101.43 132.779 102.038 133.056 102.688 133.142C103.333 133.231 103.968 133.126 104.594 132.828L106.464 131.936L106.149 133.097L101.526 123.398Z" fill="white"/>
<path d="M95.6477 136.552L95.1336 137.639L93.7587 132.64L94.3062 133.062L89.9944 134.248L89.6125 132.86L93.9243 131.674L93.6696 132.317L92.2841 127.28L93.2819 127.951L87.759 129.47L87.3771 128.082L93.8256 126.308L96.9552 137.685L90.5067 139.459L90.1248 138.071L95.6477 136.552Z" fill="white"/>
<path d="M80.6367 128.836C81.3384 128.779 81.9978 128.859 82.6147 129.077C83.2268 129.3 83.777 129.651 84.2654 130.131C84.7489 130.616 85.1433 131.223 85.4487 131.953C85.7545 132.688 85.9465 133.537 86.0246 134.499C86.1031 135.466 86.0503 136.332 85.8662 137.096C85.6825 137.866 85.3908 138.523 84.991 139.069C84.5863 139.621 84.0969 140.052 83.5226 140.36C82.9488 140.675 82.3137 140.86 81.6174 140.916C80.9157 140.973 80.2564 140.893 79.6394 140.676C79.0176 140.464 78.4651 140.118 77.982 139.638C77.4994 139.164 77.1054 138.562 76.8 137.832C76.4951 137.108 76.3033 136.262 76.2248 135.294C76.1467 134.332 76.1993 133.464 76.3825 132.689C76.5662 131.92 76.8602 131.256 77.2644 130.699C77.6638 130.148 78.1501 129.712 78.7235 129.393C79.2973 129.079 79.9351 128.893 80.6367 128.836ZM80.7565 130.311C80.1558 130.36 79.6323 130.568 79.1859 130.936C78.7342 131.305 78.4003 131.838 78.184 132.535C77.9681 133.237 77.9024 134.109 77.987 135.151C78.072 136.199 78.2799 137.046 78.6107 137.693C78.9362 138.341 79.3484 138.805 79.8474 139.086C80.3464 139.366 80.8963 139.482 81.497 139.433C82.087 139.385 82.6083 139.183 83.0609 138.825C83.5081 138.467 83.8427 137.943 84.0648 137.25C84.2868 136.558 84.3554 135.688 84.2703 134.641C84.1853 133.594 83.977 132.741 83.6453 132.083C83.3141 131.431 82.8986 130.959 82.3987 130.668C81.894 130.382 81.3466 130.263 80.7565 130.311Z" fill="white"/>
<path d="M58.3866 126.201L59.9978 126.847L55.605 137.799L52.3083 136.477C51.4668 136.139 50.825 135.698 50.3828 135.153C49.9357 134.606 49.6768 134.005 49.6061 133.35C49.5285 132.698 49.6227 132.041 49.8887 131.377C50.1548 130.714 50.5485 130.162 51.0698 129.722C51.5842 129.285 52.1961 129.013 52.9053 128.907C53.6145 128.801 54.3824 128.913 55.2091 129.245L56.8945 129.921L58.3866 126.201ZM56.6741 130.47L57.0861 131.549L54.8586 130.656C54.3339 130.445 53.8556 130.363 53.4238 130.408C52.985 130.456 52.6036 130.619 52.2794 130.897C51.9553 131.175 51.698 131.552 51.5074 132.027C51.3168 132.502 51.2441 132.941 51.2892 133.344C51.3344 133.747 51.5014 134.105 51.7903 134.416C52.0772 134.732 52.4905 134.998 53.03 135.215L55.2575 136.108L54.1904 136.663L56.6741 130.47Z" fill="white"/>
<path d="M51.6759 123.346L45.5996 133.461L44.1114 132.567L49.9159 122.904L50.1018 124.117L45.514 121.361L46.272 120.099L51.6759 123.346Z" fill="white"/>
<path d="M45.2166 119.535L35.1003 126.42L33.0363 124.636L38.4072 113.65L39.757 114.817L34.794 124.707L34.7819 124.696L43.8608 118.363L45.2166 119.535ZM41.8749 120.612L40.9333 121.702L36.8659 118.186L37.8075 117.097L41.8749 120.612Z" fill="white"/>
<path d="M23.2494 113.824L31.365 111.634L34.5625 109.087L35.6441 110.445L32.4466 112.992L28.4882 120.4L27.3417 118.961L30.9094 112.642L31.353 113.198L24.4008 115.269L23.2494 113.824Z" fill="white"/>
<path d="M28.4584 99.3611L18.8998 107.022L18.1223 105.276L26.8001 98.6456L26.8391 98.7333L16.1182 100.773L15.3374 99.0193L27.414 97.015L28.4584 99.3611Z" fill="white"/>
<path d="M25.6124 92.3551L14.2837 95.6567L13.8047 94.0131L25.1334 90.7115L25.6124 92.3551Z" fill="white"/>
<path d="M24.336 88.3608L12.6622 90.0816L12.1897 86.8762C12.0754 86.1006 12.1091 85.3786 12.2909 84.7103C12.4728 84.042 12.7843 83.4489 13.2255 82.931C13.6659 82.4078 14.227 81.972 14.9088 81.6235C15.5906 81.2751 16.3747 81.0355 17.2611 80.9048C18.1528 80.7734 18.9753 80.7761 19.7287 80.9131C20.4821 81.05 21.1477 81.305 21.7256 81.678C22.3027 82.0458 22.7748 82.5234 23.1417 83.1108C23.5086 83.6983 23.7492 84.3798 23.8636 85.1554L24.336 88.3608ZM23.5594 86.7124L22.7714 87.6211L22.4693 85.5712C22.3682 84.8853 22.0986 84.2997 21.6604 83.8144C21.2215 83.3238 20.6498 82.9741 19.9451 82.7653C19.2352 82.5573 18.4265 82.5201 17.5189 82.6539C16.6061 82.7885 15.8452 83.057 15.236 83.4594C14.6216 83.8627 14.1777 84.3621 13.9043 84.9577C13.6301 85.548 13.5435 86.1861 13.6446 86.872L13.9468 88.9218L12.9302 88.2792L23.5594 86.7124Z" fill="white"/>
<path d="M12.7022 77.1698L11.8148 76.358L16.9964 76.5181L16.4318 76.9168L16.5698 72.447L18.0092 72.4914L17.8711 76.9613L17.3322 76.5284L22.5537 76.6897L21.6179 77.4452L21.7948 71.7199L23.2341 71.7644L23.0276 78.4492L11.2332 78.0849L11.4397 71.4001L12.879 71.4445L12.7022 77.1698Z" fill="white"/>
<path d="M24.4764 65.0017C24.3234 65.6888 24.0519 66.295 23.6618 66.8201C23.2677 67.3389 22.7695 67.7607 22.1672 68.0856C21.5608 68.4042 20.864 68.6015 20.0766 68.6776C19.2841 68.7525 18.4167 68.6851 17.4744 68.4754C16.5269 68.2645 15.7154 67.9582 15.0399 67.5565C14.3591 67.1536 13.817 66.6806 13.4134 66.1372C13.0057 65.5875 12.7393 64.9928 12.6139 64.3529C12.4834 63.7119 12.4941 63.0504 12.6459 62.3684C12.7988 61.6813 13.0703 61.0751 13.4604 60.55C13.8464 60.0185 14.34 59.5929 14.9412 59.2732C15.5371 58.9523 16.2288 58.7539 17.0161 58.6778C17.7982 58.6005 18.663 58.6673 19.6105 58.8782C20.5528 59.088 21.3669 59.3948 22.0528 59.7988C22.7336 60.2017 23.2804 60.6786 23.6932 61.2294C24.102 61.7739 24.3743 62.3672 24.51 63.0094C24.6405 63.6504 24.6293 64.3145 24.4764 65.0017ZM23.0317 64.6801C23.1626 64.0918 23.1183 63.5301 22.8987 62.9949C22.6802 62.4546 22.2699 61.9781 21.6678 61.5654C21.0606 61.1516 20.2468 60.8311 19.2264 60.604C18.2008 60.3757 17.3299 60.3239 16.6137 60.4487C15.8987 60.5682 15.3334 60.8248 14.9179 61.2186C14.5025 61.6124 14.2293 62.1035 14.0983 62.6917C13.9697 63.2696 14.0094 63.8275 14.2175 64.3656C14.4267 64.8985 14.8292 65.3732 15.4249 65.7899C16.0206 66.2067 16.8312 66.5291 17.8568 66.7574C18.8823 66.9857 19.7584 67.0386 20.4851 66.9162C21.2065 66.7927 21.7801 66.5352 22.206 66.1437C22.6279 65.7458 22.9031 65.258 23.0317 64.6801Z" fill="white"/>
<path d="M27.9203 54.0112L27.1271 55.5554L16.6308 50.1639L18.2538 47.0044C18.668 46.1979 19.1671 45.5998 19.751 45.2102C20.3373 44.8158 20.9596 44.6139 21.6181 44.6044C22.2742 44.5876 22.9201 44.7425 23.5558 45.0691C24.1915 45.3956 24.7043 45.8389 25.0942 46.3989C25.4817 46.9517 25.6955 47.5862 25.7354 48.3022C25.7753 49.0182 25.5918 49.7723 25.1849 50.5646L24.3551 52.1799L27.9203 54.0112ZM23.8285 51.9095L22.716 52.2194L23.8126 50.0845C24.0709 49.5817 24.1976 49.1131 24.1928 48.679C24.1857 48.2376 24.0588 47.8427 23.8121 47.4941C23.5655 47.1456 23.2144 46.8543 22.759 46.6204C22.3035 46.3865 21.873 46.2733 21.4675 46.2808C21.0619 46.2883 20.6907 46.4214 20.354 46.6801C20.0125 46.9364 19.7089 47.3231 19.4433 47.8402L18.3467 49.975L17.8937 48.861L23.8285 51.9095Z" fill="white"/>
<path d="M31.397 47.5339L21.9056 40.5231L22.937 39.1267L32.0038 45.8238L30.7786 45.8936L33.9585 41.5886L35.1425 42.4632L31.397 47.5339Z" fill="white"/>
<path d="M35.6982 41.5476L29.7595 30.8484L31.7232 28.9547L42.1767 35.3003L40.8925 36.5387L31.4935 30.6988L31.505 30.6877L36.9881 40.3037L35.6982 41.5476ZM34.9287 38.122L33.9292 37.0855L37.799 33.3537L38.7986 34.3903L34.9287 38.122Z" fill="white"/>
<path d="M43.3781 20.1649L44.8184 28.4463L47.0632 31.8628L45.6124 32.8161L43.3675 29.3996L36.3513 24.782L37.889 23.7716L43.8568 27.9007L43.2618 28.2917L41.8337 21.1797L43.3781 20.1649Z" fill="white"/>
<path d="M57.3867 26.613L50.6531 16.3798L52.465 15.769L58.2541 25.0289L58.1632 25.0596L57.1348 14.1949L58.9542 13.5816L59.8202 25.7927L57.3867 26.613Z" fill="white"/>
<path d="M64.6844 24.4092L62.4735 12.8182L64.1552 12.4974L66.3661 24.0885L64.6844 24.4092Z" fill="white"/>
<path d="M68.6624 23.5179L68.0253 11.7351L71.2605 11.5602C72.0434 11.5179 72.7592 11.618 73.4079 11.8607C74.0566 12.1034 74.6185 12.4682 75.0935 12.9553C75.5738 13.4421 75.956 14.041 76.2401 14.752C76.5243 15.463 76.6905 16.2659 76.7389 17.1606C76.7876 18.0606 76.709 18.8794 76.5032 19.6169C76.2974 20.3544 75.9821 20.9937 75.5574 21.5347C75.138 22.0755 74.6189 22.5015 74.0001 22.8127C73.3813 23.1239 72.6805 23.3007 71.8977 23.343L68.6624 23.5179ZM70.3753 22.8965L69.5432 22.0282L71.6122 21.9163C72.3045 21.8789 72.9125 21.6644 73.4361 21.2729C73.9651 20.8811 74.366 20.344 74.6389 19.6616C74.9115 18.9739 75.023 18.172 74.9735 17.256C74.9237 16.3347 74.7265 15.5522 74.3819 14.9085C74.037 14.2596 73.5806 13.7715 73.0128 13.4443C72.4503 13.1169 71.8229 12.9719 71.1306 13.0093L69.0616 13.1212L69.7952 12.1682L70.3753 22.8965Z" fill="white"/>
<path d="M81.2462 12.9665L82.1395 12.1613L81.4821 17.3035L81.1395 16.7032L85.5754 17.2703L85.3928 18.6986L80.9569 18.1315L81.4395 17.6367L80.777 22.8186L80.115 21.8145L85.7968 22.5409L85.6142 23.9693L78.9802 23.1211L80.4766 11.4164L87.1106 12.2645L86.928 13.6929L81.2462 12.9665Z" fill="white"/>
<path d="M92.0475 25.8002C91.3779 25.5829 90.8002 25.2552 90.3143 24.8172C89.8352 24.3757 89.4624 23.8398 89.196 23.2095C88.9363 22.5757 88.8059 21.8633 88.8046 21.0723C88.8051 20.2762 88.9543 19.4191 89.2523 18.5009C89.5519 17.5776 89.9336 16.7987 90.3975 16.1643C90.863 15.5247 91.3853 15.0298 91.9644 14.6794C92.5502 14.3257 93.1675 14.1167 93.8163 14.0525C94.4668 13.9833 95.1243 14.0565 95.7889 14.2721C96.4585 14.4895 97.0362 14.8171 97.5221 15.2552C98.0146 15.6898 98.3916 16.2214 98.6529 16.8501C98.9159 17.4738 99.048 18.1811 99.0493 18.9721C99.0521 19.7581 98.9037 20.6127 98.6041 21.5359C98.3061 22.4541 97.9235 23.2355 97.4564 23.8801C96.9909 24.5197 96.4644 25.0189 95.877 25.3777C95.2962 25.7331 94.6798 25.948 94.0277 26.0223C93.3772 26.0916 92.7172 26.0175 92.0475 25.8002ZM92.5044 24.3925C93.0776 24.5785 93.641 24.5876 94.1946 24.4196C94.7532 24.2532 95.2664 23.8899 95.7342 23.3296C96.2037 22.7643 96.5998 21.9844 96.9224 20.9902C97.2468 19.9908 97.3808 19.1287 97.3244 18.4039C97.2731 17.6808 97.0711 17.0938 96.7184 16.6429C96.3657 16.192 95.9028 15.8735 95.3295 15.6875C94.7664 15.5047 94.2072 15.4914 93.6519 15.6476C93.1016 15.8055 92.5909 16.1612 92.1197 16.7148C91.6484 17.2683 91.2506 18.0448 90.9263 19.0442C90.602 20.0435 90.4663 20.9107 90.5194 21.6456C90.5741 22.3755 90.7762 22.9709 91.1256 23.432C91.4817 23.8896 91.9413 24.2098 92.5044 24.3925Z" fill="white"/>
<path d="M111.406 36.5781L110.16 35.3685L118.382 26.9043L120.93 29.3791C121.58 30.0109 122.007 30.6628 122.209 31.335C122.415 32.0109 122.426 32.6651 122.243 33.2976C122.067 33.9301 121.731 34.5026 121.233 35.0152C120.735 35.5279 120.161 35.8888 119.512 36.0982C118.87 36.3074 118.2 36.3266 117.504 36.1556C116.807 35.9847 116.14 35.589 115.501 34.9684L114.198 33.7031L111.406 36.5781ZM114.611 33.2784L114.639 32.1239L116.361 33.7961C116.766 34.19 117.177 34.4481 117.594 34.5702C118.018 34.6923 118.433 34.6863 118.838 34.5522C119.244 34.418 119.625 34.1673 119.982 33.8001C120.338 33.4328 120.572 33.0541 120.684 32.664C120.795 32.2739 120.776 31.8801 120.627 31.4825C120.481 31.081 120.2 30.6778 119.783 30.2727L118.062 28.6005L119.26 28.4926L114.611 33.2784Z" fill="white"/>
<path d="M116.574 41.769L126.04 34.7236L127.077 36.1162L118.035 42.8464L118.324 41.6538L121.519 45.9471L120.338 46.826L116.574 41.769Z" fill="white"/>
<path d="M121.113 47.7163L133.08 45.1619L134.318 47.5931L125.196 55.7371L124.386 54.1472L132.717 46.864L132.724 46.8782L121.926 49.3134L121.113 47.7163ZM124.614 47.981L125.897 47.3278L128.336 52.1189L127.053 52.7721L124.614 47.981Z" fill="white"/>
<path d="M139.297 61.3088L130.958 60.2562L127.033 61.4L126.547 59.7334L130.472 58.5895L136.945 53.2367L137.459 55.0032L131.761 59.497L131.562 58.8135L138.78 59.5346L139.297 61.3088Z" fill="white"/>
<path d="M129.006 72.9043L140.766 69.4734L140.817 71.3847L130.265 74.1988L130.263 74.1028L140.95 76.3109L141.002 78.2302L129.075 75.4714L129.006 72.9043Z" fill="white"/>
<g clip-path="url(#clip0_1_1906)">
<path d="M70.2545 66.441C68.4514 65.4067 66.9895 66.254 66.9895 68.332V83.6666C66.9895 85.7466 68.4514 86.5928 70.2545 85.5595L83.6577 77.8729C85.4614 76.8382 85.4614 75.1619 83.6577 74.1275L70.2545 66.441Z" fill="white"/>
</g>
<defs>
<clipPath id="clip0_1_1906">
<rect width="20" height="20" fill="white" transform="translate(66 66)"/>
</clipPath>
</defs>
</svg>
