<svg width="134" height="18" viewBox="0 0 134 18" fill="none" xmlns="http://www.w3.org/2000/svg">
<path d="M8.09375 1.5625C8.46875 0.8125 9.53125 0.84375 9.875 1.5625L11.9375 5.71875L16.5 6.375C17.3125 6.5 17.625 7.5 17.0312 8.09375L13.75 11.3125L14.5312 15.8438C14.6562 16.6562 13.7812 17.2812 13.0625 16.9062L9 14.75L4.90625 16.9062C4.1875 17.2812 3.3125 16.6562 3.4375 15.8438L4.21875 11.3125L0.9375 8.09375C0.34375 7.5 0.65625 6.5 1.46875 6.375L6.0625 5.71875L8.09375 1.5625Z" fill="#FC791A"/>
<path d="M36.0938 1.5625C36.4688 0.8125 37.5312 0.84375 37.875 1.5625L39.9375 5.71875L44.5 6.375C45.3125 6.5 45.625 7.5 45.0312 8.09375L41.75 11.3125L42.5312 15.8438C42.6562 16.6562 41.7812 17.2812 41.0625 16.9062L37 14.75L32.9062 16.9062C32.1875 17.2812 31.3125 16.6562 31.4375 15.8438L32.2188 11.3125L28.9375 8.09375C28.3438 7.5 28.6562 6.5 29.4688 6.375L34.0625 5.71875L36.0938 1.5625Z" fill="#FC791A"/>
<path d="M64.0938 1.5625C64.4688 0.8125 65.5312 0.84375 65.875 1.5625L67.9375 5.71875L72.5 6.375C73.3125 6.5 73.625 7.5 73.0312 8.09375L69.75 11.3125L70.5312 15.8438C70.6562 16.6562 69.7812 17.2812 69.0625 16.9062L65 14.75L60.9062 16.9062C60.1875 17.2812 59.3125 16.6562 59.4375 15.8438L60.2188 11.3125L56.9375 8.09375C56.3438 7.5 56.6562 6.5 57.4688 6.375L62.0625 5.71875L64.0938 1.5625Z" fill="#FC791A"/>
<path d="M92.0938 1.5625C92.4688 0.8125 93.5312 0.84375 93.875 1.5625L95.9375 5.71875L100.5 6.375C101.312 6.5 101.625 7.5 101.031 8.09375L97.75 11.3125L98.5312 15.8438C98.6562 16.6562 97.7812 17.2812 97.0625 16.9062L93 14.75L88.9062 16.9062C88.1875 17.2812 87.3125 16.6562 87.4375 15.8438L88.2188 11.3125L84.9375 8.09375C84.3438 7.5 84.6562 6.5 85.4688 6.375L90.0625 5.71875L92.0938 1.5625Z" fill="#FC791A"/>
<path d="M120.094 1.5625C120.469 0.8125 121.531 0.84375 121.875 1.5625L123.938 5.71875L128.5 6.375C129.312 6.5 129.625 7.5 129.031 8.09375L125.75 11.3125L126.531 15.8438C126.656 16.6562 125.781 17.2812 125.062 16.9062L121 14.75L116.906 16.9062C116.188 17.2812 115.312 16.6562 115.438 15.8438L116.219 11.3125L112.938 8.09375C112.344 7.5 112.656 6.5 113.469 6.375L118.062 5.71875L120.094 1.5625Z" fill="#5C6574"/>
</svg>
