<svg width="50" height="50" viewBox="0 0 50 50" fill="none" xmlns="http://www.w3.org/2000/svg">
<g clip-path="url(#clip0_1_23404)">
<path opacity="0.934" fill-rule="evenodd" clip-rule="evenodd" d="M23.8769 -0.0488281C24.7558 -0.0488281 25.6347 -0.0488281 26.5136 -0.0488281C29.5425 0.505372 31.8537 2.10042 33.4472 4.73633C37.839 4.33621 41.1756 5.99637 43.457 9.7168C45.4316 14.0686 44.7317 17.926 41.3574 21.2891C39.7788 22.6148 37.9559 23.3799 35.8887 23.584C35.905 26.3837 35.8887 29.1831 35.8398 31.9824C35.6059 32.8349 35.0688 33.4045 34.2285 33.6914C32.7637 33.7565 31.2988 33.7565 29.834 33.6914C29.3969 33.3339 29.3317 32.9107 29.6386 32.4219C29.7936 32.3377 29.9564 32.2726 30.1269 32.2266C31.4383 32.223 32.7403 32.1579 34.0332 32.0312C34.1505 31.9431 34.2319 31.8292 34.2773 31.6895C34.3262 31.0393 34.3424 30.3882 34.3262 29.7363C28.1738 29.7363 22.0215 29.7363 15.8691 29.7363C15.8529 30.3882 15.8691 31.0393 15.9179 31.6895C15.9993 31.9011 16.1458 32.0476 16.3574 32.1289C20.1335 32.1614 23.9095 32.194 27.6855 32.2266C28.2864 32.3696 28.498 32.7439 28.3203 33.3496C28.2715 33.5286 28.1575 33.6426 27.9785 33.6914C23.9746 33.7565 19.9707 33.7565 15.9668 33.6914C15.1299 33.4078 14.5928 32.8382 14.3554 31.9824C14.3066 29.1831 14.2903 26.3837 14.3066 23.584C10.1022 23.0035 7.35159 20.6923 6.05466 16.6504C5.12078 12.0586 6.6019 8.49416 10.498 5.95703C12.4812 4.86168 14.5808 4.51988 16.7969 4.93164C18.3841 2.17646 20.7441 0.516311 23.8769 -0.0488281ZM24.1699 1.51367C27.0645 1.2791 29.4571 2.25566 31.3476 4.44336C32.497 5.97061 33.0829 7.69587 33.1054 9.61914C33.6347 10.2931 34.123 10.2604 34.5703 9.52148C34.6354 8.46367 34.4889 7.43828 34.1308 6.44531C37.8402 6.192 40.5584 7.70567 42.2851 10.9863C43.6343 14.558 42.9018 17.6342 40.0879 20.2148C37.4281 22.204 34.5636 22.5458 31.4941 21.2402C31.0058 21.2728 30.7454 21.5332 30.7129 22.0215C30.7183 22.2765 30.816 22.4881 31.0058 22.6562C32.06 23.1541 33.1668 23.4634 34.3262 23.584C34.3262 25.114 34.3262 26.6438 34.3262 28.1738C33.1218 28.1738 31.9173 28.1738 30.7129 28.1738C30.7291 27.3269 30.7129 26.4805 30.664 25.6348C30.3942 25.1868 30.0198 25.0729 29.541 25.293C29.347 25.4218 29.233 25.6008 29.1992 25.8301C29.1504 26.6106 29.1342 27.3919 29.1504 28.1738C28.011 28.1738 26.8718 28.1738 25.7324 28.1738C25.7486 27.3594 25.7324 26.5456 25.6836 25.7324C25.2389 25.0197 24.7507 24.9872 24.2187 25.6348C24.1699 26.4805 24.1537 27.3269 24.1699 28.1738C23.0305 28.1738 21.8913 28.1738 20.7519 28.1738C20.7891 27.2883 20.7403 26.4094 20.6054 25.5371C20.1497 25.0163 19.694 25.0163 19.2383 25.5371C19.1894 26.4154 19.1732 27.2943 19.1894 28.1738C18.0827 28.1738 16.9759 28.1738 15.8691 28.1738C15.8691 26.6438 15.8691 25.114 15.8691 23.584C17.0653 23.4836 18.2047 23.1744 19.2871 22.6562C19.6063 22.319 19.6552 21.9447 19.4336 21.5332C19.2654 21.3434 19.0538 21.2457 18.7988 21.2402C14.6825 22.8116 11.2807 21.8676 8.59373 18.4082C6.55952 14.743 6.99897 11.4064 9.91209 8.39844C11.7433 6.82232 13.8592 6.17128 16.2597 6.44531C15.9176 7.44135 15.7711 8.46674 15.8203 9.52148C16.2676 10.2604 16.7558 10.2931 17.2851 9.61914C17.5703 5.1853 19.8652 2.48349 24.1699 1.51367Z" fill="#FA8507"/>
<path opacity="0.927" fill-rule="evenodd" clip-rule="evenodd" d="M28.6621 49.9512C28.2063 49.9512 27.7507 49.9512 27.2949 49.9512C26.7181 49.6298 26.1322 49.3042 25.5371 48.9746C24.9129 49.3099 24.2944 49.6354 23.6816 49.9512C23.2585 49.9512 22.8352 49.9512 22.4121 49.9512C20.7686 49.2338 20.2803 48.0294 20.9472 46.3379C18.8086 45.009 16.6276 43.7883 14.4043 42.6758C13.8328 43.5637 13.019 43.9543 11.9629 43.8477C9.60313 42.676 7.30821 41.3901 5.0781 39.9902C4.76414 39.1035 5.07339 38.6966 6.00583 38.7695C8.10739 39.9608 10.207 41.149 12.3047 42.334C12.6382 42.2943 12.8986 42.1316 13.0859 41.8457C13.3626 41.3574 13.6393 40.8691 13.916 40.3809C11.7184 39.0704 9.5049 37.7846 7.27536 36.5234C6.84315 35.9921 6.90826 35.5363 7.47067 35.1562C7.96915 35.1111 8.42488 35.2414 8.83786 35.5469C10.7258 36.6536 12.6139 37.7604 14.5019 38.8672C14.6128 38.9403 14.7104 38.9241 14.7949 38.8184C15.1986 38.2687 15.4916 37.6665 15.6738 37.0117C15.6719 36.7155 15.5418 36.4876 15.2832 36.3281C13.3786 35.1967 11.458 34.0899 9.52145 33.0078C9.15266 32.7192 9.03872 32.3449 9.17966 31.8848C9.34989 31.6532 9.57776 31.5229 9.86325 31.4941C12.1425 32.6582 14.3722 33.9114 16.5527 35.2539C17.3826 36.1789 17.5128 37.1881 16.9433 38.2812C19.7919 39.9823 22.6564 41.6588 25.5371 43.3105C28.4668 41.6179 31.3965 39.9251 34.3261 38.2324C34.9056 35.8135 36.403 34.2673 38.8183 33.5938C39.9829 33.3119 41.1548 33.2794 42.334 33.4961C44.4502 34.2936 45.2802 35.8072 44.8242 38.0371C43.6563 41.1191 41.4265 42.6979 38.1347 42.7734C37.708 42.731 37.3011 42.6171 36.914 42.4316C36.2246 42.7682 35.5573 43.1426 34.9121 43.5547C33.9314 43.7461 33.5571 43.3718 33.789 42.4316C34.7389 41.7451 35.748 41.1592 36.8164 40.6738C37.4039 40.9673 38.0223 41.1626 38.6718 41.2598C41.211 40.9011 42.7898 39.4851 43.4082 37.0117C43.3488 35.878 42.7629 35.1944 41.6504 34.9609C39.6144 34.7065 37.9054 35.3413 36.5234 36.8652C36.11 37.4867 35.9147 38.1703 35.9375 38.916C35.8921 39.0558 35.8106 39.1696 35.6933 39.2578C32.8288 40.918 29.9641 42.5781 27.0996 44.2383C27.663 44.5606 28.2327 44.8699 28.8086 45.166C29.8883 44.6344 30.9463 44.0646 31.9824 43.457C32.8337 43.3644 33.1755 43.7387 33.0078 44.5801C32.8938 44.694 32.78 44.8079 32.666 44.9219C31.8039 45.3691 30.9575 45.8411 30.1269 46.3379C30.7633 48.0115 30.275 49.2159 28.6621 49.9512ZM16.0644 39.6973C20.0006 41.9585 23.9393 44.2209 27.8808 46.4844C28.2167 46.6933 28.5259 46.9374 28.8086 47.2168C28.7455 48.4491 28.1758 48.7258 27.0996 48.0469C23.1608 45.752 19.2219 43.457 15.2832 41.1621C15.5709 40.6841 15.8313 40.1958 16.0644 39.6973ZM22.3144 47.1191C22.8487 47.4026 23.3695 47.7119 23.8769 48.0469C23.2773 48.5468 22.7402 48.4979 22.2656 47.9004C22.1951 47.6308 22.2114 47.3704 22.3144 47.1191Z" fill="#FA8507"/>
</g>
<defs>
<clipPath id="clip0_1_23404">
<rect width="50" height="50" fill="white"/>
</clipPath>
</defs>
</svg>
