<svg width="66" height="66" viewBox="0 0 66 66" fill="none" xmlns="http://www.w3.org/2000/svg">
<path d="M10.4495 36.2749C11.0575 36.2749 11.5503 35.7822 11.5503 35.1745C11.5503 34.5667 11.0575 34.074 10.4495 34.074C9.8415 34.074 9.34863 34.5667 9.34863 35.1745C9.34863 35.7822 9.8415 36.2749 10.4495 36.2749Z" fill="#FA8507"/>
<path d="M14.8518 32.9773C15.4598 32.9773 15.9527 32.4846 15.9527 31.8768C15.9527 31.2691 15.4598 30.7764 14.8518 30.7764C14.2438 30.7764 13.751 31.2691 13.751 31.8768C13.751 32.4846 14.2438 32.9773 14.8518 32.9773Z" fill="#FA8507"/>
<path d="M25.8508 31.8782C26.4588 31.8782 26.9517 31.3855 26.9517 30.7777C26.9517 30.1699 26.4588 29.6772 25.8508 29.6772C25.2429 29.6772 24.75 30.1699 24.75 30.7777C24.75 31.3855 25.2429 31.8782 25.8508 31.8782Z" fill="#FA8507"/>
<path d="M7.15309 41.7708C7.76107 41.7708 8.25393 41.2781 8.25393 40.6703C8.25393 40.0625 7.76107 39.5698 7.15309 39.5698C6.54511 39.5698 6.05225 40.0625 6.05225 40.6703C6.05225 41.2781 6.54511 41.7708 7.15309 41.7708Z" fill="#FA8507"/>
<path d="M12.6511 40.6717C13.2591 40.6717 13.752 40.179 13.752 39.5712C13.752 38.9634 13.2591 38.4707 12.6511 38.4707C12.0432 38.4707 11.5503 38.9634 11.5503 39.5712C11.5503 40.179 12.0432 40.6717 12.6511 40.6717Z" fill="#FA8507"/>
<path d="M17.0501 37.3738C17.658 37.3738 18.1509 36.8811 18.1509 36.2733C18.1509 35.6656 17.658 35.1729 17.0501 35.1729C16.4421 35.1729 15.9492 35.6656 15.9492 36.2733C15.9492 36.8811 16.4421 37.3738 17.0501 37.3738Z" fill="#FA8507"/>
<path d="M62.7 12.0907H47.3V7.6941C47.3 7.08705 47.7925 6.59494 48.4 6.59494H57.2C59.0225 6.59494 60.5 5.11862 60.5 3.29747C60.5 1.47633 59.0225 0 57.2 0H47.3C43.6564 0.00363533 40.7036 2.95416 40.7 6.59494V12.0907H25.3C23.4775 12.0907 22 13.5671 22 15.3882V16.4874C22.0047 17.9038 22.9162 19.1583 24.2627 19.6013L24.673 25.3433C24.1516 25.3125 23.6313 25.2806 23.1 25.2806C21.5068 25.284 19.9172 25.4334 18.3513 25.7269L15.6827 22.2645C18.238 19.7365 18.3799 16.7567 17.0654 15.053C15.7509 13.3493 12.8216 12.7293 9.7339 14.5495L9.02 13.6186C8.78422 13.2962 8.39202 13.1269 7.9955 13.1764C7.59897 13.2259 7.2605 13.4864 7.11136 13.8568C6.96221 14.2273 7.02586 14.6494 7.2776 14.9595L7.9948 15.8916C5.4307 18.4197 5.3053 21.4061 6.6121 23.1032C7.942 24.8278 10.8823 25.4114 13.9436 23.6066L16.005 26.2809C7.9662 28.5781 2.2 34.6454 2.2 41.768C2.19739 42.2518 2.22531 42.7353 2.2836 43.2156C2.416 44.4532 3.23455 45.5109 4.4 45.9503V48.3629C2.18705 48.3602 0.317828 50.0033 0.0384639 52.1968C-0.2409 54.3904 1.1569 56.4489 3.3 57.0001V59.3545C3.30042 61.0029 3.92212 62.5907 5.0413 63.8017H1.1C0.492487 63.8017 0 64.2938 0 64.9008C0 65.5079 0.492487 66 1.1 66H64.9C65.5075 66 66 65.5079 66 64.9008C66 64.2938 65.5075 63.8017 64.9 63.8017H59.1327C60.1417 62.7105 60.7509 61.3098 60.8608 59.8282L63.7373 19.5991C65.0832 19.1566 65.9947 17.9031 66 16.4874V15.3882C66 13.5671 64.5225 12.0907 62.7 12.0907ZM8.3512 21.7633C7.4712 20.618 8.2786 18.811 9.35 17.6547L9.9594 18.445C10.1952 18.7674 10.5874 18.9366 10.9839 18.8871C11.3804 18.8376 11.7189 18.5771 11.868 18.2067C12.0172 17.8362 11.9535 17.4141 11.7018 17.104L11.0924 16.3137C12.4223 15.6069 14.4188 15.2244 15.323 16.3972C16.4164 17.8151 14.9578 20.1465 13.5157 21.2566C12.0736 22.3668 9.4457 23.1812 8.3512 21.7633ZM42.9 6.59494C42.9 4.16675 44.8699 2.19831 47.3 2.19831H57.2C57.8075 2.19831 58.3 2.69042 58.3 3.29747C58.3 3.90452 57.8075 4.39663 57.2 4.39663H48.4C46.5775 4.39663 45.1 5.87296 45.1 7.6941V12.0907H42.9V6.59494ZM61.1248 25.2806H26.8741L26.4814 19.7848H61.5186L61.1248 25.2806ZM59.081 53.8587H46.0438C46.1429 53.5005 46.1954 53.1311 46.2 52.7596C46.2 50.3314 44.2301 48.3629 41.8 48.3629V45.9448C42.9616 45.5105 43.7793 44.4596 43.9142 43.2277C43.9736 42.7434 44.0022 42.2559 44 41.768C44 41.3525 43.9593 40.9447 43.9208 40.5369C46.0904 40.0223 47.5301 37.9651 47.2693 35.7521C47.0085 33.5392 45.1299 31.8725 42.9 31.8756C42.0363 31.8804 41.1938 32.1426 40.48 32.6285C38.5549 30.4184 36.1653 28.66 33.4818 27.4789H60.9686L59.081 53.8587ZM41.8 50.5612C43.015 50.5612 44 51.5455 44 52.7596C44 53.9736 43.015 54.9579 41.8 54.9579H21.3554L25.7554 50.5612H41.8ZM42.9 59.3545V57.0001C43.5586 56.8284 44.168 56.5055 44.6798 56.057H58.9237L58.6663 59.67C58.4903 61.9662 56.5788 63.7424 54.274 63.7511H41.206C42.2959 62.5457 42.8996 60.9791 42.9 59.3545ZM41.7703 34.4036C42.1092 34.1917 42.5002 34.0776 42.9 34.0739C43.9867 34.0691 44.9122 34.8619 45.0734 35.9357C45.2346 37.0096 44.5826 38.0389 43.5424 38.3529C43.1568 36.9538 42.5592 35.622 41.7703 34.4036ZM17.4438 28.1505L20.0288 31.504C20.4008 31.9812 21.0887 32.0684 21.5682 31.6991C22.0476 31.3299 22.1383 30.6429 21.7712 30.162L19.8781 27.7065C20.9458 27.5594 22.0222 27.4834 23.1 27.4789C33.4114 27.4789 41.8 33.8892 41.8 41.768C41.8013 42.1721 41.7778 42.5758 41.7296 42.9771C41.6729 43.5408 41.1966 43.9691 40.6296 43.9663H5.566C4.99481 43.9653 4.51824 43.53 4.466 42.9617C4.41967 42.5655 4.39762 42.1668 4.4 41.768C4.4 35.3929 9.8901 29.9872 17.4438 28.1505ZM6.6 46.1646H39.6V48.3629H25.3C25.0083 48.363 24.7285 48.4788 24.5223 48.685L16.5528 56.6473L9.6228 48.7333C9.41418 48.498 9.11466 48.3631 8.8 48.3629H6.6V46.1646ZM2.2 52.7596C2.2 51.5455 3.18497 50.5612 4.4 50.5612H8.3006L12.1506 54.9579H4.4C3.18497 54.9579 2.2 53.9736 2.2 52.7596ZM9.9 63.7511C7.46995 63.7511 5.5 61.7827 5.5 59.3545V57.1562H14.08L14.9028 58.096C15.3045 58.553 15.8773 58.8238 16.4857 58.8445H16.5572C17.1409 58.8439 17.7005 58.6123 18.1137 58.2004L19.1554 57.1562H40.7V59.3545C40.7 61.7827 38.7301 63.7511 36.3 63.7511H9.9ZM63.8 16.4874C63.8 17.0944 63.3075 17.5865 62.7 17.5865H25.3C24.6925 17.5865 24.2 17.0944 24.2 16.4874V15.3882C24.2 14.7812 24.6925 14.289 25.3 14.289H62.7C63.3075 14.289 63.8 14.7812 63.8 15.3882V16.4874Z" fill="#FA8507"/>
<path d="M53.3492 29.677C50.9192 29.677 48.9492 31.6454 48.9492 34.0736C48.9492 36.5018 50.9192 38.4703 53.3492 38.4703C55.7793 38.4703 57.7492 36.5018 57.7492 34.0736C57.7492 31.6454 55.7793 29.677 53.3492 29.677ZM53.3492 36.2719C52.1342 36.2719 51.1492 35.2877 51.1492 34.0736C51.1492 32.8595 52.1342 31.8753 53.3492 31.8753C54.5643 31.8753 55.5492 32.8595 55.5492 34.0736C55.5492 35.2877 54.5643 36.2719 53.3492 36.2719Z" fill="#FA8507"/>
<path d="M50.051 43.9663C48.2284 43.9663 46.751 45.4426 46.751 47.2638C46.751 49.0849 48.2284 50.5613 50.051 50.5613C51.8735 50.5613 53.351 49.0849 53.351 47.2638C53.351 45.4426 51.8735 43.9663 50.051 43.9663ZM50.051 48.3629C49.4435 48.3629 48.951 47.8708 48.951 47.2638C48.951 46.6567 49.4435 46.1646 50.051 46.1646C50.6585 46.1646 51.151 46.6567 51.151 47.2638C51.151 47.8708 50.6585 48.3629 50.051 48.3629Z" fill="#FA8507"/>
</svg>
