<svg width="16" height="16" viewBox="0 0 16 16" fill="none" xmlns="http://www.w3.org/2000/svg">
<path d="M15.1875 8.25C15.1406 8.76562 14.8594 9.04688 14.3438 9.09375H8.71875V14.7188C8.67188 15.2344 8.39062 15.5156 7.875 15.5625C7.35938 15.5156 7.07812 15.2344 7.03125 14.7188V9.09375H1.40625C0.890625 9.04688 0.609375 8.76562 0.5625 8.25C0.609375 7.73438 0.890625 7.45312 1.40625 7.40625H7.03125V1.78125C7.07812 1.26562 7.35938 0.984375 7.875 0.9375C8.39062 0.984375 8.67188 1.26562 8.71875 1.78125V7.40625H14.3438C14.8594 7.45312 15.1406 7.73438 15.1875 8.25Z" fill="#010F1C"/>
</svg>
