<svg width="14" height="14" viewBox="0 0 14 14" fill="none" xmlns="http://www.w3.org/2000/svg">
<g clip-path="url(#clip0_1_482)">
<path d="M7.04726 4.39424C5.59782 4.39424 4.42226 5.5698 4.42226 7.01924C4.42226 8.46868 5.59782 9.64424 7.04726 9.64424C8.4967 9.64424 9.67226 8.46912 9.67226 7.01924C9.67226 5.56937 8.49714 4.39424 7.04726 4.39424ZM7.04726 8.76924C6.08214 8.76924 5.27714 7.96512 5.27714 6.99999C5.27714 6.03487 6.06201 5.24999 7.02714 5.24999C7.99226 5.24999 8.77714 6.03487 8.77714 6.99999C8.77714 7.96512 8.01239 8.76924 7.04726 8.76924ZM13.9956 6.89849C13.9904 6.87662 13.993 6.85299 13.9864 6.83155C13.9838 6.82237 13.9777 6.81712 13.9746 6.80924C13.9698 6.79699 13.9711 6.78212 13.9646 6.7703C12.6919 3.85655 9.94964 2.18005 7.02714 2.18005C4.10464 2.18005 1.30726 3.85393 0.0341372 6.76768C0.0288872 6.77993 0.0297622 6.79262 0.0249497 6.80662C0.0218872 6.81537 0.0157622 6.81974 0.0126997 6.82805C0.0061372 6.84993 0.00876221 6.87312 0.00438721 6.89543C-0.00348779 6.9348 -0.0109253 6.9733 -0.0109253 7.01312C-0.0109253 7.05293 -0.00348779 7.09055 0.00438721 7.13037C0.00876221 7.15224 0.0056997 7.1763 0.0126997 7.19687C0.0153247 7.20693 0.0218872 7.21087 0.0249497 7.21962C0.0293247 7.23143 0.0284497 7.2463 0.0341372 7.25855C1.30726 10.1714 4.07751 11.8208 7.00001 11.8208C9.92251 11.8208 12.6923 10.1749 13.965 7.26118C13.9716 7.24849 13.9703 7.2358 13.9751 7.2218C13.9781 7.21437 13.9838 7.20868 13.9864 7.19993C13.993 7.17849 13.9913 7.1553 13.9956 7.13255C14.0035 7.09318 14.0105 7.05512 14.0105 7.01443C14.0105 6.97593 14.0031 6.93787 13.9952 6.89805L13.9956 6.89849ZM7.00001 10.9458C4.52157 10.9458 2.08164 9.63943 0.882887 7.01268C2.07026 4.39512 4.54257 3.05462 7.02714 3.05462C9.51126 3.05462 11.9284 4.39643 13.1163 7.0153C11.9293 9.63243 9.48501 10.9458 7.00001 10.9458Z" fill="#010F1C"/>
</g>
<defs>
<clipPath id="clip0_1_482">
<rect width="14" height="14" fill="white"/>
</clipPath>
</defs>
</svg>
