<svg width="86" height="16" viewBox="0 0 86 16" fill="none" xmlns="http://www.w3.org/2000/svg">
<path d="M7.96295 1.33337L10.0134 5.50671L14.5988 6.18004L11.2809 9.42671L12.0639 14.0134L7.96295 11.8467L3.86203 14.0134L4.64505 9.42671L1.32715 6.18004L5.91249 5.50671L7.96295 1.33337Z" fill="#FC791A"/>
<path d="M25.4815 1.33337L27.532 5.50671L32.1173 6.18004L28.7994 9.42671L29.5824 14.0134L25.4815 11.8467L21.3806 14.0134L22.1636 9.42671L18.8457 6.18004L23.431 5.50671L25.4815 1.33337Z" fill="#FC791A"/>
<path d="M43.0001 1.33337L45.0505 5.50671L49.6359 6.18004L46.318 9.42671L47.101 14.0134L43.0001 11.8467L38.8991 14.0134L39.6822 9.42671L36.3643 6.18004L40.9496 5.50671L43.0001 1.33337Z" fill="#FC791A"/>
<g opacity="0.4">
<path d="M78.0372 1.33337L80.0876 5.50671L84.673 6.18004L81.3551 9.42671L82.1381 14.0134L78.0372 11.8467L73.9362 14.0134L74.7193 9.42671L71.4014 6.18004L75.9867 5.50671L78.0372 1.33337Z" fill="#5C6574"/>
</g>
<path d="M60.963 1.33337L63.0134 5.50671L67.5988 6.18004L64.2809 9.42671L65.0639 14.0134L60.963 11.8467L56.862 14.0134L57.645 9.42671L54.3271 6.18004L58.9125 5.50671L60.963 1.33337Z" fill="#FC791A"/>
</svg>
