<svg width="116" height="16" viewBox="0 0 116 16" fill="none" xmlns="http://www.w3.org/2000/svg">
<g clip-path="url(#clip0_39_28459)">
<path d="M15.6985 5.93425C15.581 5.5845 15.2782 5.3295 14.9137 5.27375L10.6715 4.6255L8.76599 0.56625C8.60349 0.22025 8.25624 0 7.87474 0C7.49299 0 7.14599 0.22025 6.98349 0.56625L5.07774 4.62575L0.835491 5.274C0.470991 5.32975 0.168241 5.5845 0.0509907 5.9345C-0.0662593 6.2845 0.0222407 6.67 0.279991 6.9345L3.37799 10.1112L2.64424 14.6055C2.58374 14.9775 2.74149 15.3515 3.04924 15.569C3.35674 15.7865 3.76274 15.8085 4.09349 15.626L7.87499 13.5347L11.6565 15.626C11.8057 15.7085 11.97 15.749 12.1335 15.749C12.3325 15.749 12.5315 15.6885 12.7007 15.569C13.0085 15.3517 13.166 14.9777 13.1055 14.6055L12.3717 10.1112L15.47 6.9345C15.7272 6.67 15.8157 6.2845 15.6985 5.93425Z" fill="#FC791A"/>
</g>
<g clip-path="url(#clip1_39_28459)">
<path d="M40.6985 5.93425C40.581 5.5845 40.2782 5.3295 39.9137 5.27375L35.6715 4.6255L33.766 0.56625C33.6035 0.22025 33.2562 0 32.8747 0C32.493 0 32.146 0.22025 31.9835 0.56625L30.0777 4.62575L25.8355 5.274C25.471 5.32975 25.1682 5.5845 25.051 5.9345C24.9337 6.2845 25.0222 6.67 25.28 6.9345L28.378 10.1112L27.6442 14.6055C27.5837 14.9775 27.7415 15.3515 28.0492 15.569C28.3567 15.7865 28.7627 15.8085 29.0935 15.626L32.875 13.5347L36.6565 15.626C36.8057 15.7085 36.97 15.749 37.1335 15.749C37.3325 15.749 37.5315 15.6885 37.7007 15.569C38.0085 15.3517 38.166 14.9777 38.1055 14.6055L37.3717 10.1112L40.47 6.9345C40.7272 6.67 40.8157 6.2845 40.6985 5.93425Z" fill="#FC791A"/>
</g>
<g clip-path="url(#clip2_39_28459)">
<path d="M65.6985 5.93425C65.581 5.5845 65.2782 5.3295 64.9137 5.27375L60.6715 4.6255L58.766 0.56625C58.6035 0.22025 58.2562 0 57.8747 0C57.493 0 57.146 0.22025 56.9835 0.56625L55.0777 4.62575L50.8355 5.274C50.471 5.32975 50.1682 5.5845 50.051 5.9345C49.9337 6.2845 50.0222 6.67 50.28 6.9345L53.378 10.1112L52.6442 14.6055C52.5837 14.9775 52.7415 15.3515 53.0492 15.569C53.3567 15.7865 53.7627 15.8085 54.0935 15.626L57.875 13.5347L61.6565 15.626C61.8057 15.7085 61.97 15.749 62.1335 15.749C62.3325 15.749 62.5315 15.6885 62.7007 15.569C63.0085 15.3517 63.166 14.9777 63.1055 14.6055L62.3717 10.1112L65.47 6.9345C65.7272 6.67 65.8157 6.2845 65.6985 5.93425Z" fill="#FC791A"/>
</g>
<g clip-path="url(#clip3_39_28459)">
<path d="M90.6985 5.93425C90.581 5.5845 90.2782 5.3295 89.9137 5.27375L85.6715 4.6255L83.766 0.56625C83.6035 0.22025 83.2562 0 82.8747 0C82.493 0 82.146 0.22025 81.9835 0.56625L80.0777 4.62575L75.8355 5.274C75.471 5.32975 75.1682 5.5845 75.051 5.9345C74.9337 6.2845 75.0222 6.67 75.28 6.9345L78.378 10.1112L77.6442 14.6055C77.5837 14.9775 77.7415 15.3515 78.0492 15.569C78.3567 15.7865 78.7627 15.8085 79.0935 15.626L82.875 13.5347L86.6565 15.626C86.8057 15.7085 86.97 15.749 87.1335 15.749C87.3325 15.749 87.5315 15.6885 87.7007 15.569C88.0085 15.3517 88.166 14.9777 88.1055 14.6055L87.3717 10.1112L90.47 6.9345C90.7272 6.67 90.8157 6.2845 90.6985 5.93425Z" fill="#FC791A"/>
</g>
<g clip-path="url(#clip4_39_28459)">
<path d="M115.698 5.93425C115.581 5.5845 115.278 5.3295 114.914 5.27375L110.671 4.6255L108.766 0.56625C108.603 0.22025 108.256 0 107.875 0C107.493 0 107.146 0.22025 106.983 0.56625L105.078 4.62575L100.835 5.274C100.471 5.32975 100.168 5.5845 100.051 5.9345C99.9337 6.2845 100.022 6.67 100.28 6.9345L103.378 10.1112L102.644 14.6055C102.584 14.9775 102.741 15.3515 103.049 15.569C103.357 15.7865 103.763 15.8085 104.093 15.626L107.875 13.5347L111.656 15.626C111.806 15.7085 111.97 15.749 112.133 15.749C112.332 15.749 112.531 15.6885 112.701 15.569C113.008 15.3517 113.166 14.9777 113.105 14.6055L112.372 10.1112L115.47 6.9345C115.727 6.67 115.816 6.2845 115.698 5.93425Z" fill="#FC791A"/>
</g>
<defs>
<clipPath id="clip0_39_28459">
<rect width="16" height="16" fill="white"/>
</clipPath>
<clipPath id="clip1_39_28459">
<rect width="16" height="16" fill="white" transform="translate(25)"/>
</clipPath>
<clipPath id="clip2_39_28459">
<rect width="16" height="16" fill="white" transform="translate(50)"/>
</clipPath>
<clipPath id="clip3_39_28459">
<rect width="16" height="16" fill="white" transform="translate(75)"/>
</clipPath>
<clipPath id="clip4_39_28459">
<rect width="16" height="16" fill="white" transform="translate(100)"/>
</clipPath>
</defs>
</svg>
