<svg width="20" height="20" viewBox="0 0 20 20" fill="none" xmlns="http://www.w3.org/2000/svg">
<path d="M18.3139 13.4823C17.6282 12.7965 16.5126 12.7965 15.8269 13.4823L14.0284 15.2811C13.7783 14.615 13.1348 14.14 12.3816 14.14H10.4792C10.2094 14.14 10.0914 13.991 9.81596 13.7521C8.96448 13.0017 7.82636 12.6363 6.69667 12.7488C5.64848 12.8527 4.70426 13.3446 4.01015 14.14H1.7564C1.43323 14.14 1.17188 14.4014 1.17188 14.7274V19.4154C1.17188 19.7386 1.43323 20 1.7564 20C2.24818 20 13.0589 20 13.5535 20C14.0228 20 14.464 19.8173 14.7956 19.4857L18.3111 15.9697C18.9996 15.2811 18.9996 14.1681 18.3139 13.4823ZM3.59705 18.828H2.34653V15.312H3.59705V18.828ZM17.4877 15.1377L13.9722 18.6538C13.8626 18.7634 13.7109 18.8252 13.5591 18.8252C13.368 18.8252 4.95998 18.8252 4.7717 18.8252V15.0675C5.28034 14.4042 6.00818 13.9938 6.82313 13.9123C7.62965 13.8308 8.44179 14.0922 9.0516 14.629C9.34947 14.8904 9.74009 15.3092 10.4876 15.3092H12.3901C12.7132 15.3092 12.9746 15.5734 12.9746 15.8938C12.9746 16.217 12.7104 16.4812 12.3901 16.4812H9.99582C9.43378 16.4812 8.89985 16.7538 8.57106 17.2091C8.38278 17.4705 8.43898 17.8387 8.70314 18.027C8.96448 18.2153 9.33262 18.1591 9.5209 17.8949C9.63049 17.7431 9.80754 17.6532 9.99582 17.6532C10.6225 17.6532 12.4379 17.6532 13.0758 17.6532C13.2303 17.6532 13.3793 17.5914 13.4889 17.4817L16.6615 14.3086C16.8892 14.081 17.2629 14.081 17.4905 14.3086C17.7153 14.5391 17.7153 14.9101 17.4877 15.1377Z" fill="#FC791A"/>
<path d="M19.4155 10.6239H18.8113C18.5443 6.54019 15.5093 3.20967 11.6397 2.49016C11.7437 2.26813 11.7999 2.01799 11.7999 1.7566C11.7999 0.786959 11.0102 0 10.0435 0C9.07404 0 8.28438 0.789769 8.28438 1.7566C8.28438 2.01799 8.34339 2.26532 8.44456 2.49016C4.57495 3.20405 1.46691 6.52613 1.19432 10.6268H0.587325C0.264155 10.6268 0 10.8881 0 11.2114C0 11.5346 0.261345 11.7988 0.587325 11.7988H19.4155C19.7386 11.7988 20 11.5374 20 11.2114C20.0028 10.8853 19.7386 10.6239 19.4155 10.6239ZM10.0407 1.1692C10.3639 1.1692 10.6281 1.43339 10.6281 1.7538C10.6281 2.07701 10.3639 2.3412 10.0407 2.3412C9.71756 2.3412 9.45622 2.07701 9.45622 1.7538C9.45622 1.43058 9.71756 1.1692 10.0407 1.1692ZM2.36897 10.6239C2.6809 6.71444 6.06715 3.50478 10.0407 3.50478C14.0452 3.50478 17.3387 6.65261 17.6366 10.6239H2.36897Z" fill="#FC791A"/>
</svg>
