<svg width="36" height="36" viewBox="0 0 36 36" fill="none" xmlns="http://www.w3.org/2000/svg">
<g clip-path="url(#clip0_4_34708)">
<path opacity="0.974" fill-rule="evenodd" clip-rule="evenodd" d="M-0.0351562 20.2149C-0.0351562 16.3711 -0.0351562 12.5274 -0.0351562 8.68361C0.522103 6.33341 1.98695 4.92716 4.35938 4.46486C4.56444 4.45325 4.75194 4.50012 4.92188 4.60549C5.00366 8.81854 5.03881 13.0373 5.02734 17.2617C5.01562 21.4336 5.00391 25.6055 4.99219 29.7774C4.51048 31.4066 3.49095 31.8636 1.93359 31.1485C1.36896 30.6855 1.11114 30.0879 1.16016 29.3555C1.28765 27.1163 1.42828 24.8781 1.58203 22.6406C1.5586 22.5118 1.53515 22.3828 1.51172 22.2539C0.726511 21.774 0.210886 21.0944 -0.0351562 20.2149ZM3.76172 5.8008C3.90213 10.9565 3.949 16.1362 3.90234 21.3399C3.38619 21.3515 2.87056 21.3399 2.35547 21.3047C1.59041 20.9808 1.18024 20.4067 1.125 19.5821C1.05833 15.9948 1.08176 12.4088 1.19531 8.82424C1.5652 7.38909 2.42066 6.38131 3.76172 5.8008ZM2.77734 22.4649C3.15234 22.4649 3.52735 22.4649 3.90234 22.4649C3.91406 24.6447 3.90234 26.8244 3.86719 29.0039C3.85393 29.3447 3.78361 29.6727 3.65625 29.9883C3.30062 30.3316 2.92561 30.355 2.53125 30.0586C2.39241 29.8087 2.33382 29.5392 2.35547 29.25C2.50049 26.9883 2.64111 24.7265 2.77734 22.4649Z" fill="white"/>
<path opacity="0.953" fill-rule="evenodd" clip-rule="evenodd" d="M35.9646 4.7461C35.9646 7.20703 35.9646 9.66797 35.9646 12.1289C35.6549 13.0715 35.022 13.6809 34.0662 13.957C34.1437 19.3009 34.2023 24.6446 34.242 29.9883C33.8349 31.1826 33.0028 31.6631 31.7459 31.4297C31.0241 31.2002 30.5671 30.7197 30.3748 29.9883C30.4145 24.6446 30.4731 19.3009 30.5506 13.957C29.596 13.6939 28.9749 13.0845 28.6873 12.1289C28.618 9.6151 28.6414 7.10733 28.7576 4.60547C28.8103 4.56147 28.869 4.52631 28.9334 4.5C31.1834 4.45312 33.4334 4.45312 35.6834 4.5C35.8135 4.5485 35.9073 4.63053 35.9646 4.7461ZM29.7771 5.58985C30.0818 5.58985 30.3865 5.58985 30.6912 5.58985C30.6795 7.18376 30.6912 8.77753 30.7264 10.3711C30.959 10.6402 31.2519 10.7222 31.6053 10.6172C31.7142 10.5318 31.7962 10.4264 31.8514 10.3008C31.8865 8.73063 31.8983 7.16035 31.8865 5.58985C32.1678 5.58985 32.449 5.58985 32.7303 5.58985C32.7185 7.16035 32.7303 8.73063 32.7654 10.3008C32.8638 10.5636 33.0513 10.6808 33.3279 10.6523C33.5772 10.6848 33.7647 10.591 33.8904 10.3711C33.9256 8.77753 33.9373 7.18376 33.9256 5.58985C34.2302 5.58985 34.535 5.58985 34.8396 5.58985C34.8714 7.70175 34.8363 9.81113 34.7342 11.918C34.426 12.5827 33.8987 12.9225 33.1521 12.9375C33.0233 12.9727 32.9412 13.0547 32.9061 13.1836C32.9378 18.7151 32.9847 24.2463 33.0467 29.7773C32.7816 30.2635 32.3949 30.3924 31.8865 30.1641C31.7545 30.0556 31.649 29.9267 31.5701 29.7773C31.6321 24.2463 31.679 18.7151 31.7107 13.1836C31.6756 13.0547 31.5935 12.9727 31.4646 12.9375C30.7181 12.9225 30.1908 12.5827 29.8826 11.918C29.7805 9.81113 29.7454 7.70175 29.7771 5.58985Z" fill="white"/>
<path opacity="0.93" fill-rule="evenodd" clip-rule="evenodd" d="M16.4182 6.71479C21.3784 6.42319 25.1636 8.36847 27.7737 12.5507C29.3209 15.4394 29.649 18.4629 28.758 21.621C27.4572 25.4531 24.8908 28.0195 21.0588 29.3203C16.0837 30.5757 11.9235 29.2749 8.57834 25.4179C5.91214 21.7367 5.41995 17.7758 7.10178 13.5351C9.00844 9.62291 12.1139 7.3495 16.4182 6.71479ZM17.6135 7.83979C22.1476 8.06029 25.3703 10.2166 27.2815 14.3085C28.7408 18.3548 28.0846 22.0111 25.3127 25.2773C21.9942 28.5379 18.1387 29.3934 13.7463 27.8437C9.66657 25.9533 7.53378 22.7541 7.34787 18.246C7.53378 13.738 9.66657 10.5388 13.7463 8.64838C15.0008 8.16555 16.2898 7.89604 17.6135 7.83979Z" fill="white"/>
<path opacity="0.927" fill-rule="evenodd" clip-rule="evenodd" d="M16.6296 10.0899C19.9159 9.806 22.5292 10.9779 24.4694 13.6055C24.782 14.0666 25.0399 14.5588 25.2429 15.082C25.3654 15.811 25.0725 16.0805 24.364 15.8906C22.6104 12.213 19.7276 10.7599 15.7155 11.5313C13.5171 12.2531 11.9702 13.6827 11.0749 15.8203C10.9372 15.8858 10.7965 15.9444 10.653 15.9961C10.2644 15.9593 10.077 15.7483 10.0905 15.3633C10.8441 13.2384 12.2504 11.7033 14.3093 10.7578C15.0649 10.4392 15.8383 10.2165 16.6296 10.0899Z" fill="white"/>
<path opacity="0.892" fill-rule="evenodd" clip-rule="evenodd" d="M24.9957 16.8398C25.7945 16.7843 26.0288 17.1241 25.6988 17.8594C24.958 18.1404 24.6416 17.8943 24.7496 17.1211C24.7981 16.991 24.8801 16.8972 24.9957 16.8398Z" fill="white"/>
<path opacity="0.927" fill-rule="evenodd" clip-rule="evenodd" d="M10.5818 20.4961C10.7711 20.5319 10.9469 20.6022 11.1091 20.707C12.5776 23.9536 15.0971 25.4419 18.6677 25.1719C21.3348 24.6609 23.2099 23.1609 24.2927 20.6719C24.5934 20.4407 24.8864 20.4524 25.1716 20.707C25.3069 21.0097 25.3069 21.3144 25.1716 21.6211C23.3969 25.0933 20.5492 26.6753 16.6287 26.3672C13.6436 25.9121 11.4991 24.33 10.1951 21.6211C10.0439 21.2948 10.0556 20.9784 10.2302 20.6719C10.3579 20.6186 10.475 20.5601 10.5818 20.4961Z" fill="white"/>
</g>
<defs>
<clipPath id="clip0_4_34708">
<rect width="36" height="36" fill="white"/>
</clipPath>
</defs>
</svg>
