<svg width="36" height="36" viewBox="0 0 36 36" fill="none" xmlns="http://www.w3.org/2000/svg">
<path opacity="0.944" fill-rule="evenodd" clip-rule="evenodd" d="M17.332 2.21489C18.705 2.12212 19.8183 2.6143 20.6719 3.69146C21.0909 4.22783 21.5362 4.74346 22.0078 5.23833C23.4659 4.84237 24.5909 5.28768 25.3828 6.57427C26.3672 8.16804 27.3516 9.76174 28.3359 11.3555C29.5209 11.5326 30.3647 12.1654 30.8672 13.254C30.9319 13.4368 30.9788 13.6244 31.0078 13.8165C31.043 15.6444 31.0547 17.4726 31.043 19.3008C31.5357 19.2892 32.0279 19.3008 32.5195 19.336C33.0938 19.5352 33.4805 19.9219 33.6797 20.4961C33.7266 21.9024 33.7266 23.3086 33.6797 24.7149C33.4583 25.3817 33.0012 25.7685 32.3086 25.875C31.8874 25.9101 31.4655 25.9219 31.043 25.9102C31.075 27.8351 31.0399 29.7569 30.9375 31.6758C30.5699 32.7934 29.8081 33.4614 28.6523 33.6797C20.6367 33.7266 12.6211 33.7266 4.60547 33.6797C3.3978 33.4332 2.61265 32.7184 2.25 31.5352C2.20312 25.5586 2.20312 19.5821 2.25 13.6055C2.62122 12.3902 3.42982 11.6754 4.67578 11.461C5.56641 11.4376 6.45703 11.4141 7.34766 11.3907C10.1621 8.59969 12.9512 5.78717 15.7148 2.95317C16.2075 2.58941 16.7465 2.34332 17.332 2.21489ZM17.543 3.41021C18.1762 3.36913 18.7387 3.54491 19.2305 3.93755C19.7826 4.51541 20.31 5.11306 20.8125 5.73052C20.8559 5.79725 20.8442 5.85585 20.7773 5.9063C17.8358 7.71685 14.9062 9.54497 11.9883 11.3907C11.0273 11.4376 10.0664 11.4376 9.10547 11.3907C11.5917 8.83418 14.0995 6.3029 16.6289 3.79692C16.9254 3.62457 17.2301 3.49567 17.543 3.41021ZM22.8164 6.22271C23.3371 6.25453 23.7707 6.46547 24.1172 6.85552C25.0576 8.37314 26.0068 9.88486 26.9648 11.3907C22.7461 11.4376 18.5273 11.4376 14.3086 11.3907C16.8398 9.7969 19.3711 8.2032 21.9023 6.60943C22.1879 6.41716 22.4925 6.28824 22.8164 6.22271ZM4.7461 12.6211C12.7413 12.5865 20.7335 12.6217 28.7227 12.7266C29.2853 12.961 29.6485 13.3712 29.8125 13.9571C29.8477 15.7382 29.8594 17.5194 29.8477 19.3008C28.16 19.2891 26.4725 19.3008 24.7852 19.336C23.0387 19.7002 22.1247 20.7783 22.043 22.5704C22.1219 24.4883 23.1062 25.5899 24.9961 25.875C26.6131 25.9102 28.2303 25.9219 29.8477 25.9102C29.8594 27.6682 29.8477 29.426 29.8125 31.1836C29.6374 31.8745 29.2037 32.308 28.5117 32.4844C20.5898 32.5313 12.668 32.5313 4.7461 32.4844C3.87932 32.2739 3.42229 31.7231 3.375 30.8321C3.32812 25.3243 3.32812 19.8164 3.375 14.3086C3.43588 13.4164 3.89291 12.8539 4.7461 12.6211ZM24.8555 20.4961C27.3694 20.4619 29.8772 20.4971 32.3789 20.6016C32.4645 20.7175 32.523 20.8464 32.5547 20.9883C32.6207 22.1405 32.5973 23.289 32.4844 24.4336C32.399 24.5426 32.2935 24.6245 32.168 24.6797C29.8008 24.7266 27.4336 24.7266 25.0664 24.6797C24.0788 24.5125 23.4811 23.9382 23.2734 22.9571C23.1665 21.7157 23.6938 20.8954 24.8555 20.4961ZM26.1914 21.9024C26.7377 21.968 26.9838 22.2727 26.9297 22.8165C26.6912 23.236 26.3513 23.3415 25.9102 23.1329C25.5038 22.6064 25.5975 22.1963 26.1914 21.9024Z" fill="white"/>
<path opacity="0.929" fill-rule="evenodd" clip-rule="evenodd" d="M26.0506 20.707C27.5135 20.7518 28.2049 21.5018 28.1248 22.957C27.7754 24.087 27.0137 24.5675 25.8397 24.3984C24.7179 23.9949 24.2843 23.2097 24.5389 22.043C24.7825 21.2954 25.2864 20.8501 26.0506 20.707ZM26.1912 21.9023C25.5973 22.1962 25.5036 22.6064 25.91 23.1328C26.3511 23.3414 26.691 23.236 26.9295 22.8164C26.9836 22.2726 26.7375 21.9679 26.1912 21.9023Z" fill="white"/>
</svg>
