<svg width="50" height="50" viewBox="0 0 50 50" fill="none" xmlns="http://www.w3.org/2000/svg">
<g clip-path="url(#clip0_1_23378)">
<path opacity="0.935" fill-rule="evenodd" clip-rule="evenodd" d="M17.7246 0.830071C18.897 0.813807 20.0689 0.830084 21.2403 0.878899C21.3297 0.915446 21.4112 0.964274 21.4844 1.02538C21.6288 3.26264 21.6777 5.50873 21.6309 7.76367C24.1702 7.7474 26.7092 7.76367 29.2481 7.81249C30.5115 8.13187 31.2764 8.92939 31.543 10.2051C31.6081 11.2142 31.6081 12.2233 31.543 13.2324C31.4517 13.4865 31.2727 13.633 31.0059 13.6719C30.4861 13.7206 29.9653 13.7369 29.4434 13.7207C29.3373 14.0799 29.3373 14.438 29.4434 14.7949C29.9177 14.6031 30.406 14.4566 30.9082 14.3555C35.14 14.2903 39.3718 14.2903 43.6036 14.3555C46.5821 14.9902 48.3887 16.7969 49.0235 19.7754C49.0886 21.2727 49.0886 22.7702 49.0235 24.2676C48.8581 24.473 48.6465 24.6195 48.3887 24.707C49.0322 25.5992 49.2437 26.592 49.0235 27.6855C48.8074 28.5415 48.3679 29.2576 47.7051 29.834C48.8619 30.8474 49.3013 32.1169 49.0235 33.6426C48.8715 34.1477 48.6925 34.636 48.4864 35.1074C48.721 35.097 48.9 35.1946 49.0235 35.4004C49.0886 36.9629 49.0886 38.5254 49.0235 40.0879C48.6397 41.2855 47.8421 42.0505 46.6309 42.3828C40.4134 42.4479 34.196 42.4479 27.9786 42.3828C26.7686 42.1169 25.9548 41.4007 25.5371 40.2344C22.9656 40.1692 20.3939 40.1692 17.8223 40.2344C17.5669 40.6526 17.274 41.0433 16.9434 41.4062C17.7207 42.7166 18.4857 44.035 19.2383 45.3613C19.4252 46.032 19.1811 46.3901 18.5059 46.4355C17.5333 46.2834 16.5731 46.0881 15.625 45.8496C15.2802 46.7863 14.9547 47.7304 14.6485 48.6816C14.4031 49.0441 14.0613 49.158 13.6231 49.0234C13.5336 48.9869 13.4522 48.9381 13.3789 48.8769C12.5533 47.3718 11.6907 45.8907 10.7911 44.4336C10.2996 44.3526 9.81127 44.3689 9.32621 44.4824C8.45158 46.0204 7.54013 47.5341 6.59184 49.0234C6.1923 49.1433 5.8505 49.0619 5.56645 48.7793C5.20776 47.8497 4.89852 46.9058 4.63871 45.9473C3.64381 46.0909 2.65097 46.2536 1.6602 46.4355C1.17453 46.4386 0.897838 46.1944 0.830117 45.7031C1.5691 44.2248 2.3829 42.7925 3.27152 41.4062C0.750153 38.4663 0.147941 35.1623 1.46488 31.4941C3.24798 27.7447 6.22649 25.8242 10.4004 25.7324C10.136 21.7288 9.87553 17.7249 9.61918 13.7207C9.09733 13.7369 8.57649 13.7206 8.05668 13.6719C7.82741 13.6381 7.64837 13.5241 7.51957 13.3301C7.45446 12.2233 7.45446 11.1165 7.51957 10.0098C7.87187 8.84361 8.63685 8.11118 9.81449 7.81249C12.3534 7.76367 14.8924 7.7474 17.4317 7.76367C17.4154 5.58243 17.4317 3.40144 17.4805 1.2207C17.5452 1.07578 17.6266 0.945574 17.7246 0.830071ZM18.8965 2.19726C19.3197 2.19726 19.7429 2.19726 20.1661 2.19726C20.1661 4.05273 20.1661 5.9082 20.1661 7.76367C19.7429 7.76367 19.3197 7.76367 18.8965 7.76367C18.8965 5.9082 18.8965 4.05273 18.8965 2.19726ZM10.0098 9.22851C16.3576 9.21223 22.7052 9.22851 29.0528 9.27734C29.4543 9.45103 29.7635 9.72772 29.9805 10.1074C30.1163 10.815 30.1652 11.5311 30.127 12.2559C23.0632 12.2559 15.9994 12.2559 8.93559 12.2559C8.91935 11.604 8.93563 10.9529 8.98441 10.3027C9.18172 9.79638 9.52352 9.43832 10.0098 9.22851ZM11.084 13.7207C16.7156 13.7207 22.347 13.7207 27.9786 13.7207C27.9251 14.4397 27.8438 15.1559 27.7344 15.8691C26.4761 16.9532 25.7274 18.3204 25.4883 19.9707C25.4232 21.403 25.4232 22.8352 25.4883 24.2676C25.6574 24.4743 25.869 24.6208 26.1231 24.707C25.2695 26.0558 25.2206 27.4393 25.9766 28.8574C26.235 29.1973 26.5117 29.5228 26.8067 29.834C25.5001 31.0561 25.1258 32.521 25.6836 34.2285C25.7933 34.497 25.9398 34.7411 26.1231 34.9609C25.8768 35.0544 25.6652 35.2009 25.4883 35.4004C25.4395 36.5066 25.4232 37.6135 25.4395 38.7207C23.1924 38.7532 20.9463 38.7207 18.7012 38.623C20.2246 34.1293 19.1504 30.402 15.4786 27.4414C14.4031 26.7191 13.2312 26.2146 11.9629 25.9277C11.6173 21.8633 11.3244 17.7943 11.084 13.7207ZM32.0801 15.6738C35.5308 15.6575 38.9813 15.6738 42.4317 15.7226C45.1744 15.8938 46.8833 17.3099 47.5586 19.9707C47.6767 21.0417 47.7255 22.1159 47.7051 23.1934C40.7715 23.1934 33.8379 23.1934 26.9043 23.1934C26.8881 22.1837 26.9043 21.1746 26.9532 20.166C27.2432 18.6078 28.0407 17.3871 29.3457 16.5039C30.2075 16.0155 31.1189 15.7389 32.0801 15.6738ZM28.5645 24.6582C28.6672 24.6436 28.7649 24.6599 28.8575 24.707C30.0647 25.9469 31.3017 27.1514 32.5684 28.3203C32.8745 28.3975 33.1674 28.3649 33.4473 28.2227C34.6192 27.0508 35.7911 25.8789 36.9629 24.707C39.9578 24.6419 42.9525 24.6419 45.9473 24.707C47.4736 25.3349 47.9455 26.4254 47.3633 27.9785C46.9374 28.6315 46.3352 29.0059 45.5567 29.1016C40.0228 29.1667 34.489 29.1667 28.9551 29.1016C27.4589 28.7765 26.7916 27.8487 26.9532 26.3184C27.248 25.5191 27.7851 24.9657 28.5645 24.6582ZM31.0059 24.7559C32.2585 24.6426 33.5281 24.6263 34.8145 24.707C34.1797 25.3418 33.545 25.9766 32.9102 26.6113C32.2882 25.973 31.6535 25.3546 31.0059 24.7559ZM9.52152 27.1973C13.8496 27.2786 16.6002 29.3945 17.7735 33.5449C18.2672 37.5546 16.721 40.4681 13.1348 42.2851C9.28924 43.6069 6.11541 42.6792 3.61332 39.5019C1.38055 35.5426 1.91766 32.0107 5.22465 28.9062C6.5178 27.9603 7.9501 27.3907 9.52152 27.1973ZM9.42387 29.7363C12.5981 29.6737 14.5675 31.1712 15.3321 34.2285C15.5413 37.5014 14.0601 39.5359 10.8887 40.332C7.49587 40.4996 5.46137 38.9208 4.7852 35.5957C4.77128 32.3984 6.3175 30.4453 9.42387 29.7363ZM28.5645 30.6152C30.1273 30.5989 31.6898 30.6152 33.252 30.6641C34.4239 31.8359 35.5957 33.0078 36.7676 34.1797C37.0475 34.322 37.3405 34.3545 37.6465 34.2773C38.8509 33.0729 40.0554 31.8685 41.2598 30.6641C42.8548 30.5989 44.4499 30.5989 46.045 30.6641C47.7254 31.5022 48.0672 32.7229 47.0704 34.3262C46.7695 34.5989 46.4277 34.8105 46.045 34.9609C40.2181 35.0261 34.3913 35.0261 28.5645 34.9609C26.974 34.2911 26.5345 33.1681 27.2461 31.5918C27.5956 31.1261 28.0351 30.8005 28.5645 30.6152ZM35.4004 30.7129C36.6531 30.5996 37.9226 30.5833 39.209 30.6641C38.5743 31.2988 37.9395 31.9336 37.3047 32.5684C36.6828 31.9301 36.048 31.3116 35.4004 30.7129ZM26.9043 36.4746C33.8379 36.4746 40.7715 36.4746 47.7051 36.4746C47.7399 37.586 47.6911 38.6929 47.5586 39.7949C47.3522 40.2293 47.0429 40.5711 46.6309 40.8203C43.5117 40.9332 40.3867 40.982 37.2559 40.9668C34.1251 40.982 31.0001 40.9332 27.8809 40.8203C27.4274 40.5624 27.1181 40.188 26.9532 39.6973C26.9043 38.6235 26.888 37.5493 26.9043 36.4746ZM4.34574 42.4316C5.39508 43.2004 6.5344 43.7863 7.76371 44.1894C7.31625 44.9869 6.84425 45.7682 6.3477 46.5332C6.14616 45.7974 5.86947 45.0976 5.51762 44.4336C5.36777 44.3435 5.20502 44.2946 5.02934 44.2871C4.37729 44.4344 3.72624 44.5482 3.07621 44.6289C3.53754 43.9178 3.96071 43.1853 4.34574 42.4316ZM15.7715 42.4316C16.1921 43.1416 16.6153 43.8577 17.0411 44.5801C17.0085 44.6126 16.9759 44.6452 16.9434 44.6777C16.2391 44.4684 15.5229 44.3545 14.795 44.3359C14.6485 44.4173 14.5345 44.5312 14.4532 44.6777C14.2253 45.2962 13.9974 45.9147 13.7696 46.5332C13.3099 45.7276 12.8378 44.9301 12.3536 44.1406C13.6068 43.7744 14.7461 43.2048 15.7715 42.4316Z" fill="#FA8507"/>
<path opacity="0.871" fill-rule="evenodd" clip-rule="evenodd" d="M33.1543 17.1387C33.9661 17.1203 34.3079 17.5109 34.1796 18.3106C33.8967 18.7651 33.4899 18.9116 32.9589 18.75C32.6044 18.4522 32.4905 18.0778 32.6171 17.627C32.7252 17.3718 32.9043 17.209 33.1543 17.1387Z" fill="#FA8507"/>
<path opacity="0.875" fill-rule="evenodd" clip-rule="evenodd" d="M36.9629 17.1387C38.0551 17.1916 38.3481 17.6962 37.8418 18.6523C36.8567 19.0013 36.4172 18.6595 36.5234 17.627C36.6235 17.4134 36.77 17.2506 36.9629 17.1387Z" fill="#FA8507"/>
<path opacity="0.868" fill-rule="evenodd" clip-rule="evenodd" d="M40.8691 17.1387C41.7875 17.1271 42.1293 17.5504 41.8945 18.4082C41.606 18.777 41.2316 18.8909 40.7715 18.75C40.1019 18.1738 40.1345 17.6367 40.8691 17.1387Z" fill="#FA8507"/>
<path opacity="0.857" fill-rule="evenodd" clip-rule="evenodd" d="M31.1035 20.0684C31.7972 19.9416 32.1878 20.2183 32.2754 20.8985C32.2591 21.4356 31.9824 21.7122 31.4453 21.7285C30.7495 21.6408 30.4891 21.2502 30.6641 20.5567C30.7642 20.3431 30.9107 20.1803 31.1035 20.0684Z" fill="#FA8507"/>
<path opacity="0.868" fill-rule="evenodd" clip-rule="evenodd" d="M35.0098 20.0683C35.6972 19.9392 36.0878 20.2159 36.1817 20.8984C36.1638 21.4372 35.887 21.7139 35.3516 21.7285C34.6558 21.6408 34.3953 21.2502 34.5703 20.5566C34.6704 20.3431 34.8169 20.1803 35.0098 20.0683Z" fill="#FA8507"/>
<path opacity="0.875" fill-rule="evenodd" clip-rule="evenodd" d="M38.9161 20.0683C39.8288 20.0519 40.1706 20.4751 39.9414 21.3379C39.4532 21.8587 38.9649 21.8587 38.4766 21.3379C38.2636 20.7887 38.4101 20.3656 38.9161 20.0683Z" fill="#FA8507"/>
<path opacity="0.868" fill-rule="evenodd" clip-rule="evenodd" d="M42.7246 20.0684C43.916 20.0693 44.209 20.5739 43.6035 21.582C42.8534 21.9231 42.3978 21.6953 42.2363 20.8984C42.2885 20.549 42.4513 20.2724 42.7246 20.0684Z" fill="#FA8507"/>
<path opacity="0.922" fill-rule="evenodd" clip-rule="evenodd" d="M9.22848 28.2715C12.7053 28.0962 15.1304 29.5935 16.5039 32.7637C17.5013 36.5773 16.2806 39.4257 12.8418 41.3086C9.24725 42.539 6.36639 41.6113 4.19919 38.5254C2.66508 35.3638 3.10454 32.5155 5.51755 29.9805C6.60166 29.0639 7.83864 28.4941 9.22848 28.2715ZM9.4238 29.7363C6.31743 30.4453 4.77121 32.3984 4.78512 35.5957C5.4613 38.9208 7.4958 40.4996 10.8886 40.332C14.06 39.5359 15.5412 37.5014 15.332 34.2285C14.5674 31.1712 12.598 29.6737 9.4238 29.7363Z" fill="#FBFAF7"/>
<path opacity="0.926" fill-rule="evenodd" clip-rule="evenodd" d="M12.4511 32.373C13.3133 32.2423 13.6551 32.6003 13.4765 33.4473C11.9629 34.9609 10.4492 36.4746 8.93552 37.9883C8.61404 38.0797 8.32107 38.0309 8.05662 37.8418C7.37137 37.1403 6.70406 36.4242 6.05467 35.6934C5.83129 35.0658 6.04288 34.6752 6.68943 34.5215C7.42922 34.9842 8.06398 35.5701 8.59373 36.2793C9.89929 34.9901 11.185 33.688 12.4511 32.373Z" fill="#FBFAF7"/>
</g>
<defs>
<clipPath id="clip0_1_23378">
<rect width="50" height="50" fill="white"/>
</clipPath>
</defs>
</svg>
