<svg width="66" height="66" viewBox="0 0 66 66" fill="none" xmlns="http://www.w3.org/2000/svg">
<path opacity="0.855" fill-rule="evenodd" clip-rule="evenodd" d="M60.5214 9.08785C60.9014 9.05213 61.2666 9.09509 61.6171 9.21675C61.6524 22.1937 61.7384 35.1702 61.8749 48.1464C62.3139 50.1814 62.7221 52.2225 63.0995 54.2695C62.809 56.0923 61.7348 56.9302 59.8769 56.7832C57.7501 56.9117 56.6973 55.9234 56.7187 53.8183C57.1219 51.9313 57.5086 50.0406 57.8788 48.1464C57.9617 42.7321 58.0048 37.3181 58.0077 31.9043C56.1631 29.7165 55.1318 27.1813 54.914 24.2988C54.5653 20.5047 55.1238 16.8524 56.5898 13.3418C57.1272 11.9453 57.9651 10.7636 59.1034 9.79683C59.5568 9.49697 60.0294 9.26064 60.5214 9.08785ZM60.3925 10.1191C60.5214 10.1191 60.6503 10.1191 60.7792 10.1191C60.7408 22.8815 60.8053 35.6432 60.9726 48.4043C61.3706 50.3618 61.7789 52.3169 62.1972 54.2695C61.8936 55.4746 61.1202 56.0117 59.8769 55.8808C58.6336 56.0117 57.8601 55.4746 57.5566 54.2695C57.9812 52.3613 58.3894 50.4492 58.7812 48.5332C58.9026 42.8615 58.9455 37.1897 58.9101 31.5175C57.3 29.6713 56.3117 27.5229 55.9452 25.0722C55.2803 20.2757 56.1827 15.8071 58.6523 11.666C59.1706 11.0749 59.7507 10.5593 60.3925 10.1191Z" fill="#FA8507"/>
<path opacity="0.817" fill-rule="evenodd" clip-rule="evenodd" d="M30.0996 9.47459C31.187 9.42275 32.2612 9.50868 33.3222 9.7324C33.5095 10.0088 33.4666 10.2451 33.1933 10.4414C32.201 10.3764 31.2127 10.3979 30.2285 10.5058C29.5976 10.2199 29.5545 9.87616 30.0996 9.47459Z" fill="#FA8507"/>
<path opacity="0.822" fill-rule="evenodd" clip-rule="evenodd" d="M27.7795 9.7324C28.445 9.68172 28.6599 9.961 28.424 10.5703C24.5014 11.2857 21.0638 12.9615 18.1115 15.5976C17.5042 15.6999 17.2895 15.4634 17.467 14.8887C20.4225 12.2077 23.8601 10.489 27.7795 9.7324Z" fill="#FA8507"/>
<path opacity="0.856" fill-rule="evenodd" clip-rule="evenodd" d="M3.02907 10.377C3.21347 10.3667 3.38534 10.4097 3.5447 10.5059C3.6521 14.1145 3.71655 17.7238 3.73806 21.334C3.77611 23.2069 4.29173 24.9257 5.28493 26.4902C5.69109 26.865 6.12077 27.2088 6.57399 27.5215C6.63672 34.1391 6.59374 40.7563 6.44509 47.3731C6.01213 49.3875 5.60392 51.407 5.22048 53.4316C5.50291 54.702 6.29784 55.2606 7.60524 55.1074C8.91265 55.2606 9.70758 54.702 9.99001 53.4316C9.60225 51.4079 9.19404 49.3884 8.7654 47.3731C8.60847 40.7564 8.5655 34.1393 8.63649 27.5215C10.0711 26.6324 10.9304 25.3434 11.2146 23.6543C11.3322 23.1006 11.4181 22.5421 11.4724 21.9785C11.5154 18.1973 11.5584 14.416 11.6013 10.6348C11.8247 10.3639 12.0825 10.3209 12.3748 10.5059C12.4971 14.7636 12.4541 19.0175 12.2459 23.2676C12.0787 24.4611 11.692 25.5784 11.0857 26.6191C10.6961 27.2022 10.2019 27.6749 9.60329 28.0371C9.51071 34.3961 9.5322 40.7555 9.66774 47.1152C10.1258 49.1908 10.534 51.2747 10.8924 53.3672C10.8409 54.674 10.1963 55.5333 8.95876 55.9453C7.91735 56.0615 6.8861 56.0185 5.86501 55.8164C4.63225 55.1769 4.13812 54.1672 4.38259 52.7871C4.75283 50.893 5.13955 49.0023 5.54274 47.1152C5.64941 40.7559 5.69238 34.3966 5.67165 28.0371C4.02754 26.7261 3.1252 25.0074 2.96462 22.8809C2.75881 18.802 2.71584 14.7201 2.83571 10.6348C2.92816 10.5646 2.99262 10.4787 3.02907 10.377Z" fill="#FA8507"/>
<path opacity="0.862" fill-rule="evenodd" clip-rule="evenodd" d="M4.57618 10.377C4.76058 10.3667 4.93245 10.4097 5.0918 10.5059C5.26367 13.8145 5.26367 17.123 5.0918 20.4316C4.81544 20.6189 4.5791 20.576 4.38282 20.3027C4.29687 17.0801 4.29687 13.8574 4.38282 10.6348C4.47527 10.5646 4.53972 10.4787 4.57618 10.377Z" fill="#FA8507"/>
<path opacity="0.862" fill-rule="evenodd" clip-rule="evenodd" d="M6.38065 10.3769C6.73366 10.3079 6.96998 10.4368 7.08963 10.7636C7.17557 13.9003 7.17557 17.0371 7.08963 20.1738C6.93183 20.557 6.67401 20.643 6.31619 20.4316C6.21007 17.0708 6.23155 13.7192 6.38065 10.3769Z" fill="#FA8507"/>
<path opacity="0.864" fill-rule="evenodd" clip-rule="evenodd" d="M8.31446 10.3769C8.55814 10.3507 8.7515 10.4366 8.89453 10.6347C8.98048 13.8574 8.98048 17.08 8.89453 20.3027C8.63672 20.6465 8.37891 20.6465 8.1211 20.3027C8.03516 17.08 8.03516 13.8574 8.1211 10.6347C8.21355 10.5646 8.278 10.4786 8.31446 10.3769Z" fill="#FA8507"/>
<path opacity="0.862" fill-rule="evenodd" clip-rule="evenodd" d="M10.1191 10.377C10.3311 10.3494 10.5244 10.3924 10.6992 10.5059C10.7852 13.8145 10.7852 17.123 10.6992 20.4316C10.3414 20.6431 10.0836 20.5571 9.92578 20.1738C9.83984 17.0372 9.83984 13.9004 9.92578 10.7637C9.99195 10.6313 10.0564 10.5024 10.1191 10.377Z" fill="#FA8507"/>
<path opacity="0.835" fill-rule="evenodd" clip-rule="evenodd" d="M30.7441 12.1816C39.5998 11.6998 46.3674 15.1803 51.0468 22.623C53.7861 27.6934 54.4306 33.0217 52.9804 38.6074C50.7456 45.7406 46.0835 50.4887 38.9941 52.8516C30.6125 55.0374 23.4151 53.0394 17.4023 46.8574C11.9359 40.1837 10.7328 32.7931 13.7929 24.6855C17.2082 17.4886 22.8585 13.3205 30.7441 12.1816ZM31.0019 13.084C39.6366 12.749 46.1463 16.2724 50.5312 23.6543C54.226 31.5628 53.4095 38.9535 48.082 45.8262C42.3319 52.0178 35.3494 54.0588 27.1347 51.9492C20.582 49.6934 16.1777 45.289 13.9218 38.7363C11.8123 30.5216 13.8532 23.5392 20.0449 17.7891C23.2416 15.1594 26.8939 13.5911 31.0019 13.084ZM31.9042 16.0488C39.6025 16.0393 45.124 19.4767 48.4687 26.3613C51.2268 34.1974 49.4865 40.8361 43.248 46.2773C37.2858 50.4698 31.0554 50.8995 24.5566 47.5664C18.0869 43.4128 15.3585 37.5046 16.371 29.8418C18.4259 21.7059 23.6036 17.1083 31.9042 16.0488ZM23.2675 29.7129C25.6534 30.7039 27.6945 32.1649 29.3906 34.0957C30.3643 35.5419 30.7941 37.1317 30.6796 38.8652C29.8835 37.6168 29.0241 36.4136 28.1015 35.2559C27.7508 34.8931 27.4285 34.9145 27.1347 35.3203C28.2882 36.7892 29.3625 38.3147 30.3574 39.8965C29.3043 39.8537 28.3161 39.5314 27.3925 38.9297C25.1601 37.1669 23.8497 34.868 23.4609 32.0332C23.3367 31.2643 23.2723 30.4908 23.2675 29.7129Z" fill="#FA8507"/>
<path opacity="0.838" fill-rule="evenodd" clip-rule="evenodd" d="M31.6463 15.1465C39.2388 14.9988 44.9322 18.1785 48.7264 24.6856C52.0942 32.1356 51.1488 38.9676 45.8905 45.1817C40.4161 50.4655 34.0352 51.948 26.7479 49.6289C19.8674 46.7851 16.0217 41.6503 15.2108 34.2246C15.0004 26.4999 18.2445 20.7636 24.9432 17.0157C27.0872 16.0066 29.3215 15.3835 31.6463 15.1465ZM31.9041 16.0489C23.6035 17.1083 18.4258 21.7059 16.3709 29.8418C15.3584 37.5047 18.0868 43.4128 24.5565 47.5664C31.0553 50.8996 37.2857 50.4698 43.2479 46.2774C49.4864 40.8361 51.2267 34.1974 48.4686 26.3614C45.1239 19.4767 39.6024 16.0393 31.9041 16.0489ZM23.2674 29.7129C23.2722 30.4909 23.3366 31.2643 23.4608 32.0332C23.8496 34.868 25.16 37.1669 27.3924 38.9297C28.316 39.5315 29.3042 39.8537 30.3573 39.8965C29.3624 38.3147 28.2881 36.7892 27.1346 35.3203C27.4284 34.9146 27.7507 34.8932 28.1014 35.2559C29.024 36.4136 29.8834 37.6168 30.6795 38.8653C30.794 37.1317 30.3642 35.5419 29.3905 34.0957C27.6944 32.165 25.6533 30.704 23.2674 29.7129Z" fill="#FA8507"/>
<path opacity="0.81" fill-rule="evenodd" clip-rule="evenodd" d="M42.6035 24.9433C43.2144 24.8024 43.4722 25.0387 43.3769 25.6523C43.0924 29.1693 42.0827 32.4565 40.3476 35.5136C38.2254 38.2757 35.454 40.0588 32.0332 40.8632C28.3819 41.0252 25.6964 39.4998 23.9765 36.287C22.7 33.8318 22.3133 31.2966 22.8164 28.6816C25.4993 29.6357 27.8196 31.1395 29.7773 33.1933C30.2294 33.8391 30.6161 34.5266 30.9375 35.2558C31.8155 31.9282 33.7275 29.3716 36.6738 27.5859C36.9903 27.3756 37.3125 27.3542 37.6406 27.5214C37.7218 27.8312 37.6144 28.0676 37.3183 28.2304C32.9842 30.7754 31.1151 34.5352 31.7109 39.5097C33.3822 37.6266 34.9291 35.6501 36.3515 33.58C36.5705 33.4632 36.807 33.4203 37.0605 33.4511C37.0929 33.9449 36.9424 34.3746 36.6093 34.7402C35.3538 36.5117 34.0003 38.209 32.5488 39.832C35.2246 39.0626 37.4805 37.6231 39.3164 35.5136C41.1526 32.6044 42.2053 29.4248 42.4746 25.9745C41.7053 26.1235 40.9532 26.3383 40.2187 26.6191C39.6264 26.3593 39.6478 26.0801 40.2832 25.7812C41.0658 25.4848 41.8392 25.2056 42.6035 24.9433ZM23.2676 29.7128C23.2723 30.4908 23.3368 31.2642 23.4609 32.0331C23.8497 34.8679 25.1602 37.1668 27.3925 38.9296C28.3162 39.5313 29.3044 39.8536 30.3574 39.8964C29.3625 38.3146 28.2882 36.7891 27.1347 35.3202C27.4285 34.9144 27.7508 34.893 28.1015 35.2558C29.0241 36.4135 29.8835 37.6167 30.6797 38.8652C30.7941 37.1316 30.3644 35.5418 29.3906 34.0956C27.6946 32.1649 25.6535 30.7038 23.2676 29.7128Z" fill="white"/>
<path opacity="0.764" fill-rule="evenodd" clip-rule="evenodd" d="M3.80274 30.873C4.15575 30.804 4.39207 30.9329 4.51172 31.2597C4.59766 34.3964 4.59766 37.5332 4.51172 40.6699C4.21094 41.1855 3.91016 41.1855 3.60938 40.6699C3.52344 37.5332 3.52344 34.3964 3.60938 31.2597C3.67555 31.1273 3.74 30.9984 3.80274 30.873Z" fill="#FA8507"/>
<path opacity="0.743" fill-rule="evenodd" clip-rule="evenodd" d="M3.80261 41.9589C4.15562 41.89 4.39194 42.0189 4.51159 42.3457C4.59754 42.9473 4.59754 43.5487 4.51159 44.1504C4.21082 44.666 3.91003 44.666 3.60925 44.1504C3.47907 43.3924 3.54352 42.662 3.80261 41.9589Z" fill="#FA8507"/>
</svg>
