<svg width="26" height="32" viewBox="0 0 26 32" fill="none" xmlns="http://www.w3.org/2000/svg">
<path d="M21.7383 16.7637C21.7383 14.2344 22.9004 12.3887 25.1562 10.9531C23.8574 9.10742 21.9434 8.15039 19.4141 7.94531C16.9531 7.74023 14.2871 9.3125 13.3301 9.3125C12.3047 9.3125 9.98047 8.01367 8.13477 8.01367C4.30664 8.08203 0.273438 11.0215 0.273438 17.1055C0.273438 18.8828 0.546875 20.7285 1.23047 22.6426C2.11914 25.1719 5.26367 31.3242 8.54492 31.1875C10.2539 31.1875 11.4844 29.957 13.7402 29.957C15.9277 29.957 17.0215 31.1875 18.9355 31.1875C22.2852 31.1875 25.1562 25.582 25.9766 23.0527C21.5332 20.9336 21.7383 16.9004 21.7383 16.7637ZM17.9102 5.55273C19.7559 3.36523 19.5508 1.31445 19.5508 0.5625C17.9102 0.699219 15.9961 1.72461 14.9023 2.95508C13.6719 4.32227 12.9883 6.03125 13.125 7.87695C14.9023 8.01367 16.543 7.125 17.9102 5.55273Z" fill="white"/>
</svg>
