<svg width="32" height="33" viewBox="0 0 32 33" fill="none" xmlns="http://www.w3.org/2000/svg">
<path d="M16 8.41406C20.4297 8.41406 24.0859 12.0703 24.0859 16.5C24.0859 21 20.4297 24.5859 16 24.5859C11.5 24.5859 7.91406 21 7.91406 16.5C7.91406 12.0703 11.5 8.41406 16 8.41406ZM16 21.7734C18.8828 21.7734 21.2031 19.4531 21.2031 16.5C21.2031 13.6172 18.8828 11.2969 16 11.2969C13.0469 11.2969 10.7266 13.6172 10.7266 16.5C10.7266 19.4531 13.1172 21.7734 16 21.7734ZM26.2656 8.13281C26.2656 9.1875 25.4219 10.0312 24.3672 10.0312C23.3125 10.0312 22.4688 9.1875 22.4688 8.13281C22.4688 7.07812 23.3125 6.23438 24.3672 6.23438C25.4219 6.23438 26.2656 7.07812 26.2656 8.13281ZM31.6094 10.0312C31.75 12.6328 31.75 20.4375 31.6094 23.0391C31.4688 25.5703 30.9062 27.75 29.0781 29.6484C27.25 31.4766 25 32.0391 22.4688 32.1797C19.8672 32.3203 12.0625 32.3203 9.46094 32.1797C6.92969 32.0391 4.75 31.4766 2.85156 29.6484C1.02344 27.75 0.460938 25.5703 0.320312 23.0391C0.179688 20.4375 0.179688 12.6328 0.320312 10.0312C0.460938 7.5 1.02344 5.25 2.85156 3.42188C4.75 1.59375 6.92969 1.03125 9.46094 0.890625C12.0625 0.75 19.8672 0.75 22.4688 0.890625C25 1.03125 27.25 1.59375 29.0781 3.42188C30.9062 5.25 31.4688 7.5 31.6094 10.0312ZM28.2344 25.7812C29.0781 23.7422 28.8672 18.8203 28.8672 16.5C28.8672 14.25 29.0781 9.32812 28.2344 7.21875C27.6719 5.88281 26.6172 4.75781 25.2812 4.26562C23.1719 3.42188 18.25 3.63281 16 3.63281C13.6797 3.63281 8.75781 3.42188 6.71875 4.26562C5.3125 4.82812 4.25781 5.88281 3.69531 7.21875C2.85156 9.32812 3.0625 14.25 3.0625 16.5C3.0625 18.8203 2.85156 23.7422 3.69531 25.7812C4.25781 27.1875 5.3125 28.2422 6.71875 28.8047C8.75781 29.6484 13.6797 29.4375 16 29.4375C18.25 29.4375 23.1719 29.6484 25.2812 28.8047C26.6172 28.2422 27.7422 27.1875 28.2344 25.7812Z" fill="white"/>
</svg>
