<svg width="14" height="14" viewBox="0 0 14 14" fill="none" xmlns="http://www.w3.org/2000/svg">
<g clip-path="url(#clip0_1_476)">
<path d="M13.7922 5.06036C13.6073 4.82843 13.3299 4.69538 13.0312 4.69538H10.335L8.87294 1.3476C8.78229 1.14003 8.54052 1.04518 8.33293 1.13588C8.12533 1.22652 8.03053 1.46832 8.1212 1.67592L9.43986 4.69541H4.56015L5.8788 1.67592C5.96944 1.46832 5.87467 1.22655 5.66708 1.13588C5.45951 1.04518 5.21771 1.13998 5.12706 1.3476L3.66502 4.69541H0.968818C0.67006 4.69541 0.392713 4.82843 0.207842 5.06039C0.0263611 5.28811 -0.0406037 5.58085 0.0241189 5.86364L1.46396 12.1527C1.5645 12.5918 1.95297 12.8985 2.40866 12.8985H11.5913C12.047 12.8985 12.4355 12.5918 12.536 12.1527L13.9759 5.86361C14.0406 5.58082 13.9736 5.28808 13.7922 5.06036ZM11.5913 12.0782H2.40866C2.33901 12.0782 2.27801 12.0325 2.2636 11.9696L0.823759 5.68057C0.812467 5.63122 0.831416 5.59408 0.849353 5.57164C0.865978 5.55075 0.903631 5.51572 0.968818 5.51572H3.30679L3.19936 5.76173C3.10871 5.96932 3.20349 6.2111 3.41108 6.30177C3.46276 6.32444 3.51857 6.33615 3.57501 6.33617C3.73311 6.33617 3.88377 6.24421 3.95109 6.09007L4.20192 5.51577H9.79814L10.049 6.09007C10.1163 6.24424 10.267 6.33617 10.4251 6.33617C10.4798 6.33617 10.5355 6.32512 10.589 6.30177C10.7966 6.21112 10.8914 5.96932 10.8007 5.76173L10.6933 5.51572H13.0312C13.0964 5.51572 13.1341 5.55075 13.1507 5.57164C13.1686 5.59411 13.1876 5.63125 13.1763 5.68055L11.7365 11.9696C11.722 12.0325 11.661 12.0782 11.5913 12.0782Z" fill="#010F1C"/>
<path d="M4.53906 7.29303C4.31255 7.29303 4.12891 7.47667 4.12891 7.70319V10.711C4.12891 10.9375 4.31255 11.1212 4.53906 11.1212C4.76558 11.1212 4.94922 10.9375 4.94922 10.711V7.70319C4.94922 7.47667 4.76561 7.29303 4.53906 7.29303ZM7 7.29303C6.77348 7.29303 6.58984 7.47667 6.58984 7.70319V10.711C6.58984 10.9375 6.77348 11.1212 7 11.1212C7.22652 11.1212 7.41016 10.9375 7.41016 10.711V7.70319C7.41016 7.47667 7.22652 7.29303 7 7.29303ZM9.46094 7.29303C9.23442 7.29303 9.05078 7.47667 9.05078 7.70319V10.711C9.05078 10.9375 9.23442 11.1212 9.46094 11.1212C9.68745 11.1212 9.87109 10.9375 9.87109 10.711V7.70319C9.87107 7.47667 9.68745 7.29303 9.46094 7.29303Z" fill="#010F1C"/>
</g>
<defs>
<clipPath id="clip0_1_476">
<rect width="14" height="14" fill="white"/>
</clipPath>
</defs>
</svg>
