<svg width="86" height="16" viewBox="0 0 86 16" fill="none" xmlns="http://www.w3.org/2000/svg">
<path d="M7.96295 1.33333L10.0134 5.50667L14.5988 6.18L11.2809 9.42667L12.0639 14.0133L7.96295 11.8467L3.86203 14.0133L4.64505 9.42667L1.32715 6.18L5.91249 5.50667L7.96295 1.33333Z" fill="#FFA41B"/>
<path d="M25.4814 1.33333L27.5319 5.50667L32.1172 6.18L28.7993 9.42667L29.5824 14.0133L25.4814 11.8467L21.3805 14.0133L22.1635 9.42667L18.8456 6.18L23.431 5.50667L25.4814 1.33333Z" fill="#FFA41B"/>
<path d="M43 1.33333L45.0505 5.50667L49.6358 6.18L46.3179 9.42667L47.1009 14.0133L43 11.8467L38.8991 14.0133L39.6821 9.42667L36.3642 6.18L40.9495 5.50667L43 1.33333Z" fill="#FFA41B"/>
<g opacity="0.4">
<path d="M78.037 1.33333L80.0875 5.50667L84.6728 6.18L81.3549 9.42667L82.138 14.0133L78.037 11.8467L73.9361 14.0133L74.7191 9.42667L71.4012 6.18L75.9866 5.50667L78.037 1.33333Z" fill="#67687A"/>
</g>
<path d="M60.5185 1.33333L62.569 5.50667L67.1543 6.18L63.8364 9.42667L64.6194 14.0133L60.5185 11.8467L56.4176 14.0133L57.2006 9.42667L53.8827 6.18L58.468 5.50667L60.5185 1.33333Z" fill="#FFA41B"/>
</svg>
