<svg width="36" height="36" viewBox="0 0 36 36" fill="none" xmlns="http://www.w3.org/2000/svg">
<g clip-path="url(#clip0_4_34727)">
<path opacity="0.961" fill-rule="evenodd" clip-rule="evenodd" d="M16.6291 -0.0351562C17.5197 -0.0351562 18.4103 -0.0351562 19.301 -0.0351562C24.3217 0.688122 27.8256 3.38344 29.8127 8.05078C30.8409 11.0318 30.8878 14.0318 29.9533 17.0508C29.0303 19.8106 27.7881 22.4122 26.2267 24.8555C25.588 25.8753 24.9317 26.8831 24.258 27.8789C22.4829 30.3744 20.7251 32.8822 18.9845 35.4023C18.8329 35.6468 18.6337 35.8343 18.3869 35.9648C18.1056 35.9648 17.8244 35.9648 17.5431 35.9648C17.2963 35.8343 17.0971 35.6468 16.9455 35.4023C15.205 32.8822 13.4472 30.3744 11.672 27.8789C9.88766 25.2958 8.3173 22.5771 6.96111 19.7227C6.21818 18.0563 5.70256 16.3219 5.41423 14.5195C4.83475 8.79982 6.97928 4.45217 11.8478 1.47656C13.3603 0.688792 14.954 0.184885 16.6291 -0.0351562ZM17.8947 2.07422C22.3522 2.28184 25.5749 4.36778 27.5627 8.33203C28.3988 10.2476 28.6566 12.2397 28.3361 14.3086C27.8548 16.7366 27.0111 19.0335 25.8049 21.1992C24.7445 23.1098 23.5961 24.9613 22.3595 26.7539C20.9084 28.8262 19.4435 30.8887 17.965 32.9414C15.7103 29.862 13.5423 26.7214 11.4611 23.5195C10.1162 21.3687 9.01466 19.0953 8.15642 16.6992C6.71574 12.4496 7.46574 8.65273 10.4064 5.30859C12.4864 3.26759 14.9825 2.18946 17.8947 2.07422ZM17.8947 8.40234C19.9648 8.55225 21.3359 9.60694 22.008 11.5664C22.4186 13.7801 21.6335 15.409 19.6525 16.4531C17.379 17.2188 15.5861 16.5976 14.2736 14.5898C13.3043 12.2248 13.8785 10.338 15.9963 8.92969C16.6053 8.63121 17.2381 8.45543 17.8947 8.40234Z" fill="white"/>
<path opacity="0.961" fill-rule="evenodd" clip-rule="evenodd" d="M16.9805 6.29308C19.6693 6.04316 21.7904 7.0041 23.3438 9.17589C24.3922 11.0091 24.5798 12.931 23.9063 14.9415C22.966 17.1469 21.3136 18.4711 18.9493 18.9142C16.2593 19.1986 14.1382 18.2494 12.586 16.0665C11.5376 14.2333 11.35 12.3114 12.0235 10.3009C12.9756 8.09456 14.6279 6.75863 16.9805 6.29308ZM17.8946 8.40246C17.238 8.45554 16.6052 8.63132 15.9962 8.9298C13.8784 10.3382 13.3042 12.2249 14.2735 14.59C15.586 16.5977 17.3789 17.2189 19.6524 16.4532C21.6334 15.4091 22.4185 13.7802 22.0079 11.5665C21.3358 9.60705 19.9647 8.55236 17.8946 8.40246Z" fill="white"/>
</g>
<defs>
<clipPath id="clip0_4_34727">
<rect width="36" height="36" fill="white"/>
</clipPath>
</defs>
</svg>
