<svg width="91" height="90" viewBox="0 0 91 90" fill="none" xmlns="http://www.w3.org/2000/svg">
<path d="M82.7876 60.6703C79.688 57.5843 74.6447 57.5843 71.5451 60.6703L63.4149 68.7647C62.2843 65.7673 59.3752 63.6298 55.9707 63.6298H47.3704C46.1509 63.6298 45.6174 62.9595 44.3724 61.8844C40.5233 58.5076 35.3784 56.8634 30.2716 57.3693C25.5332 57.8372 21.2649 60.0505 18.1271 63.6298H7.93897C6.47807 63.6298 5.29663 64.806 5.29663 66.2732V87.3693C5.29663 88.8237 6.47807 90 7.93897 90C10.1621 90 59.0322 90 61.268 90C63.3895 90 65.3839 89.1779 66.8829 87.6854L82.7749 71.8633C85.8873 68.7647 85.8872 63.7563 82.7876 60.6703ZM16.2597 84.7259H10.6067V68.9038H16.2597V84.7259ZM79.0528 68.1197L63.1608 83.9418C62.6654 84.435 61.9794 84.7133 61.2934 84.7133C60.4296 84.7133 22.4209 84.7133 21.5697 84.7133V67.8035C23.8691 64.8187 27.1593 62.9721 30.8433 62.6053C34.4892 62.2386 38.1604 63.4148 40.9171 65.8305C42.2636 67.0067 44.0294 68.8912 47.4086 68.8912H56.0088C57.4697 68.8912 58.6511 70.0801 58.6511 71.5219C58.6511 72.9763 57.457 74.1652 56.0088 74.1652H45.1855C42.6448 74.1652 40.2311 75.392 38.7448 77.4409C37.8937 78.6171 38.1477 80.274 39.3419 81.1214C40.5233 81.9687 42.1874 81.7158 43.0386 80.5269C43.534 79.844 44.3343 79.4393 45.1855 79.4393C48.0183 79.4393 56.2247 79.4393 59.1084 79.4393C59.8071 79.4393 60.4804 79.161 60.9758 78.6677L75.318 64.3887C76.347 63.3642 78.0365 63.3642 79.0655 64.3887C80.0818 65.4258 80.0818 67.0952 79.0528 68.1197Z" fill="#EB0029"/>
<path d="M87.768 47.8077H85.0368C83.83 29.4309 70.1103 14.4435 52.6176 11.2057C53.0876 10.2066 53.3417 9.08094 53.3417 7.90472C53.3417 3.54131 49.7721 0 45.4021 0C41.0194 0 37.4497 3.55396 37.4497 7.90472C37.4497 9.08094 37.7165 10.1939 38.1738 11.2057C20.6812 14.4182 6.63119 29.3676 5.39896 47.8204H2.65501C1.19412 47.8204 0 48.9966 0 50.4511C0 51.9055 1.18142 53.0944 2.65501 53.0944H87.768C89.2289 53.0944 90.4103 51.9182 90.4103 50.4511C90.423 48.984 89.2289 47.8077 87.768 47.8077ZM45.3894 5.26139C46.8503 5.26139 48.0444 6.45026 48.0444 7.89208C48.0444 9.34655 46.8503 10.5354 45.3894 10.5354C43.9285 10.5354 42.7471 9.34655 42.7471 7.89208C42.7471 6.43761 43.9285 5.26139 45.3894 5.26139ZM10.709 47.8077C12.1191 30.215 27.4267 15.7715 45.3894 15.7715C63.4918 15.7715 78.3802 29.9368 79.7267 47.8077H10.709Z" fill="#EB0029"/>
</svg>
