<svg width="191" height="146" viewBox="0 0 191 146" fill="none" xmlns="http://www.w3.org/2000/svg">
<path d="M134.358 132.899C134.053 133.147 133.75 133.399 133.441 133.642C131.142 135.452 128.745 137.081 126.021 138.233C123.15 139.446 120.347 140.822 117.522 142.143C115.804 142.946 113.99 143.474 112.189 144.041C111.559 144.24 110.956 144.185 110.668 143.491C110.399 142.844 110.755 142.381 111.294 142.065C112.975 141.076 114.731 140.235 116.549 139.535C122.107 137.392 126.965 134.191 131.187 129.996C133.225 127.97 134.825 125.607 136.539 123.33C136.471 123.259 136.402 123.189 136.334 123.118C136.156 123.341 135.986 123.569 135.8 123.784C133.489 126.462 130.623 128.443 127.64 130.279C122.695 133.324 117.548 136.03 112.666 139.181C112.33 139.398 111.983 139.601 111.629 139.789C111.098 140.072 110.567 140.109 110.163 139.588C109.784 139.1 109.927 138.599 110.307 138.184C110.828 137.615 111.382 137.075 111.931 136.532C115.472 133.025 119.351 129.888 122.997 126.499C126.899 122.871 131.127 119.624 135.041 116.013C135.925 115.198 136.814 114.389 137.584 113.461C137.753 113.257 138.016 113.095 138.014 112.764C137.944 112.776 137.877 112.766 137.849 112.795C134.482 116.215 130.416 118.801 126.865 121.998C122.93 125.539 118.75 128.805 114.986 132.54C113.925 133.593 112.619 134.337 111.378 135.158C107.628 137.638 103.935 140.196 100.563 143.185C100.006 143.679 99.4815 144.203 99.0296 144.802C98.4998 145.503 97.9123 145.677 97.4429 145.266C96.8209 144.722 97.0375 144.127 97.457 143.592C99.6626 140.777 101.835 137.938 104.33 135.357C109.668 129.833 115.539 124.887 121.155 119.664C124.494 116.558 127.966 113.631 131.688 110.998C132.974 110.088 134.268 109.137 135.268 107.931C138.847 103.614 142.845 99.5941 145.007 94.2519C145.918 91.9995 147.007 89.8197 148.014 87.6057C148.085 87.45 148.221 87.2724 148.193 87.132C147.925 85.7938 148.857 84.8113 149.172 83.6511C149.434 82.6839 149.867 81.8147 150.277 80.9215C150.53 80.369 150.495 79.8051 150.22 79.2626C148.93 76.7167 149.421 74.2617 150.616 71.8548C151.153 70.7748 151.888 69.8159 152.593 68.843C153.113 68.1264 153.194 67.4222 152.823 66.5958C152.177 65.161 151.605 63.6955 151.67 62.0699C151.688 61.6233 151.369 61.3473 151.044 61.0988C148.968 59.5135 148.362 57.4124 148.906 54.9259C148.989 54.544 149.004 54.3188 148.577 54.1223C146.605 53.2142 145.154 51.7496 144.228 49.7933C143.986 49.2797 143.67 49.0763 143.126 49.0413C142.233 48.984 141.349 49.0746 140.472 49.1761C138.204 49.4386 135.957 49.3865 133.729 48.8769C132.722 48.6463 131.835 48.8471 130.941 49.3646C128.912 50.5392 126.903 51.764 124.675 52.5479C124.327 52.6704 124.106 52.9281 123.915 53.2142C119.602 59.6653 114.823 65.7813 110.366 72.1278C109.759 72.9918 109.265 73.9345 108.709 74.8348C108.374 75.3781 108.439 75.7105 109.129 75.851C111.624 76.3597 113.924 77.5631 116.475 77.8939C117.324 78.0041 118.139 78.3208 118.909 78.7075C119.442 78.9753 119.886 79.3602 119.816 80.033C119.74 80.7526 119.201 81.0418 118.573 81.1424C117.328 81.3423 116.063 81.4569 114.81 81.3366C111.959 81.0632 109.155 80.4761 106.348 79.9258C105.518 79.7631 104.792 79.3423 104.133 78.8313C103.167 78.0828 102.922 77.0553 103.163 75.907C103.518 74.2096 104.267 72.6619 105.07 71.1405C105.386 70.5416 105.723 69.9537 105.931 69.2599C105.557 69.6685 105.182 70.0766 104.809 70.4861C103.632 71.7774 102.559 73.1532 101.488 74.5338C100.569 75.7189 100.315 76.9945 100.492 78.477C100.88 81.7224 101.545 84.9145 102.194 88.1101C102.752 90.8577 103.046 93.6548 103.75 96.3744C103.882 96.8858 103.83 97.3696 103.34 97.6614C102.812 97.9764 102.353 97.759 101.953 97.3639C101.564 96.9799 101.173 96.5827 100.962 96.0778C99.275 92.045 97.2618 88.1311 96.4233 83.7859C96.016 81.6748 95.7597 79.5457 95.7098 77.3939C95.6814 76.1585 95.9946 75.0308 96.6367 73.966C97.9736 71.7494 99.6586 69.7975 101.263 67.7839C102.739 65.9305 104.237 64.094 105.666 62.1806C105.419 62.3928 105.164 62.5949 104.929 62.8184C101.441 66.1369 97.7373 69.1995 93.9092 72.1164C90.0933 75.0242 89.8987 75.4113 89.638 80.2067C89.4997 82.7513 89.4245 85.2951 89.5863 87.8437C89.8991 92.7628 89.585 97.6859 89.6432 102.607C89.6506 103.234 89.4949 103.806 88.7696 103.862C87.9927 103.922 87.8129 103.316 87.662 102.693C85.8829 95.356 85.427 87.8866 85.3995 80.3725C85.3951 79.1992 85.3815 78.0247 85.3282 76.8527C85.2499 75.1283 85.7975 73.6392 86.9529 72.3776C89.0614 70.0757 91.3068 67.9099 93.6056 65.801C97.6761 62.0669 101.76 58.3468 105.836 54.6188C105.975 54.4915 106.094 54.341 106.241 54.1814C105.506 53.7295 104.905 53.768 104.254 54.2995C103.498 54.9163 102.779 55.5677 102.072 56.2352C97.9263 60.1438 93.6476 63.9007 89.2267 67.4957C85.5766 70.4633 81.5757 72.8409 77.1614 74.4638C72.6111 76.1371 68.4531 78.5124 64.4797 81.2474C61.7929 83.0969 59.1113 84.9552 56.4223 86.8017C55.966 87.1149 55.4328 87.46 54.9831 86.8739C54.5596 86.3218 55.0163 85.8918 55.4078 85.5641C61.7448 80.257 67.8682 74.6536 75.4339 71.0416C76.7507 70.413 78.0661 69.7796 79.3964 69.1803C81.9331 68.0372 83.9646 66.1986 86.0027 64.3464C85.7704 64.482 85.536 64.6128 85.3068 64.7533C80.6698 67.5997 75.93 70.2625 71.0559 72.6812C68.7199 73.8404 66.4438 75.0999 64.2601 76.5255C63.9727 76.7132 63.6923 76.9236 63.3817 77.0623C61.5829 77.8637 60.1686 79.1069 58.7491 80.4792C56.8628 82.3025 54.4275 83.4596 52.12 84.7203C46.6212 87.7251 41.1137 90.7129 35.87 94.1561C35.7742 94.2191 35.6823 94.2873 35.5843 94.3464C34.9824 94.7082 34.3656 94.8127 33.9027 94.1811C33.4364 93.545 33.7207 92.9807 34.2697 92.5419C34.6486 92.2388 35.055 91.9667 35.4653 91.7068C41.15 88.1066 45.993 83.4464 51.1864 79.2281C51.249 79.1774 51.2871 79.0964 51.343 79.0212C51.1353 78.9031 51.0123 79.064 50.8855 79.1423C41.8167 84.7448 32.1101 89.0314 22.2609 93.0244C19.872 93.9929 17.5355 95.0717 15.2695 96.3018C14.8172 96.5472 14.3649 96.8005 13.8093 96.6719C12.8592 96.4519 12.5455 95.5748 13.1995 94.8591C13.5643 94.4597 13.99 94.1128 14.4068 93.7642C18.2149 90.5826 21.5964 86.9579 25.103 83.4635C25.2417 83.3253 25.3558 83.163 25.6087 82.8589C23.8484 82.8616 23.1546 81.2128 21.732 80.757C21.3229 80.6262 21.0281 80.2167 20.9494 79.785C20.8015 78.9743 20.438 79.2014 19.9725 79.4936C17.1829 81.2456 14.2761 82.7885 11.3504 84.2964C8.80269 85.6092 6.16004 86.6923 3.46272 87.6634C2.22036 88.1105 1.21904 87.9565 0.297768 87.0313C-0.0780025 86.6538 -0.0863072 86.2663 0.206348 85.8809C3.66265 81.3266 6.76371 76.4848 10.9729 72.5377C11.119 72.4008 11.2489 72.2411 11.4107 72.1274C11.8268 71.8356 11.9318 71.581 11.5827 71.0985C11.1728 70.532 11.451 69.9432 11.853 69.4493C12.4724 68.6881 13.2376 68.084 14.0272 67.5131C15.7437 66.2725 17.4629 65.0354 19.1926 63.8141C19.5509 63.5612 19.8028 63.4081 19.4481 62.9055C18.9883 62.2545 19.3041 61.6469 19.8177 61.1487C20.7263 60.2676 21.777 59.5677 22.8177 58.8599C24.3353 57.828 25.7915 56.723 27.1292 55.4631C27.3991 55.209 27.5418 54.9828 27.4792 54.5782C27.1756 52.6276 27.456 52.0313 29.2268 51.1564C33.0755 49.2544 36.8743 47.2583 40.6491 45.2145C43.3696 43.7416 45.9445 42.0399 48.5547 40.3864C50.3225 39.2665 52.1655 38.2372 53.949 37.1226C57.2526 35.0578 60.3965 32.7594 63.5619 30.4969C67.2195 27.8827 70.9439 25.373 74.7502 22.9841C75.328 22.6215 75.9593 22.3406 76.5765 22.0445C82.1497 19.3703 87.718 16.6809 93.7386 15.117C95.2098 14.7347 96.7129 14.5195 98.2251 14.3887C100.106 14.2259 101.004 15.3379 100.522 17.1774C100.388 17.6905 100.091 18.1656 100.101 18.7247C100.412 18.7531 100.558 18.5506 100.728 18.4167C105.167 14.928 109.947 11.9236 114.608 8.7569C119.095 5.70787 124.185 4.04292 129.55 3.25026C130.403 3.12384 131.263 3.17459 132.121 3.22839C132.695 3.26426 133.203 3.43968 133.493 3.96681C133.732 4.4012 133.995 4.26778 134.341 4.12124C139.002 2.1444 143.851 0.87534 148.862 0.144796C152.858 -0.437889 156.363 0.801852 159.736 2.7192C160.211 2.98911 160.685 3.14353 161.257 3.18728C166.348 3.57573 171.309 4.42133 175.659 7.39075C177.461 8.62042 179.025 10.0684 180.135 11.9455C181.559 14.3558 182.894 16.7938 183.802 19.4845C184.779 22.3787 186.13 25.1447 187.271 27.9851C189.532 33.6124 190.863 39.4393 190.935 45.5282C190.963 47.977 190.83 50.4539 189.995 52.7295C189.358 54.4653 189.389 56.1464 189.338 57.8949C189.134 64.9204 186.966 71.3159 183.046 77.1318C181.399 79.5759 179.683 81.9735 178.15 84.495C177.685 85.2588 177.288 86.0423 177.023 86.894C176.306 89.1928 175.362 91.4019 174.408 93.6093C173.498 95.713 172.163 97.4737 170.272 98.7633C167 100.995 164.45 103.981 161.75 106.812C161.176 107.414 160.596 108.001 159.951 108.527C158.787 109.477 157.484 109.786 156.011 109.506C155.197 109.352 154.366 109.287 153.547 109.161C153.078 109.089 152.833 109.278 152.786 109.733C152.728 110.302 152.651 110.871 152.641 111.441C152.612 113.219 152.186 114.9 151.391 116.48C150.103 119.039 148.589 121.45 146.881 123.764C143.555 128.273 139.935 132.493 135.693 136.168C134.718 137.013 133.755 137.866 132.59 138.449C131.907 138.791 131.207 139.142 130.568 138.404C130.122 137.89 130.307 137.249 131.091 136.468C132.224 135.337 133.388 134.237 134.358 132.899ZM61.9985 60.6404C64.5112 59.4107 66.7825 60.5319 69.0594 61.4098C69.4356 61.5551 69.6276 61.4873 69.8918 61.3005C70.3813 60.954 70.8586 60.5817 71.3809 60.2921C71.7978 60.0612 72.2374 60.1548 72.5192 60.5691C72.7768 60.9475 72.7471 61.426 72.3989 61.66C71.7418 62.1019 71.6478 62.7642 71.4081 63.4225C70.7436 65.248 69.9868 67.0398 69.2545 68.8404C69.1482 69.102 68.9885 69.3452 68.8284 69.5801C68.7728 69.6615 68.6398 69.7385 68.5458 69.7345C68.3651 69.7271 68.3625 69.5538 68.345 69.4134C68.2899 68.9677 68.4544 68.5709 68.6158 68.1711C69.2746 66.5429 69.9299 64.9134 70.6447 63.1408C69.9597 63.3788 69.6058 63.9624 69.0349 63.8744C68.4994 63.7922 68.3398 64.0717 68.1639 64.4611C67.2339 66.5188 66.2916 68.5713 65.3524 70.6252C65.2339 70.885 65.1153 71.1453 64.9784 71.3955C64.8971 71.5443 64.7842 71.6978 64.5759 71.6217C64.4189 71.5644 64.4058 71.4065 64.3861 71.2652C64.3244 70.8194 64.4749 70.4161 64.6538 70.0241C65.5449 68.074 66.4119 66.1115 67.3538 64.1859C67.6245 63.6325 67.4999 63.2887 67.1306 62.9147C66.3467 62.1216 63.8708 61.8779 62.9215 62.4711C62.4893 62.741 62.6599 62.9908 62.8935 63.2235C63.3983 63.7275 63.8813 64.2476 64.3056 64.9094C64.5361 64.4602 64.7207 64.0752 64.929 63.7034C65.0921 63.412 65.2527 62.9921 65.6809 63.2056C66.1302 63.43 65.8419 63.7988 65.7067 64.0962C64.6884 66.3334 63.6652 68.5687 62.6389 70.8023C62.5322 71.0351 62.4018 71.2582 62.268 71.4773C62.1927 71.6003 62.061 71.7398 61.9272 71.6746C61.8265 71.6256 61.7513 71.4502 61.7317 71.3207C61.6542 70.8155 61.8699 70.3666 62.0615 69.9222C62.4398 69.0447 62.8366 68.175 63.3169 67.0971C62.0295 67.8404 60.981 68.427 60.7325 69.8246C60.6244 70.4331 60.3126 71.0066 60.0873 71.5937C59.7797 72.3942 59.4761 73.1961 59.1498 73.9892C59.0549 74.2202 58.9035 74.5605 58.6376 74.4852C58.3239 74.3964 58.3401 74.0111 58.4109 73.7416C58.5339 73.274 58.7233 72.8238 58.879 72.3645C59.2106 71.3881 59.6822 70.4563 59.9223 69.3784C58.7176 69.8754 57.9162 70.5805 57.5859 71.8058C57.3414 72.7118 56.9398 73.5767 56.5937 74.4538C56.5128 74.6585 56.4127 74.9258 56.1257 74.8702C55.8068 74.8085 55.7657 74.5181 55.8064 74.2578C55.8501 73.9787 55.9411 73.704 56.0377 73.4367C56.2862 72.7503 56.5491 72.0696 56.826 71.3334C55.291 71.7542 55.2062 71.8299 54.7307 73.123C54.5631 73.5793 54.4218 74.0482 54.2154 74.4861C53.9923 74.959 54.1034 75.085 54.6187 75.1795C55.7893 75.3938 56.1817 76.3265 55.5872 77.3724C55.3764 77.7434 55.1064 78.0833 54.8439 78.4219C53.5521 80.0881 51.92 81.397 50.3098 82.7299C50.0714 82.9272 49.7717 83.0886 49.6011 83.4779C51.8518 82.5803 53.6769 81.1638 55.6764 80.0562C56.697 79.491 57.5745 78.7862 58.2631 77.8449C58.8882 76.9901 59.7097 76.393 60.6826 75.9848C61.1301 75.7972 61.5908 75.6134 61.9928 75.3483C66.2575 72.536 70.9045 70.4226 75.3722 67.9808C80.0927 65.4007 84.7901 62.776 89.0071 59.3827C90.6598 58.0528 92.5054 56.9981 94.4398 56.114C96.7299 55.0677 99.0353 54.0685 101.399 53.1853C103.464 52.4132 105.436 51.3528 106.728 49.4521C107.401 48.463 107.938 47.3768 108.488 46.3095C110.8 41.8203 111.893 37.0464 111.748 31.9969C111.715 30.8486 111.359 30.4733 110.197 30.2025C107.744 29.6308 105.312 29.0126 102.971 28.0437C98.0816 26.0196 97.2155 21.3061 98.0921 18.1485C98.6669 16.0776 98.6722 16.075 96.4744 16.4232C89.9043 17.4644 84.0526 20.4758 78.0743 23.139C77.8836 23.2239 77.7152 23.2698 77.755 23.6219C77.9217 25.094 77.1373 26.2405 76.3237 27.6255C76.1264 26.1058 76.8442 25.0017 77.0765 23.7051C72.4325 26.3831 68.1398 29.29 63.9661 32.4396C65.3642 32.9576 65.5357 32.8815 66.0191 31.6417C66.1346 31.3456 66.1945 30.8587 66.6704 31.0442C67.114 31.217 66.929 31.6404 66.7842 31.9366C66.3809 32.7625 66.6976 32.9615 67.5222 33.0783C68.5655 33.2262 69.6613 33.2616 70.6854 33.7857C70.2702 34.2223 69.8044 34.2376 69.3586 34.1855C68.5078 34.0862 67.6521 33.9799 66.8201 33.7835C66.2925 33.6588 66.1027 33.8333 65.9587 34.2931C65.7969 34.8102 65.5886 35.3146 65.3647 35.8084C65.2802 35.9948 65.1705 36.2936 64.8852 36.1869C64.6359 36.0937 64.6411 35.7945 64.6954 35.5854C64.831 35.0617 65.0068 34.5477 65.1849 34.0363C65.2907 33.7327 65.2605 33.5888 64.8931 33.5096C62.9574 33.0927 62.9596 33.0818 61.3034 34.2594C60.6971 34.6908 60.0881 35.1186 59.4844 35.5539C59.0645 35.8566 58.6515 36.1685 58.1384 36.5482C58.3974 36.5994 58.4805 36.6357 58.5601 36.6282C59.3226 36.5587 60.3038 37.1453 60.6861 35.9091C60.7343 35.7538 60.9687 35.7275 61.1424 35.8128C61.3222 35.9012 61.3878 36.0884 61.3362 36.2472C61.1459 36.8325 61.5326 36.8334 61.9189 36.875C63.2837 37.0233 64.6503 37.1588 66.0095 37.3474C66.5086 37.4165 67.0865 37.3981 67.4474 37.9362C66.7601 38.3583 66.0716 38.1593 65.401 38.0915C64.121 37.9616 62.8415 37.8194 61.5654 37.654C61.0628 37.5893 60.7985 37.7262 60.6174 38.2363C60.2644 39.2298 60.04 40.2739 59.5207 41.2048C59.2976 41.6047 59.6244 41.5649 59.8239 41.5885C60.4893 41.6668 61.1652 41.6904 61.841 42.0557C61.1634 42.5154 60.4866 42.4546 59.8081 42.3785C58.5295 42.235 57.2495 42.1012 55.9726 41.9402C55.5067 41.8816 55.2381 41.9953 55.0889 42.4844C54.8221 43.3584 54.5049 44.2184 54.1716 45.0697C53.987 45.5409 54.0561 45.7084 54.6008 45.7604C55.9092 45.8851 57.2119 46.0741 58.5137 46.257C58.9739 46.3217 59.4472 46.3948 59.7946 46.8392C59.3462 46.9328 58.9026 46.9683 58.4665 46.9258C57.414 46.8239 56.3667 46.6655 55.3138 46.5667C53.8313 46.4271 53.8374 46.4442 53.3028 47.8204C53.2088 48.0628 53.1782 48.4976 52.8168 48.4092C52.532 48.3397 52.5924 47.939 52.5421 47.6599C52.4577 47.1927 53.0504 46.6454 52.5684 46.3239C52.2101 46.0846 51.6283 46.1808 51.1462 46.127C51.004 46.1113 50.8579 46.1095 50.7206 46.0745C49.9301 45.8742 49.511 46.1905 49.3133 46.9704C49.1597 47.5767 48.9261 48.1691 48.6693 48.7412C48.3994 49.3423 48.6396 49.4547 49.1965 49.5155C51.1856 49.733 53.1707 49.9862 55.1528 50.2579C55.4516 50.299 55.8449 50.2386 56.0544 50.614C55.6362 51.0142 55.1633 50.9832 54.6703 50.918C52.8282 50.6739 50.9821 50.4561 49.1422 50.1984C48.5009 50.1087 48.0333 50.1783 47.8916 50.9285C47.8364 51.2194 47.6816 51.4972 47.413 51.6827C47.1365 51.4215 47.0394 51.1179 47.1247 50.8598C47.3819 50.0803 47.0241 49.9224 46.3495 49.9639C46.0682 49.981 45.7783 49.9246 45.4983 49.8699C45.0009 49.7728 44.7143 49.9333 44.5267 50.4316C44.175 51.366 43.7555 52.275 43.36 53.2037C43.4785 53.3896 43.8097 53.1678 43.93 53.5121C42.9427 54.0292 41.8608 54.163 40.7996 54.0585C39.8617 53.9662 39.4479 54.3376 39.185 55.146C39.0402 55.5904 38.8985 56.0856 38.3713 56.2803C37.9628 55.6652 38.2637 55.1101 38.4938 54.5611C38.6228 54.254 38.7799 53.9876 38.3188 53.8187C38.0874 53.7339 37.936 53.5449 38.0476 53.2772C38.1407 53.0545 38.3586 53.0108 38.5564 53.0768C39.0826 53.2527 39.2559 52.9207 39.4514 52.5379C39.8022 51.8511 40.1745 51.1735 40.5691 50.5107C40.7397 50.2246 40.9781 49.8532 41.3779 50.1302C41.7244 50.3703 41.4851 50.6844 41.3267 50.9613C40.986 51.5563 40.6495 52.1543 40.3254 52.7588C40.2436 52.9119 40.0586 53.2024 40.3766 53.2199C41.1155 53.2605 41.86 53.2094 42.6019 53.1818C42.7322 53.177 42.7659 53.044 42.7673 52.9233C42.7799 51.9705 43.2983 51.1844 43.6356 50.3419C43.8075 49.9132 43.7165 49.778 43.273 49.7942C42.8731 49.8091 42.4694 49.82 42.0717 49.7841C41.1356 49.7006 40.4308 50.0335 39.7073 50.6656C37.0716 52.9666 34.712 55.5397 32.2247 57.9863C26.187 63.9256 19.9957 69.7078 13.6956 75.3707C13.4698 75.5736 13.1719 75.7328 13.1356 76.1073C17.1597 72.8496 22.0421 70.7617 25.5369 66.8119C25.9507 66.3443 26.4682 65.9659 26.9516 65.5626C30.7854 62.3639 35.17 60.0655 39.5988 57.8411C40.4527 57.4124 41.3578 57.3962 42.2839 57.4933C42.8491 57.5528 43.4217 57.6937 43.9882 57.5366C45.1111 57.2252 45.4668 57.366 45.8412 58.4802C46.269 59.7541 46.5634 61.0743 47.0215 62.3359C48.1155 65.3482 47.7087 67.9996 45.3303 70.2621C45.0035 70.5731 44.7585 70.9778 44.5105 71.3614C44.3683 71.581 44.1002 71.7678 44.2073 72.1707C44.5691 71.9336 44.9274 71.7538 45.2205 71.4983C47.4782 69.5315 50.1567 69.8684 52.7403 70.319C53.6484 70.4773 54.3299 70.3999 55.0649 70.0473C57.319 68.9655 59.3292 67.4834 61.4088 66.1181C62.3738 65.4847 62.3598 65.4633 61.551 64.6452C60.1187 63.1964 60.2325 61.8814 61.8904 60.7156C61.9363 60.6832 61.9814 60.6491 62.0273 60.6159L61.9985 60.6404ZM107.226 52.3808C110.805 52.9452 114.157 52.6682 117.587 51.5186C118.844 51.0974 120.097 50.7452 121.448 50.9114C122.911 51.0912 124.323 50.8537 125.583 50.0855C127.298 49.04 129.311 48.5247 130.493 46.5715C131.726 44.533 133.366 42.763 134.55 40.6471C138.337 33.8762 140.169 26.7265 139.114 18.9661C138.635 15.4438 137.814 12.0457 135.101 9.4319C134.492 8.84572 134.04 8.08323 133.586 7.35793C133.305 6.90955 132.702 6.81594 132.543 6.2595C132.107 4.73892 132.062 5.0084 130.678 4.99352C130.195 4.98828 129.705 5.03377 129.227 5.11207C126.392 5.57533 123.672 6.4336 120.994 7.4638C117.285 8.89033 114.158 11.2609 110.944 13.5015C110.527 13.7924 110.257 14.1249 110.07 14.6047C109.138 17.0015 108.152 19.3774 107.039 21.6976C106.764 22.272 106.461 22.8634 105.494 22.9509C106.798 20.2606 107.931 17.67 108.899 14.9875C108.116 15.3983 107.416 15.8817 106.688 16.3213C106.056 16.7036 105.642 17.1918 105.355 17.9049C104.608 19.7575 103.9 21.6346 102.894 23.3717C102.657 23.7807 102.326 24.3739 101.814 24.0559C101.445 23.8258 101.936 23.359 102.114 23.037C102.953 21.5147 103.592 19.9075 104.182 18.2514C102.878 19.0821 101.677 20.02 100.474 20.9605C99.9614 21.3616 99.9723 21.7221 100.107 22.2755C100.618 24.3586 102.125 25.4579 103.937 26.2632C106.119 27.2331 108.421 27.8433 110.76 28.2467C112.854 28.608 113.836 29.7502 113.953 32.1496C114.164 36.4721 113.297 40.6278 111.695 44.6275C110.59 47.3917 109.214 50.016 107.226 52.3808ZM118.018 133.572C118.931 133.268 119.541 132.859 120.149 132.461C122.113 131.175 124.139 129.991 126.166 128.809C127.055 128.29 127.913 127.719 128.786 127.172C131.81 125.278 134.186 122.688 136.521 120.041C139.705 116.433 142.948 112.875 145.011 108.448C145.083 108.294 145.184 108.148 145.298 108.023C145.622 107.669 146.024 107.551 146.462 107.766C146.903 107.982 147.063 108.386 146.956 108.847C146.881 109.177 146.723 109.49 146.584 109.802C143.86 115.963 140.286 121.605 136.201 126.944C134.702 128.902 133.183 130.832 131.328 132.474C131.224 132.567 130.998 132.63 131.108 132.895C132.434 131.957 133.633 130.901 134.746 129.745C138.23 126.126 141.509 122.353 143.788 117.817C144.158 117.08 144.621 116.372 145.274 115.837C145.706 115.483 146.204 115.373 146.703 115.703C147.172 116.012 147.246 116.484 147.134 116.997C147.092 117.191 147.025 117.384 146.947 117.567C146.117 119.484 145.29 121.402 144.277 123.233C144.148 123.466 143.897 123.668 144.007 124.104C144.842 123.029 145.696 122.063 146.397 120.997C148.032 118.515 149.84 116.071 150.331 113.063C150.574 111.571 151.122 109.938 150.007 108.482C149.902 108.345 149.907 108.094 149.922 107.9C150.034 106.459 149.057 105.606 148.204 104.686C147.973 104.438 147.725 104.618 147.491 104.699C146.951 104.886 146.421 105.109 145.871 105.263C145.486 105.372 145.122 105.246 144.898 104.89C144.672 104.532 144.735 104.178 144.998 103.859C145.266 103.532 145.661 103.423 146.033 103.278C146.559 103.073 147.068 102.912 147.421 102.366C147.753 101.852 148.443 101.84 148.753 102.311C149.689 103.73 151.303 104.673 151.693 106.469C151.788 106.906 152.013 107.106 152.476 107.042C153.659 106.878 154.827 107.065 155.965 107.338C157.198 107.634 158.233 107.389 159.111 106.497C160.495 105.092 161.879 103.688 163.233 102.255C164.591 100.818 165.905 99.2918 167.616 98.304C170.85 96.4374 172.618 93.5397 173.833 90.1718C173.963 89.8118 174.023 89.5992 173.527 89.5419C172.545 89.4281 171.641 89.0397 170.799 88.5541C169.176 87.6188 167.467 87.0965 165.579 87.0965C164.845 87.0965 164.11 86.887 163.375 86.7794C163.184 86.7514 162.903 86.5864 162.811 86.7566C162.465 87.3966 161.674 87.4469 161.187 87.9959C162.338 88.5642 163.595 88.6517 164.727 89.2519C164.227 89.7707 163.724 89.7217 163.223 89.5751C162.319 89.31 161.421 89.0213 160.522 88.7361C160.248 88.649 159.972 88.5191 159.692 88.6622C158.833 89.1022 157.982 89.5576 157.134 90.0043C157.3 90.3608 157.862 90.3757 157.697 90.7339C157.557 91.038 157.13 90.8652 156.826 90.8669C156.797 90.8669 156.766 90.8669 156.741 90.8555C155.847 90.4373 155.239 90.9968 154.564 91.4518C155.792 92.2156 156.969 92.5454 158.203 91.5537C158.576 91.2536 159.042 91.0673 159.469 90.8337C159.743 90.6836 160.068 90.4509 160.302 90.8087C160.568 91.2156 160.204 91.4325 159.909 91.608C159.281 91.9811 158.641 92.3341 157.935 92.7361C158.407 93.1237 159.021 93.1802 159.308 93.7497C158.608 94.0153 157.992 93.7939 157.378 93.5914C157.081 93.4934 156.792 93.3031 156.474 93.4636C155.315 94.0494 154.163 94.6482 152.854 95.321C154.221 95.8954 155.365 96.6658 156.665 95.6347C156.772 95.5494 156.923 95.5126 157.058 95.468C157.271 95.3976 157.462 95.4409 157.576 95.6447C157.695 95.8582 157.599 96.0406 157.424 96.1658C157.195 96.3285 156.949 96.4663 156.683 96.6321C157.18 96.9825 157.855 96.8272 158.246 97.3534C157.617 97.9182 156.956 97.6041 156.301 97.4698C155.922 97.3924 155.574 97.1216 155.146 97.3364C154.025 97.8989 152.893 98.4414 151.585 99.0805C152.995 99.4458 154.006 100.903 155.502 99.6903C155.697 99.532 156.032 99.5586 156.169 99.8487C156.333 100.193 156.076 100.386 155.811 100.514C154.551 101.127 153.295 101.749 152.016 102.321C151.588 102.513 151.098 102.571 150.597 102.267C150.906 101.796 151.391 101.669 151.804 101.447C152.222 101.221 152.699 101.102 153.068 100.765C150.891 99.4904 149.992 99.4812 148.556 100.725C148.839 100.972 149.282 100.99 149.556 101.384C148.257 102.095 147.087 100.682 145.683 101.452C146.654 100.687 145.939 100.538 145.57 100.275C145.432 100.176 145.262 100.076 145.192 99.934C144.78 99.0971 144.3 99.5823 144.07 99.9729C142.885 101.986 141.269 103.664 139.88 105.516C137.958 108.078 135.734 110.344 133.145 112.212C129.167 115.081 125.431 118.225 121.848 121.571C116.892 126.201 111.673 130.548 106.92 135.398C106.703 135.619 106.497 135.851 106.286 136.078C107.298 135.562 108.19 134.942 109.09 134.334C110.891 133.118 112.758 132.01 114.364 130.51C119.927 125.31 125.68 120.332 131.657 115.607C134.816 113.109 137.942 110.534 140.259 107.156C140.447 106.881 140.728 106.65 141.008 106.462C141.442 106.173 141.923 106.116 142.377 106.433C142.8 106.727 142.928 107.169 142.828 107.648C142.734 108.092 142.585 108.529 142.426 108.957C141.279 112.058 139.407 114.666 136.942 116.842C131.3 121.824 125.635 126.778 119.98 131.744C119.367 132.28 118.697 132.76 118.018 133.572ZM133.984 46.9009C135.583 47.2775 137.071 47.4613 138.602 47.3663C140.509 47.2482 142.413 46.8366 144.331 47.2544C144.671 47.3283 144.89 47.1253 145.048 46.8878C146.276 45.0312 148.139 43.7324 149.292 41.7648C150.576 39.5736 152.025 37.4699 153.34 35.2883C157.111 29.0306 159.316 22.261 159.975 14.988C160.031 14.3628 160.078 13.7233 160.009 13.1034C159.705 10.3449 159.353 7.59155 159.031 4.83517C158.982 4.42003 158.806 4.17066 158.41 4.01011C157.164 3.5053 155.928 2.97598 154.693 2.4436C153.541 1.94666 152.338 1.76687 151.091 1.78962C147.768 1.85042 144.574 2.61859 141.396 3.49699C140.953 3.61948 140.862 3.80059 141.047 4.22361C141.644 5.58583 142.171 6.97998 142.798 8.32733C144.755 12.5299 145.797 16.9167 145.407 21.5646C145.078 25.4732 143.402 28.9991 142.022 32.5945C141.368 34.2979 141.493 36.0346 141.381 37.7853C141.824 37.1379 142.14 36.4427 142.534 35.7958C143.561 34.1111 144.076 32.3123 143.936 30.3285C143.904 29.8779 143.989 29.4168 144.042 28.9628C144.074 28.6915 144.194 28.4313 144.514 28.458C144.827 28.4838 144.92 28.7436 144.909 29.0262C144.893 29.4798 144.865 29.933 144.842 30.3862C145.126 30.0481 145.298 29.6693 145.441 29.2791C146.784 25.5948 147.767 21.8047 148.763 18.0177C148.85 17.6896 148.85 17.1245 149.352 17.2321C149.941 17.3581 149.648 17.8782 149.557 18.2303C149.02 20.3052 148.585 22.4181 147.874 24.433C147.195 26.3608 147.066 28.262 147.391 30.2358C147.429 30.4689 147.357 30.7428 147.628 30.9615C148.4 29.0879 149.033 27.1972 149.588 25.2794C149.779 24.6206 149.955 23.9575 150.15 23.3C150.225 23.0467 150.353 22.7702 150.676 22.8599C150.996 22.9491 150.95 23.2536 150.908 23.5113C150.885 23.6512 150.832 23.7864 150.796 23.9247C150.11 26.6154 149.352 29.2974 148.162 31.8018C147.377 33.4549 147.939 35.011 148.003 36.6405C148.988 34.3426 150.767 32.3946 150.809 29.7344C150.814 29.395 150.844 28.9007 151.239 28.9081C151.827 28.9195 151.861 28.5332 152.003 28.1819C152.807 26.1915 153.476 24.1561 154.053 22.0895C154.107 21.8971 154.161 21.7037 154.23 21.516C154.315 21.2842 154.462 21.0856 154.736 21.1788C154.998 21.268 155.018 21.5138 154.968 21.754C154.921 21.978 154.863 22.1993 154.803 22.4203C154.07 25.129 153.143 27.7712 152.016 30.3399C151.665 31.1417 151.455 31.9523 151.458 32.8268C151.459 33.3548 151.426 33.8845 151.035 34.3898C150.878 34.1203 150.756 33.9121 150.575 33.6011C149.92 34.8951 149.317 36.0827 148.716 37.2717C148.358 37.9804 147.899 38.6484 147.991 39.515C148.019 39.7827 147.886 40.232 147.595 40.1642C147.073 40.043 147.046 40.4192 146.882 40.669C146.568 41.1467 146.295 41.6523 145.964 42.1174C145.703 42.4835 145.373 42.7915 144.762 42.7302C145.116 41.7027 145.708 40.8763 146.281 40.0889C147.392 38.5613 147.026 36.9568 146.783 35.312C146.481 35.7682 146.291 36.2717 146.018 36.7245C144.829 38.6925 144.307 40.8041 144.505 43.103C144.548 43.6095 144.456 44.1296 144.404 44.641C144.383 44.8466 144.272 45.0452 144.035 45.0483C143.792 45.0513 143.699 44.8322 143.658 44.6423C143.605 44.3939 143.594 44.1331 143.591 43.8772C143.582 43.2648 143.588 42.6519 143.588 41.8772C143.248 42.2766 143.049 42.5434 142.814 42.7744C142.65 42.9358 142.424 43.0574 142.202 42.8746C141.987 42.6979 142.164 42.5023 142.24 42.3343C142.333 42.127 142.446 41.9218 142.584 41.742C143.974 39.9375 143.722 37.8448 143.637 35.7673C142.977 36.8697 142.423 38.0185 141.781 39.1169C141.318 39.9104 141.101 40.7162 141.112 41.6357C141.126 42.7211 141.032 43.8085 140.969 44.8943C140.955 45.1454 140.923 45.4919 140.629 45.5129C140.272 45.5387 140.23 45.1646 140.174 44.8978C140.127 44.6769 140.139 44.4424 140.137 44.2136C140.133 43.6296 140.136 43.0456 140.136 42.2923C139.414 43.1248 139.189 44.1869 138.149 44.491C137.991 44.0964 138.142 43.8051 138.292 43.5347C138.694 42.8094 139.06 42.0531 139.55 41.3903C140.668 39.8772 140.208 38.1396 140.366 36.4708C138.23 39.8995 136.715 43.6777 133.984 46.9009ZM156.648 40.1803C156.771 40.0793 156.849 40.0364 156.899 39.9721C160.946 34.7061 164.956 29.4155 167.709 23.3096C168.108 22.4233 168.486 21.5274 168.888 20.6429C168.993 20.4106 169.143 20.1473 169.468 20.3021C169.735 20.429 169.674 20.6814 169.598 20.904C169.534 21.0935 169.447 21.2746 169.374 21.4609C167.351 26.6128 164.476 31.2747 161.187 35.6982C161.001 35.9476 160.792 36.179 160.704 36.4979C160.232 38.2039 159.743 39.9056 159.266 41.6103C159.211 41.8081 159.058 42.0133 159.257 42.2565C160.345 41.0517 161.343 39.8068 162.198 38.4493C162.361 38.1899 162.514 37.7765 162.872 37.9056C163.394 38.0946 163.37 37.7026 163.474 37.4568C163.786 36.7205 164.068 35.9716 164.379 35.2345C164.485 34.9839 164.686 34.7765 164.981 34.8784C165.341 35.0035 165.292 35.3124 165.194 35.5989C165.12 35.8146 165.023 36.0223 164.937 36.2345C164.29 37.8365 163.705 39.4594 163.13 41.3234C166.858 37.5757 169.877 33.5621 172.615 29.3211C172.853 28.9514 172.865 28.0214 173.517 28.3713C174.16 28.7156 173.545 29.3499 173.287 29.7637C170.877 33.6361 168.135 37.259 165.016 40.5902C164.544 41.0933 164.008 41.5233 163.398 41.854C162.712 42.2263 162.428 42.0894 162.408 41.2827C162.394 40.746 162.526 40.2053 162.61 39.5303C161.937 40.3785 161.35 41.1099 160.773 41.8488C159.734 43.1782 158.271 44.2198 158.01 46.0785C157.949 46.5081 157.596 46.7898 157.338 46.1345C157.173 45.7145 156.996 46.0011 156.83 46.0899C156.596 46.2145 156.289 46.3851 156.123 46.1817C155.918 45.9319 156.185 45.6599 156.361 45.4521C156.766 44.9717 157.381 44.5745 157.572 44.0255C158.16 42.3391 158.589 40.5972 159.121 38.7289C158.901 38.8789 158.823 38.9126 158.771 38.9708C156.837 41.1453 155.164 43.4512 154.678 46.4341C154.532 47.3292 154.191 48.1944 153.912 49.065C153.831 49.3178 153.749 49.7172 153.391 49.6275C153.076 49.5488 153.098 49.1573 153.123 48.8839C153.155 48.5168 153.239 48.1498 153.34 47.7937C153.697 46.5286 153.997 45.2394 154.473 44.0198C154.663 43.5338 154.106 43.1856 154.505 42.7193C155.555 41.4953 155.535 39.8627 155.999 38.7315C155.205 39.4467 154.225 40.3146 153.263 41.2013C152.863 41.571 152.113 41.816 152.699 42.6161C152.774 42.718 152.628 42.9931 152.566 43.1817C152.396 43.697 152.21 44.2075 152.043 44.7241C151.997 44.8654 151.85 45.1121 152.095 45.1419C153.551 45.3173 152.591 46.0238 152.289 46.3335C151.211 47.4398 150.643 48.7767 150.231 50.2233C150.106 50.6638 149.963 51.4552 149.503 51.313C148.959 51.145 149.308 50.4386 149.389 49.9469C149.431 49.6949 149.792 49.3379 149.449 49.1953C148.745 48.9018 149.253 48.5505 149.411 48.3777C150.917 46.7329 150.925 44.5067 151.883 42.508C151.656 42.6069 151.594 42.6182 151.554 42.6537C149.535 44.4459 147.853 46.5457 146.112 48.5934C145.88 48.8668 146.031 49.065 146.151 49.2868C146.857 50.5812 147.884 51.5479 149.18 52.2374C149.609 52.4657 150.039 52.5226 150.492 52.2934C153.177 50.9342 156.034 49.9084 158.214 47.6507C159.782 46.0273 161.658 44.7224 163.489 43.3965C165.502 41.9384 167.239 40.2302 168.686 38.2039C170.633 35.4764 172.979 33.1833 175.868 31.4099C178.13 30.0218 179.626 27.9282 180.433 25.3726C181.042 23.4417 181.366 21.4754 181.157 19.4504C181.093 18.8349 181.359 18.212 181.016 17.5987C180.43 16.5505 179.901 15.47 179.345 14.4048C176.866 9.65674 172.723 7.22494 167.694 6.00708C167.027 5.84522 166.856 6.00097 166.898 6.67727C167.066 9.39034 167.062 12.1205 167.003 14.8252C166.897 19.7347 165.562 24.3674 162.663 28.4326C161.562 29.9768 160.591 31.5844 159.795 33.3053C159.181 34.6334 158.49 35.9191 157.39 36.9314C157.289 37.0246 157.133 37.1868 157.158 37.2687C157.476 38.2958 156.672 39.1125 156.648 40.1803ZM164.444 67.9585C166.67 67.8714 168.897 67.7752 171.123 67.7074C171.492 67.696 172.132 67.4996 172.177 67.9139C172.235 68.451 171.586 68.4817 171.141 68.5525C170.944 68.584 170.742 68.584 170.542 68.5932C168.398 68.6908 166.254 68.8014 164.109 68.8723C163.614 68.8885 163.264 69.0215 162.935 69.4108C161.346 71.291 159.725 73.1431 158.124 75.0124C157.988 75.1699 157.74 75.2915 157.83 75.5872C158.804 75.5872 159.775 75.5671 160.745 75.5955C161.252 75.6104 161.607 75.4279 161.921 75.0408C162.842 73.9069 163.71 72.7354 164.549 71.5403C164.785 71.2039 164.945 70.5171 165.522 70.8649C166.041 71.1781 165.499 71.6125 165.39 71.99C165.376 72.0368 165.41 72.0972 165.429 72.1794C167.447 72.2354 169.468 71.7245 171.674 72.0206C171.091 72.6939 170.492 72.7993 169.86 72.8452C168.205 72.9655 166.551 73.0959 164.896 73.2092C164.69 73.2232 164.498 73.2127 164.36 73.3964C163.872 74.0482 163.383 74.6992 162.841 75.4223C164.479 75.6086 166.027 75.1712 167.683 75.557C167.146 76.0959 166.646 76.1034 166.174 76.183C164.379 76.4862 162.429 75.8728 160.783 77.0925C160.668 77.1778 160.36 77.1756 160.461 76.9153C160.73 76.2184 160.19 76.4538 159.934 76.4476C159.104 76.4284 158.273 76.4713 157.444 76.4463C157.025 76.4337 156.759 76.5973 156.502 76.9083C155.597 78.0028 154.668 79.0776 153.76 80.1445C154.732 80.3335 155.655 80.0387 156.606 79.9149C158.762 79.6336 160.923 79.8974 162.961 80.5851C164.627 81.1468 166.187 81.0693 167.838 80.6861C170.547 80.0571 173.011 80.5356 175.058 82.5567C175.281 82.7771 175.568 82.9351 175.778 83.1652C176.214 83.6446 176.428 83.4272 176.718 82.9854C178.02 80.9993 179.327 79.015 180.689 77.0688C182.236 74.8558 183.542 72.5123 184.691 70.074C186.086 67.1129 186.764 63.9615 187.187 60.7418C187.232 60.4046 187.337 60.0183 186.714 60.188C185.141 60.6159 183.532 60.5279 181.933 60.4256C180.038 60.3044 178.228 60.5367 176.51 61.3954C175.425 61.9383 174.248 62.3727 173.048 62.2817C169.962 62.0472 166.885 62.286 163.811 62.248C161.057 62.2139 158.382 62.4146 155.74 63.066C153.678 63.5748 153.494 63.1032 154.54 65.413C155.403 67.3176 155.185 68.9261 153.944 70.5281C153.385 71.2486 152.926 72.0491 152.458 72.8347C152.074 73.4787 151.854 74.1922 151.731 74.9332C151.695 75.1537 151.591 75.41 151.948 75.4599C153.399 75.662 154.859 75.6314 156.319 75.6064C156.397 75.6051 156.5 75.5701 156.549 75.5137C157.247 74.7162 157.938 73.9126 158.731 72.994C157.067 72.8487 155.606 72.5355 154.69 74.1786C154.455 74.599 153.985 74.8969 153.38 74.8728C153.547 74.2687 153.892 73.8496 154.234 73.4288C154.434 73.1825 154.692 72.9489 154.162 72.7643C153.994 72.7061 153.94 72.5071 154.005 72.3225C154.081 72.1073 154.259 72.0386 154.472 72.0062C154.83 71.952 155.252 72.1466 155.537 71.8269C156.306 70.9646 157.05 70.0797 157.882 69.112C157.231 69.0657 156.745 69.0678 156.274 68.986C155.91 68.923 155.508 68.6444 155.922 68.301C156.641 67.7052 157.147 66.9152 157.873 66.3351C158.046 66.1973 158.327 66.0599 158.232 65.7012C158.092 65.6881 157.955 65.6728 157.817 65.6636C157.133 65.6168 156.448 65.5849 155.765 65.5192C155.497 65.4934 155.241 65.3561 155.27 65.035C155.3 64.7192 155.56 64.633 155.84 64.6435C156.212 64.6579 156.585 64.6723 156.954 64.7156C158.38 64.8823 159.777 64.9829 160.558 63.3946C160.57 63.3696 160.593 63.3504 160.613 63.3294C160.78 63.1531 160.975 62.9978 161.208 63.1745C161.48 63.3814 161.347 63.6238 161.207 63.8574C161.028 64.1561 160.673 64.3512 160.632 64.7336C161.438 64.9554 162.002 64.6837 162.447 64.0555C162.694 63.7064 162.995 63.3954 163.276 63.0708C163.471 62.8451 163.688 62.6207 163.993 62.888C164.245 63.1098 164.118 63.3674 163.964 63.5813C163.704 63.9405 163.422 64.283 163.148 64.633C164.377 64.5529 165.726 65.3259 166.619 63.9155C166.803 63.6251 167.31 63.5962 167.302 64.0367C167.293 64.5109 167.107 65.2301 166.771 65.4033C165.69 65.9615 165.201 67.0219 164.444 67.9585ZM185.627 28.8346C184.592 30.7108 183.386 32.2362 182.222 33.7914C181.287 35.0394 180.062 35.8159 178.527 36.091C177.723 36.2354 177.002 36.5709 176.324 37.0088C175.237 37.7118 174.27 38.5552 173.403 39.518C171.299 41.8558 168.911 43.8357 166.109 45.295C164.94 45.9035 163.848 46.6393 162.761 47.3816C159.237 49.785 155.657 52.0943 151.754 53.8529C151.546 53.9469 151.349 54.0449 151.244 54.2798C150.347 56.2799 150.673 58.2676 152.207 59.4063C152.864 59.8932 153.397 60.4781 153.609 61.3C153.649 61.4571 153.681 61.7016 153.906 61.6378C154.974 61.3342 156.21 61.3998 157.094 60.7541C157.909 60.1587 158.764 59.7773 159.681 59.4864C162.367 58.6351 165.149 58.2449 167.935 57.9474C170.382 57.6862 172.65 57.1499 174.433 55.2711C175.13 54.5366 176.112 54.2046 177.109 53.9902C178.915 53.6018 180.744 53.59 182.577 53.6271C183.95 53.6551 185.325 53.7159 186.692 53.541C187.498 53.4377 188.05 53.0077 188.231 52.1752C188.536 50.7776 188.824 49.3773 188.943 47.9482C189.369 42.8225 188.481 37.8583 187.097 32.9563C186.718 31.6146 186.27 30.2948 185.627 28.8346ZM51.6502 72.2319C50.2586 71.9231 50.2591 71.9235 49.7385 73.1585C49.4056 73.9481 49.0775 74.7398 48.731 75.5238C48.6164 75.7832 48.434 76.1458 48.1448 76.0548C47.7712 75.9376 47.8915 75.5185 47.9672 75.228C48.0608 74.8711 48.2258 74.5329 48.3649 74.1887C48.6505 73.4817 48.9402 72.7766 49.2416 72.0381C48.3728 71.8605 47.8784 72.1366 47.539 72.8859C46.7848 74.5508 45.9724 76.19 45.1693 77.8326C45.0512 78.0737 44.9064 78.4446 44.5647 78.302C44.2752 78.1813 44.2791 77.8129 44.3792 77.5356C44.5533 77.0531 44.7598 76.5811 44.9733 76.1148C45.4029 75.1764 45.8469 74.2451 46.388 73.0898C44.8263 74.022 43.5035 74.8098 42.3456 75.8427C42.154 76.0137 41.93 76.169 41.9239 76.459C41.9011 77.6043 41.1167 78.3624 40.4102 79.0566C37.7134 81.7054 34.7676 84.0672 31.705 86.2829C31.464 86.457 31.1564 86.5694 30.9617 87.0287C31.4561 86.8152 31.8393 86.6512 32.2221 86.4841C39.3687 83.3681 46.1238 79.5137 52.8238 75.5557C52.9922 75.4564 53.193 75.4021 53.1812 75.137C53.1489 74.4218 53.571 73.8326 53.7311 73.172C53.7866 72.9437 54.2381 72.5285 53.665 72.459C53.2941 72.4139 52.7293 71.8947 52.4559 72.7026C52.1637 73.5675 51.8037 74.4091 51.4699 75.26C51.3667 75.5224 51.2849 75.8728 50.906 75.7604C50.5683 75.6602 50.5779 75.323 50.6278 75.0347C50.6663 74.8116 50.7415 74.5924 50.822 74.3798C51.0915 73.6637 51.3711 72.9524 51.6502 72.2319ZM40.9077 47.0496C40.6719 47.1227 40.5625 47.1376 40.472 47.1874C36.9934 49.1105 33.4587 50.9268 29.9014 52.6989C29.1625 53.0668 28.9796 53.5913 29.2439 54.3078C29.6144 55.3122 29.2955 56.0371 28.5064 56.7212C27.2736 57.7904 26.0435 58.8556 24.6966 59.7799C23.7067 60.4593 22.7303 61.1592 21.7372 61.835C21.3632 62.0896 21.2446 62.2755 21.6292 62.6741C22.1887 63.2532 22.0592 63.8884 21.4927 64.4055C21.1357 64.7309 20.7224 64.996 20.3243 65.2747C18.169 66.7826 15.9765 68.2376 13.9042 69.8618C13.5053 70.1746 13.3465 70.3854 13.8259 70.8295C14.4073 71.368 14.329 72.0762 13.7673 72.6488C13.6125 72.8067 13.4441 72.9507 13.2818 73.1011C22.8659 64.8836 31.6053 55.7886 40.9077 47.0496ZM111.343 54.6083C110.07 54.5633 108.995 54.0935 107.782 55.2829C103.455 59.5266 98.8769 63.5131 94.428 67.6335C92.3514 69.5569 90.3169 71.5285 88.4035 73.6187C87.6204 74.4739 87.183 75.4656 87.2083 76.6506C87.2836 80.1397 87.3002 83.6306 87.427 87.1175C87.4914 88.8835 87.515 90.6622 87.8369 92.5362C87.8369 91.4671 87.8741 90.5231 87.8304 89.5834C87.6488 85.6932 87.6804 81.813 87.9993 77.9245C88.2149 75.2976 89.3545 73.3076 91.4415 71.7936C98.0125 67.0267 103.844 61.3984 109.867 55.9929C110.369 55.5427 110.851 55.0707 111.343 54.6083ZM111.882 78.9433C110.623 78.0479 109.158 77.9477 107.832 77.424C106.592 76.9341 106.239 76.1353 106.714 74.8991C107.024 74.095 107.45 73.3488 107.908 72.6208C108.882 71.0683 109.957 69.5858 111.042 68.1089C114.497 63.4042 118.049 58.7681 121.33 53.9364C121.54 53.6276 122.031 53.3012 121.811 52.9451C121.621 52.6363 121.068 52.7995 120.677 52.7509C120.371 52.7129 120.107 52.747 120.071 53.1551C120.036 53.5401 119.803 53.8485 119.585 54.1468C117.62 56.8354 116.229 59.9094 113.744 62.2642C112.328 63.6054 111.257 65.3254 110.11 66.9313C108.21 69.5919 106.493 72.3658 105.419 75.4826C104.937 76.882 105.085 77.3803 106.458 77.7718C108.233 78.2775 110.071 78.5632 111.882 78.9433ZM100.616 89.8988C100.592 89.7606 100.571 89.6219 100.545 89.4841C99.8822 85.9447 99.093 82.4311 98.6468 78.8493C98.3909 76.7963 98.7592 75.0154 100.047 73.3824C101.269 71.8321 102.513 70.3036 103.834 68.836C107.814 64.4151 111.781 59.9837 115.749 55.5519C116.277 54.9614 116.776 54.3441 117.453 53.5436C116.051 53.9027 114.981 54.006 114.094 55.1525C109.755 60.7607 104.967 66.0074 100.638 71.6287C99.8874 72.6033 99.1656 73.595 98.4915 74.6257C97.8879 75.5487 97.6135 76.5172 97.6656 77.6218C97.729 78.9665 97.8572 80.3016 98.0401 81.6336C98.439 84.5396 99.2168 87.3306 100.616 89.8988ZM34.7654 79.3261C36.0616 79.2653 36.4185 78.3978 36.9198 77.5544C39.2405 73.6497 40.993 69.4589 43.1063 65.451C43.1531 65.3622 43.2283 65.2524 43.0761 65.0984C42.8188 65.063 42.5118 65.0092 42.2021 64.9799C41.4374 64.9081 40.7156 65.4703 40.5866 66.4453C40.4877 67.1925 41.3071 66.6343 41.5682 66.951C41.601 66.9904 41.6172 67.0433 41.65 67.1081C41.4029 67.4178 41.0503 67.5595 40.6802 67.5669C40.0231 67.5805 39.6867 67.9248 39.3954 68.4812C38.9614 69.3106 38.6006 70.2126 37.8792 70.8456C37.5082 71.1711 37.384 71.5045 37.4487 71.9782C37.7344 71.9787 38.0104 71.5858 38.2808 71.941C38.5271 72.2643 38.2803 72.5333 38.1438 72.8046C38.0415 73.008 37.9146 73.1996 37.8048 73.3995C36.7484 75.3195 35.7007 77.2443 34.7654 79.3261ZM20.8212 90.139C20.9035 90.23 20.9853 90.321 21.0675 90.4115C25.3152 87.838 29.7457 85.5431 33.7037 82.0689C31.6823 82.575 29.8756 82.9421 28.023 82.9941C27.7929 83.0007 27.6909 83.1866 27.5706 83.3467C26.8637 84.2855 26.03 85.1092 25.1931 85.9272C23.7469 87.3419 22.2801 88.7361 20.8212 90.139ZM98.7063 56.5939C96.6232 57.5323 94.5112 58.3875 92.5684 59.601C92.3589 59.7318 92.2285 59.8438 92.3383 60.143C92.5855 60.8153 92.2176 61.2913 91.7486 61.7152C91.0264 62.367 90.2653 62.9816 89.5925 63.6811C86.0364 67.3806 81.9891 70.3544 77.175 72.2197C76.8823 72.333 76.6058 72.4887 76.3259 72.6322C76.0507 72.7731 75.7808 72.9235 75.5087 73.0701C75.7042 73.151 75.8364 73.1134 75.9641 73.0644C79.3705 71.756 82.6138 70.1379 85.5732 67.9843C90.1878 64.626 94.3248 60.7038 98.6035 56.9487C98.6823 56.8787 98.785 56.8127 98.7063 56.5939ZM46.3417 45.0045C47.0005 45.0531 47.434 45.0426 47.8496 45.1244C48.6107 45.274 49.2424 45.2727 49.4664 44.3247C49.532 44.0474 49.7686 43.7867 50.109 43.9437C50.4528 44.1025 50.3378 44.414 50.2455 44.6913C50.179 44.8908 49.9498 45.2219 50.242 45.2705C51.1361 45.4188 52.0473 45.4704 52.9542 45.5251C53.13 45.5356 53.1764 45.2915 53.2328 45.1327C53.5578 44.2197 53.8794 43.3051 54.2048 42.3921C54.3111 42.0942 54.3659 41.875 53.9236 41.7792C53.0308 41.5867 51.9524 42.169 51.2429 41.1615C51.2324 41.1467 51.0408 41.2376 50.9507 41.3028C49.4091 42.4201 47.9301 43.6152 46.3417 45.0045ZM35.5025 75.7504C34.9355 75.9936 34.5121 76.5421 33.9294 76.6012C32.3935 76.7569 31.9294 77.8969 31.4412 79.0592C31.3419 79.2959 31.2474 79.54 31.1101 79.7539C30.9548 79.9958 30.8415 80.4521 30.4749 80.2714C30.2041 80.138 30.2229 79.7145 30.3493 79.4053C30.5873 78.8248 30.8498 78.2547 31.0952 77.6773C31.1582 77.529 31.3016 77.375 31.1643 77.2066C31.0129 77.0207 29.3826 77.1113 29.2706 77.3164C28.6039 78.5365 27.9473 79.7618 27.2194 81.1117C29.1757 81.1498 30.9469 80.806 32.6976 80.3012C33.4482 80.0846 34.1801 79.9062 34.0659 78.8361C34.034 78.5378 34.2925 78.2005 34.4408 77.8925C34.7868 77.1756 35.1477 76.4643 35.5025 75.7504ZM59.2386 41.4848C58.9105 40.8444 58.991 40.323 59.1725 39.8015C59.3786 39.2092 59.5671 38.6103 59.7924 38.0254C59.9403 37.6418 59.8169 37.5158 59.4346 37.4944C57.9687 37.4117 56.4909 37.1606 55.27 38.3645C54.8527 38.7761 54.2709 39.0193 53.7718 39.3514C53.0968 39.8002 52.4288 40.2595 51.5596 40.8488C52.6615 40.9293 53.5027 40.9813 54.3422 41.0561C54.6856 41.0867 54.7766 40.8654 54.8754 40.6191C55.078 40.1169 55.2696 39.609 55.5001 39.1195C55.6488 38.8037 55.7661 38.2927 56.2447 38.4861C56.7447 38.6882 56.4424 39.1055 56.3068 39.4362C56.1445 39.8317 55.9822 40.2276 55.8086 40.6182C55.6611 40.9489 55.6957 41.1419 56.1147 41.1777C57.1065 41.2622 58.0955 41.3706 59.2386 41.4848ZM26.6157 74.8562C26.2369 76.2832 25.4066 76.9608 23.9109 76.4616C23.18 76.218 22.8457 76.7556 22.6603 77.2976C22.4463 77.924 22.403 78.8431 22.8816 79.12C23.6918 79.5886 24.295 80.2557 25.0325 80.7671C25.3913 81.016 26.0361 81.386 26.3882 80.8003C27.1074 79.603 27.6866 78.3226 28.3673 77.1012C28.7098 76.487 28.1372 76.4634 27.8909 76.2263C27.498 75.8479 27.3576 76.2315 27.2023 76.4822C26.7508 77.2106 26.3221 77.9534 25.8668 78.68C25.648 79.0291 25.459 79.4271 24.9604 79.5741C24.8086 79.0181 24.9735 78.5741 25.2198 78.1555C25.6979 77.3427 26.1923 76.5395 26.6787 75.732C26.8327 75.4765 27.1262 75.2272 26.6157 74.8562ZM37.5424 78.2206C38.5288 77.9953 39.3687 77.3002 39.2847 76.6974C39.1924 76.0342 39.4124 75.5014 39.7786 75.0237C41.5341 72.7341 42.8018 70.1138 44.6907 67.9086C45.9768 66.4068 46.039 65.1404 45.168 63.2839C44.9121 63.4589 44.8692 63.7585 44.7388 64.003C43.2869 66.7275 42.136 69.5963 40.7524 72.3518C39.7594 74.33 38.632 76.2399 37.5424 78.2206ZM162.023 86.4067C159.176 85.2675 156.479 83.9499 153.472 83.5326C153.022 83.47 152.557 83.5252 152.101 83.498C151.602 83.4683 151.48 83.8301 151.357 84.1809C151.173 84.7032 151.679 84.523 151.869 84.6324C152.188 84.8161 152.568 84.8926 152.888 85.0759C153.557 85.4605 154.155 85.4145 154.788 84.9661C155.099 84.7457 155.53 84.2421 155.891 84.7312C156.295 85.2785 155.625 85.4674 155.325 85.7597C155.295 85.789 155.301 85.8563 155.28 85.9583C156.043 86.2269 156.749 86.8446 157.62 86.0987C157.903 85.8564 158.319 85.2942 158.69 85.7435C159.13 86.2759 158.385 86.4517 158.126 86.7676C158.097 86.8026 158.095 86.8594 158.089 86.8787C159.497 87.96 160.724 87.3874 162.023 86.4067ZM41.6745 48.8952C43.9186 49.3244 44.0555 49.2574 44.8753 47.47C44.9584 47.2885 45.0446 47.1082 45.1378 46.9315C45.2856 46.652 45.4431 46.2994 45.8298 46.4779C46.2196 46.6581 46.0459 47.0098 45.9278 47.2985C45.6833 47.8974 45.3154 48.4486 45.1903 49.1175C45.8513 49.1835 46.4755 49.2347 47.0967 49.3121C47.4016 49.3502 47.5696 49.2522 47.6724 48.9582C48.0197 47.9678 48.3854 46.9836 48.7603 45.9512C47.7454 45.7854 46.7643 45.8803 45.8382 45.5658C45.7424 45.5334 45.5695 45.6389 45.4681 45.7233C44.2397 46.7425 43.0175 47.7697 41.6745 48.8952ZM152.295 91.639C151.631 91.352 151.161 90.9557 150.498 91.0927C150.303 91.1329 149.787 91.2051 149.997 90.8542C150.202 90.513 149.805 89.5869 150.625 89.8442C151.442 90.1001 151.812 89.5572 152.392 89.2903C151.952 88.9255 151.382 88.9141 151.032 88.4911C150.761 88.1643 149.683 88.2912 149.508 88.67C148.864 90.0694 148.253 91.4837 147.609 92.8831C147.443 93.2453 147.551 93.3831 147.897 93.5026C148.29 93.6386 148.634 93.7165 149.034 93.4802C150.063 92.8713 151.114 92.3018 152.295 91.639ZM4.77374 85.1232C5.19325 85.2798 5.42821 85.0685 5.67886 84.9709C8.08091 84.0379 10.3622 82.8524 12.6339 81.6455C13.3605 81.2596 14.2432 81.0273 13.8574 79.8523C13.7883 79.6419 13.8141 79.5046 13.5613 79.4857C13.1081 79.4525 12.7332 79.4892 12.5376 80.0159C12.35 80.5216 12.0835 81.0011 11.8185 81.4731C11.6662 81.7443 11.4217 82.0947 11.091 81.9057C10.7747 81.7251 10.9593 81.3397 11.07 81.0518C11.2327 80.6297 11.549 80.2635 11.6098 79.6857C9.28739 81.5334 7.05723 83.3069 4.77374 85.1232ZM162.107 69.0718C161.137 69.0718 160.319 69.0709 159.502 69.0722C159.302 69.0727 159.1 69.067 158.951 69.2385C158.196 70.1086 157.441 70.9778 156.687 71.8474C156.716 71.9244 156.746 72.0014 156.776 72.0784C157.592 72.0784 158.407 72.0666 159.223 72.0858C159.46 72.0915 159.591 71.9826 159.725 71.8282C160.487 70.945 161.25 70.0626 162.107 69.0718ZM146.336 29.6701C145.008 32.0485 144.304 34.6024 144.698 37.427C146.093 34.9887 147.313 32.5499 146.336 29.6701ZM155.732 76.5106C154.445 76.4463 153.334 76.4306 152.233 76.3203C151.623 76.2591 151.553 76.4918 151.657 76.9831C151.886 78.0667 152.649 78.984 152.634 80.1441C152.632 80.316 152.752 80.393 152.924 80.3458C153.029 80.3169 153.158 80.2837 153.127 80.134C153.006 79.5273 153.483 79.2176 153.787 78.837C154.386 78.0863 155.017 77.3615 155.732 76.5106ZM31.9014 68.7481C31.2312 68.8386 30.3931 68.7927 29.8725 69.5731C29.7456 69.7634 29.5912 69.9484 29.7518 70.1934C29.9119 70.438 30.1652 70.563 30.4154 70.4432C31.9587 69.7043 33.1508 70.0114 34.0139 71.5368C34.1678 71.8085 34.5222 71.9275 34.8415 71.6912C35.1324 71.4765 35.1683 71.1912 35.044 70.8535C34.5799 69.5915 33.3984 68.7634 31.9014 68.7481ZM148.345 97.6763C148.918 97.9195 149.356 98.1177 149.804 98.2913C150.16 98.4296 150.484 98.6851 150.924 98.4554C151.979 97.9051 153.054 97.3928 154.17 96.8412C153.669 96.4816 153.141 96.3652 152.646 96.1819C152.315 96.0595 152.001 95.765 151.606 95.9693C150.553 96.5148 149.505 97.0682 148.345 97.6763ZM149.64 94.0712C150.398 94.4177 151.114 94.9965 151.722 94.7852C153.008 94.3385 154.191 93.5979 155.566 92.9024C155.008 92.6815 154.67 92.5262 154.318 92.4137C153.902 92.2803 153.528 91.922 153.029 92.2029C151.938 92.8175 150.836 93.4133 149.64 94.0712ZM164.865 65.7082C162.259 65.5031 160.967 66.1693 160.156 68.0796C162.287 68.504 163.888 67.7682 164.865 65.7082ZM35.677 63.5232C38.0139 64.0205 38.0139 64.0205 39.1176 62.0126C39.1727 61.9129 39.2239 61.8105 39.2838 61.7138C39.5402 61.3035 39.3779 61.2029 38.9487 61.16C36.9802 60.9636 36.2694 61.465 35.677 63.5232ZM150.777 95.374C149.829 95.206 149.184 94.5026 148.478 94.7943C146.916 95.4387 145.543 96.3674 145.187 98.2966C145.62 98.0442 146.189 98.0866 146.059 97.2913C145.992 96.8779 146.458 96.7804 146.808 97.0092C147.078 97.1859 147.3 97.224 147.588 97.0669C148.56 96.538 149.542 96.0271 150.777 95.374ZM158.951 28.2777C160.547 26.5139 163.053 25.5336 163.596 22.863C161.939 24.5747 159.634 25.7278 158.951 28.2777ZM165.167 14.0396C163.929 15.5094 162.732 16.9136 161.558 18.338C161.252 18.7098 161.218 19.173 161.293 19.7938C162.512 18.4285 163.582 17.1345 164.761 15.9508C165.338 15.3725 165.425 14.8265 165.167 14.0396ZM161.987 13.8641C163.896 12.1804 165.337 9.61825 165.03 8.39776C164.135 9.58369 163.3 10.7679 162.379 11.8812C161.865 12.5024 161.824 13.1235 161.987 13.8641ZM151.52 87.8879C153.363 88.9141 153.745 88.8516 155.776 87.1914C154.197 86.2855 153.373 86.4202 151.52 87.8879ZM34.1236 66.4755C34.8748 66.5188 35.5196 66.5525 36.1635 66.5958C36.3844 66.6107 36.569 66.5516 36.6675 66.3535C36.9409 65.801 37.5533 65.2883 37.4225 64.7165C37.3547 64.4204 36.4942 64.6255 35.9981 64.5429C35.8302 64.5149 35.6578 64.5135 35.4881 64.4961C35.2295 64.4694 35.0585 64.5722 34.9452 64.8106C34.6915 65.3425 34.4242 65.8679 34.1236 66.4755ZM14.546 80.6074C14.9357 80.393 15.3006 80.2285 15.6265 80.0067C16.3098 79.5413 17.4673 79.4319 17.0674 78.1113C17.0163 77.9415 17.2284 77.697 17.3059 77.4826C17.4581 77.0609 17.7744 76.7036 17.8168 76.2337C16.7827 76.106 15.9651 77.0177 15.6208 78.6585C15.9782 78.7819 16.4182 78.6213 16.7284 78.9766C15.9926 79.5006 14.6243 79.0793 14.546 80.6074ZM40.2383 63.9387C40.5052 63.8862 40.9116 64.1212 41.1452 63.6531C41.4112 63.119 41.7069 62.5997 41.9978 62.0787C42.1395 61.825 42.1036 61.6806 41.8105 61.5651C40.8884 61.2025 40.4641 61.3442 39.9737 62.2209C39.8486 62.444 39.7239 62.6675 39.5997 62.891C39.0494 63.8819 39.0494 63.8819 40.2383 63.9387ZM177.503 56.0082C176.751 56.0349 176.276 56.2448 175.925 56.7571C175.313 57.6482 174.671 58.5187 174.059 59.4098C173.833 59.7392 173.527 60.038 173.446 60.4868C173.903 60.5515 174.286 60.5174 174.523 60.1915C175.503 58.8424 176.461 57.4758 177.503 56.0082ZM154.482 89.0572C156.279 90.394 157.288 88.6591 158.698 88.268C156.867 86.8297 155.824 88.4224 154.482 89.0572ZM41.8963 64.0345C43.6938 64.2848 43.6557 64.2642 44.3101 63.0428C44.6815 62.3499 44.5906 62.1049 43.7948 61.961C43.2454 61.8617 42.954 61.9313 42.7288 62.444C42.5026 62.9601 42.2082 63.4457 41.8963 64.0345ZM145.571 99.2034C147.435 100.44 146.879 100.494 149.261 99.1907C147.77 98.1142 147.259 98.1098 145.571 99.2034ZM184.493 55.6757C183.885 55.6359 183.374 55.38 183.051 55.7965C182.359 56.6897 181.748 57.646 181.005 58.7195C181.502 58.6946 181.878 58.8984 182.166 58.5546C182.927 57.6425 183.661 56.7077 184.493 55.6757ZM38.5406 66.7179C39.2978 66.7511 40.2983 65.8294 40.3337 65.0822C40.346 64.8263 40.181 64.8324 40.0135 64.7953C38.8967 64.5481 38.5782 64.6968 37.9864 65.7546C37.4737 66.6706 37.4737 66.6706 38.5406 66.7179ZM176.174 59.5091C178.083 58.8897 178.664 57.0813 179.899 55.7129C179.347 55.6337 178.942 55.5209 178.659 55.9242C177.825 57.1149 177.001 58.3135 176.174 59.5091ZM23.6183 75.5518C25.2351 75.7692 25.2487 75.7762 25.872 74.5531C26.0151 74.2726 26.502 73.8457 25.9796 73.6401C25.5619 73.4756 24.904 73.2228 24.526 73.8448C24.2062 74.3715 23.9437 74.9336 23.6183 75.5518ZM164.964 5.87497C163.866 7.38811 162.838 8.81683 161.793 10.2324C161.544 10.5697 161.613 10.8483 161.856 11.1996C162.924 9.82471 163.973 8.48263 164.866 7.02504C165.068 6.69608 165.159 6.35354 164.964 5.87497ZM186.834 55.5725C186.072 55.4062 185.639 55.6381 185.273 56.184C184.814 56.8682 184.254 57.4841 183.757 58.1443C183.62 58.3258 183.252 58.5327 183.472 58.7436C183.668 58.9308 184.067 58.9221 184.319 58.6473C185.2 57.6867 186.059 56.7068 186.834 55.5725ZM160.899 65.724C158.844 65.5245 158.491 67.3998 157.293 68.1063C157.873 68.0967 158.46 68.4611 158.934 67.9217C159.536 67.2376 160.148 66.5626 160.899 65.724ZM161.859 16.593C162.026 16.3712 162.141 16.2159 162.259 16.0632C163.097 14.9823 164.089 14.0229 164.707 12.7679C164.906 12.3641 165.393 12.0881 164.994 11.5273C164.011 12.7976 163.032 14.0557 162.063 15.3209C161.814 15.645 161.669 16.0081 161.859 16.593ZM143.536 18.7689C142.626 20.2247 141.302 21.4915 141.429 23.3866C142.197 21.8717 143.728 20.7011 143.536 18.7689ZM37.489 70.1348C37.7838 69.6479 38.0542 69.2756 38.244 68.8666C38.4264 68.4738 38.9851 68.0525 38.6907 67.6903C38.4208 67.3579 37.7759 67.5652 37.2974 67.5241C37.2414 67.5193 37.1657 67.5101 37.1298 67.5398C36.7794 67.8294 36.3765 68.1479 36.7129 68.6462C37.0025 69.0744 37.1727 69.5552 37.489 70.1348ZM34.1062 64.4755C32.3214 64.3429 32.2645 64.3893 31.8104 66.2879C33.3467 66.5661 33.4513 66.4851 34.1062 64.4755ZM161.529 9.18648C162.404 7.94455 163.184 6.83082 163.971 5.72144C164.261 5.3133 164.005 5.25903 163.672 5.21091C163.347 5.16367 163.221 5.37672 163.077 5.59545C162.624 6.28574 162.194 6.99442 161.696 7.65147C161.368 8.08542 161.3 8.50711 161.529 9.18648ZM17.8186 78.4827C17.8645 78.5299 17.9108 78.5772 17.9568 78.6244C18.5644 78.2591 19.1681 77.8869 19.7814 77.5312C20.2398 77.2657 20.0644 76.7596 20.211 76.379C20.2832 76.1909 19.9187 76.1961 19.7333 76.1769C19.3006 76.1318 18.8938 76.0938 18.6803 76.6375C18.4323 77.2683 18.109 77.8689 17.8186 78.4827ZM181.894 55.6241C181.556 55.5016 181.211 55.4491 180.976 55.772C180.277 56.73 179.605 57.7068 178.905 58.6994C179.791 58.8166 181.171 57.3674 181.894 55.6241ZM19.4857 75.2193C20.8558 75.5767 21.0553 75.4131 21.6397 73.4529C20.2893 73.2013 20.1493 73.3164 19.4857 75.2193ZM139.127 4.72012C139.099 4.47121 139.111 4.27171 138.871 4.26646C138.616 4.26077 138.57 4.47381 138.499 4.66279C138.14 5.61906 137.778 6.57358 137.411 7.52678C137.289 7.84437 137.139 8.15146 137.022 8.47124C136.948 8.67378 136.97 8.89601 137.2 8.97213C137.429 9.04825 137.464 8.80283 137.523 8.6681C137.954 7.67989 138.376 6.68776 138.788 5.69125C138.928 5.35266 139.031 4.99834 139.127 4.72012ZM139.912 6.1707C139.828 6.1532 139.744 6.1357 139.66 6.1182C139.16 7.23414 138.672 8.35533 138.156 9.46295C137.943 9.91878 138.059 10.2211 138.554 10.5072C138.933 9.01633 140.056 7.78008 139.912 6.1707ZM143.293 22.4102C142.62 23.8765 141.115 24.9352 141.241 26.7593C142.05 25.3626 143.374 24.2186 143.293 22.4102ZM25.7657 69.5329C24.8663 70.1991 23.8794 70.7503 23.5137 71.8478C23.4428 72.06 23.1003 72.3413 23.4267 72.4865C23.7162 72.6151 24.1682 72.7175 24.3983 72.2599C24.855 71.3518 25.3103 70.4423 25.7657 69.5329ZM168.289 85.5304C168.731 85.7098 169.043 85.8826 169.376 85.4893C169.985 84.7706 170.634 84.0864 171.254 83.3764C171.37 83.2434 171.61 83.068 171.42 82.8812C171.237 82.7023 170.999 82.7911 170.816 82.9779C169.997 83.8091 169.174 84.6372 168.289 85.5304ZM152.822 85.9928C152.125 85.6919 151.495 85.173 150.97 85.264C150.477 85.3493 150.59 86.2479 150.415 86.7807C150.356 86.9587 150.151 87.0969 150.284 87.3935C151.101 86.9425 151.909 86.4968 152.822 85.9928ZM165.064 17.0645C164.77 17.3725 164.613 17.5295 164.463 17.694C163.525 18.7264 162.603 19.7741 161.646 20.789C160.874 21.6075 160.856 21.59 160.861 22.2168C162.281 20.9272 164.932 17.7881 165.064 17.0645ZM166.862 83.2745C165.354 83.0081 164.907 84.2728 163.904 85.1293C165.714 85.4771 165.933 83.8681 166.862 83.2745ZM183.589 24.0791C183.129 26.37 182.374 28.5752 181.848 30.8373C182.455 30.4046 183.694 25.5839 183.589 24.0791ZM141.025 18.2133C141.707 16.8279 142.909 15.6498 142.759 13.9315C142.352 15.4272 140.85 16.4854 141.025 18.2133ZM170.545 86.4539C170.611 86.4325 170.713 86.4307 170.765 86.3787C171.522 85.6083 172.256 84.8161 172.894 83.9412C173.021 83.7666 172.946 83.6183 172.782 83.512C172.608 83.3983 172.476 83.4561 172.344 83.6087C171.676 84.3834 171.002 85.1529 170.325 85.9202C170.047 86.2365 170.24 86.3555 170.545 86.4539ZM141.301 9.74862C140.968 11.2451 139.799 12.2889 139.953 13.8003C140.644 13.0089 140.987 12.0496 141.45 11.1511C141.696 10.6721 141.762 10.3418 141.301 9.74862ZM169.436 82.6852C168.005 83.0724 167.384 84.4027 166.258 85.3043C167.023 85.4071 168.48 84.1971 169.436 82.6852ZM21.7714 75.3846C22.7281 75.5154 22.7368 75.5198 23.4096 74.1497C23.5072 73.9507 23.9188 73.6707 23.4813 73.4712C23.1589 73.3242 22.7569 73.3072 22.5522 73.7801C22.3269 74.2993 22.0583 74.7993 21.7714 75.3846ZM41.045 60.4689C41.531 60.5564 41.9435 60.653 42.3617 60.7007C42.9637 60.7694 42.9331 60.1832 43.1632 59.8717C43.262 59.7379 43.2152 59.6347 43.0503 59.5485C42.3022 59.1574 41.4142 59.5319 41.045 60.4689ZM164.572 19.9053C164.499 19.8467 164.425 19.7881 164.352 19.7295C163.175 21.0812 161.998 22.4329 160.821 23.7842C162.201 22.6044 163.826 21.6442 164.572 19.9053ZM136.297 7.87893C136.722 6.80367 137.231 5.86448 137.457 4.76823C136.416 5.07182 135.625 7.05565 136.297 7.87893ZM173.351 58.7099C172.371 59.0117 171.361 59.2733 171.081 60.4785C172.71 60.9824 172.639 59.3354 173.351 58.7099ZM152.199 90.4859C153.319 91.1911 153.554 91.1683 154.703 90.2427C153.592 89.5357 153.433 89.5511 152.199 90.4859ZM141.176 20.3052C142.653 18.6975 143.459 17.0335 143.153 16.2868C142.512 17.6888 141.621 18.8896 141.176 20.3052ZM140.542 15.9298C141.38 14.7377 141.938 13.4486 142.205 12.0435C141.731 13.379 140.335 14.3314 140.542 15.9298ZM155.661 35.3898C156.656 34.5048 157.74 33.6942 158.234 32.3845C157.299 33.3211 156.015 33.962 155.661 35.3898ZM140.52 8.08762C140.055 9.20661 139.608 10.2827 139.162 11.3589C139.092 11.529 139.065 11.7333 139.228 11.8261C139.468 11.9621 139.497 11.6861 139.555 11.5632C139.98 10.6603 140.391 9.7508 140.798 8.83959C140.925 8.55612 140.739 8.35621 140.52 8.08762ZM187.306 56.6119C186.734 57.3324 186.258 57.9308 185.722 58.6053C187.56 58.5839 187.622 58.5069 187.306 56.6119ZM160.599 28.2257C159.68 29.2747 158.219 29.8105 157.741 31.2764C158.815 30.3749 159.973 29.5525 160.599 28.2257ZM171.676 86.9627C171.699 86.9797 171.72 86.9964 171.743 87.0134C172.519 86.3253 173.297 85.6394 174.069 84.9464C174.19 84.838 174.193 84.6949 174.071 84.5733C173.945 84.4482 173.8 84.4674 173.698 84.5864C173.02 85.3751 172.349 86.17 171.676 86.9627ZM162.059 84.4499C163.096 85.1739 163.32 84.1223 163.822 83.7785C163.977 83.6721 164.368 83.4902 164.084 83.2115C163.889 83.0203 163.556 83.0247 163.308 83.2623C162.904 83.6503 162.495 84.0352 162.059 84.4499ZM141.659 28.2847C140.297 29.1115 140.689 30.4886 140.36 31.612C140.988 30.5936 141.34 29.4785 141.659 28.2847ZM13.1803 78.666C14.553 78.7469 14.7791 78.5465 15.2476 76.8685C14.4983 77.4647 13.703 77.8125 13.1803 78.666ZM160.432 82.3786C159.634 81.9206 159.141 82.2146 158.693 82.7299C158.485 82.9679 158.513 83.0711 158.807 83.2168C159.722 83.67 159.871 82.7732 160.432 82.3786ZM162.377 82.7303C161.517 82.1122 161.236 82.9315 160.812 83.3502C160.681 83.4792 160.355 83.6253 160.596 83.8764C160.817 84.1079 161.104 84.1083 161.342 83.8371C161.676 83.4556 162.128 83.1818 162.377 82.7303ZM27.1918 68.6238C27.8817 68.1413 28.502 67.7074 29.145 67.2577C28.0313 66.8622 27.2356 67.406 27.1918 68.6238ZM175.29 85.6429C175.207 85.565 175.125 85.4867 175.042 85.4088C174.406 86.0602 173.769 86.7111 173.136 87.3647C173.053 87.4504 172.992 87.5694 173.141 87.6372C173.234 87.6792 173.397 87.7076 173.457 87.6569C174.159 87.0615 174.736 86.3607 175.29 85.6429ZM29.369 66.1811C30.6039 66.399 31.0558 66.0332 31.1446 64.86C30.5357 65.2371 29.9455 65.6015 29.369 66.1811ZM172.412 37.693C173.342 37.0806 173.762 36.2949 173.923 35.3093C172.872 35.997 172.747 36.189 172.412 37.693ZM162.336 5.0355C161.767 5.07049 161.265 4.79491 161.096 5.12737C160.902 5.5097 161.008 6.03901 161.317 6.54821C161.648 6.05739 161.928 5.64137 162.336 5.0355ZM174.96 35.5149C175.998 35.21 175.97 34.3823 176.242 33.5927C175.214 33.9173 175.237 34.7419 174.96 35.5149ZM178.148 32.1894C177.363 32.717 177.391 33.4116 177.135 33.9585C177.066 34.1054 176.957 34.3194 177.165 34.3968C177.369 34.4725 177.539 34.3255 177.603 34.1002C177.764 33.5333 177.927 32.9668 178.148 32.1894ZM33.3988 63.493C34.3087 63.6693 34.9474 63.6277 35.0073 62.5424C34.4294 62.7795 33.9382 63.0437 33.3988 63.493ZM44.1982 59.8407C44.0328 60.2361 43.5328 60.5144 43.7253 60.9431C43.8053 61.1216 44.4296 61.3079 44.5385 61.101C44.7506 60.6985 44.4151 60.265 44.1982 59.8407ZM169.331 40.5998C170.051 40.2971 170.517 39.7914 170.533 38.9782C170.132 39.5189 169.732 40.0592 169.331 40.5998ZM26.0304 71.0867C25.6752 71.4248 25.5575 71.8413 25.3628 72.2101C25.2797 72.3675 25.1017 72.5841 25.453 72.655C25.6861 72.7018 25.9061 72.7026 25.9236 72.3601C25.9446 71.9515 25.991 71.5443 26.0304 71.0867ZM156.36 82.2198C157.348 82.8073 157.394 82.8016 157.78 82.1008C157.327 81.9823 156.896 82.0602 156.36 82.2198ZM179.993 33.3014C180.971 32.9611 180.471 32.2852 180.413 31.6146C180.241 32.2292 179.948 32.7122 179.993 33.3014ZM170.334 59.6281C169.865 59.5209 169.508 59.5778 169.313 60.0301C169.234 60.2125 169.335 60.2834 169.499 60.3127C170.038 60.4094 170.152 60.0104 170.334 59.6281Z" fill="white" fill-opacity="0.2"/>
<path d="M98.4521 39.7314C99.4 39.3718 100.257 39.4856 101.101 39.5691C101.625 39.6212 101.918 39.5144 102.125 38.9659C102.83 37.0962 102.854 37.1189 100.811 36.9147C100.102 36.8438 99.3799 36.8324 98.694 36.6023C98.5116 36.5411 98.3138 36.4982 98.1716 36.2659C98.7075 35.9112 99.3038 35.9321 99.8873 35.9641C100.629 36.0043 101.394 35.9951 102.103 36.1815C102.98 36.4116 103.363 36.0874 103.568 35.2991C103.647 34.9986 103.794 34.7117 103.939 34.4334C104.102 34.1202 104.229 33.6281 104.708 33.8591C105.117 34.0555 104.891 34.4536 104.762 34.7681C104.547 35.2935 104.325 35.8158 104.109 36.332C104.209 36.3915 104.253 36.437 104.302 36.4435C105.177 36.5643 106.173 36.9895 106.898 36.7117C107.657 36.4203 107.641 35.2055 108.059 34.4391C108.223 34.1386 108.348 33.8166 108.516 33.5192C108.65 33.2812 108.856 33.0992 109.149 33.2532C109.439 33.4059 109.406 33.6802 109.301 33.9291C108.991 34.6666 108.69 35.4098 108.338 36.1272C108.023 36.769 107.971 37.1911 108.887 37.1863C109.195 37.185 109.509 37.2839 109.81 37.3705C110.108 37.4562 110.484 37.5468 110.368 37.9746C110.272 38.3303 109.957 38.2948 109.656 38.2257C109.266 38.136 108.866 38.0896 108.479 37.9877C107.894 37.8333 107.489 37.9344 107.352 38.6045C107.296 38.881 107.184 39.154 107.055 39.4068C106.766 39.9742 106.787 40.3132 107.559 40.2511C107.836 40.2288 108.098 40.3622 108.088 40.6807C108.078 41.0026 107.794 41.1361 107.531 41.0683C106.464 40.7931 106.237 41.4935 105.994 42.2778C105.556 43.6969 105.071 45.1016 104.596 46.5093C104.426 47.0106 104.29 47.5342 103.831 48.0032C103.502 47.0959 103.707 46.2993 103.963 45.5324C104.123 45.0512 103.99 44.9121 103.539 44.906C103.368 44.9038 103.197 44.8527 103.027 44.8553C102.348 44.8667 101.444 44.3264 101.058 44.798C100.511 45.4651 100.359 46.4599 100.054 47.3203C99.8939 47.774 100.302 47.6939 100.504 47.7171C101.327 47.8116 102.156 47.868 102.981 47.9424C103.262 47.9677 103.631 47.9467 103.607 48.3483C103.583 48.7368 103.217 48.7127 102.938 48.6948C102.054 48.6375 101.167 48.5845 100.288 48.4761C99.7994 48.4157 99.5439 48.5579 99.4267 49.0386C99.3392 49.3973 99.1992 49.746 99.0509 50.0854C98.9669 50.2775 98.9083 50.6021 98.6205 50.5172C98.3829 50.4472 98.3908 50.1489 98.386 49.9179C98.3838 49.8037 98.411 49.6865 98.3939 49.5754C98.3305 49.1607 98.8921 48.6983 98.4862 48.4004C98.19 48.183 97.6607 48.2879 97.236 48.2416C95.0789 48.0071 95.0776 48.0058 94.2731 50.0067C94.1029 50.4297 93.9441 50.8571 93.7823 51.2766C93.8492 51.3265 93.8873 51.3755 93.9345 51.3873C94.2709 51.4709 94.8492 51.2998 94.844 51.7871C94.8383 52.3536 94.2508 52.2167 93.8917 52.1664C93.3881 52.096 93.193 52.4621 92.8426 52.8838C92.777 52.2075 92.4616 52.0063 91.9428 52.0758C91.7188 52.106 91.4861 52.0671 91.2573 52.0623C89.1046 52.0163 89.1042 52.0164 88.3587 54.0929C88.2629 54.3602 88.1676 54.6275 88.0727 54.8926C88.3907 55.1634 89.1448 54.9215 89.0377 55.5282C88.9244 56.1686 88.2866 55.8576 87.8789 55.8366C86.8229 55.7819 85.7664 55.694 84.717 55.5658C84.2362 55.5072 83.9799 55.617 83.8299 56.0973C83.507 57.1301 83.1378 58.1481 82.7616 59.2483C83.0547 59.2483 83.2502 59.2457 83.4453 59.2492C83.7402 59.2544 84.0748 59.2662 84.07 59.6573C84.0656 60.016 83.7445 60.0781 83.4501 60.1193C82.993 60.1836 82.4501 59.9872 82.1522 60.5497C82.129 60.5935 81.9855 60.6285 81.9462 60.6C80.7257 59.7295 79.3709 60.502 78.0979 60.2842C77.7291 60.2212 77.6329 60.5248 77.5397 60.8091C77.1661 61.9491 76.7991 63.0922 76.3962 64.2221C76.2619 64.5983 76.1666 65.2615 75.7151 65.1377C75.3297 65.0318 75.471 64.366 75.5791 63.9745C75.8678 62.9294 76.2108 61.8984 76.5603 60.8717C76.7064 60.443 76.6561 60.2702 76.1495 60.2509C75.5139 60.2264 74.8652 60.1792 74.188 59.8568C74.9492 59.3703 75.7322 59.4171 76.4828 59.3861C76.9216 59.3677 77.1828 59.2395 77.2877 58.806C77.5931 57.5488 78.1705 56.3834 78.5087 55.1222C78.7445 54.2425 79.2462 53.3099 79.6736 52.4219C79.8936 51.9647 79.905 51.6703 79.2493 51.7272C78.8836 51.7591 78.5061 51.7202 78.1688 51.4503C78.4684 51.0605 78.9094 51.0098 79.3189 51.047C80.0647 51.1143 80.3722 50.7517 80.5826 50.0929C80.8512 49.2512 81.2069 48.4349 81.5599 47.6226C81.7821 47.1116 81.9965 46.6563 80.842 46.6497C82.4562 46.0495 83.808 46.2661 85.1479 46.3382C85.8019 46.3737 86.5306 46.6803 86.8299 45.7245C86.8793 45.5666 87.0819 45.4878 87.2678 45.5285C87.5031 45.5801 87.574 45.7569 87.57 45.98C87.567 46.1462 87.5517 46.455 87.5779 46.4585C88.3658 46.5753 89.1558 46.6895 89.9498 46.7429C90.4253 46.7748 90.3807 46.2871 90.5263 46.0071C90.6974 45.6781 90.8207 45.3251 90.99 44.9953C91.1029 44.7748 91.3024 44.6352 91.557 44.7468C91.8011 44.854 91.854 45.0758 91.7897 45.3255C91.7757 45.3807 91.7477 45.4327 91.7359 45.4883C91.6349 45.9507 91.0802 46.459 91.3925 46.8067C91.634 47.0753 92.3085 46.9498 92.7893 47.0097C94.4778 47.2206 94.4896 47.2271 95.1222 45.6563C95.3317 45.1366 95.6476 44.6484 95.7093 44.0644C92.5137 43.5259 89.2674 43.504 85.9335 42.5897C87.3294 42.1365 88.4913 42.4156 89.6414 42.5276C91.6042 42.7188 93.564 42.9515 95.5172 43.2245C96.0321 43.2966 96.2434 43.1374 96.4013 42.7004C96.5168 42.3797 96.6835 42.0753 96.851 41.7769C96.9669 41.5709 97.1437 41.3915 97.4079 41.5075C97.6594 41.6173 97.6498 41.8369 97.62 42.0897C97.5671 42.5398 96.8729 42.9506 97.3405 43.3601C97.6253 43.6094 98.2154 43.5057 98.6669 43.5705C100.324 43.808 100.33 43.8115 100.887 42.2739C101.09 41.7153 101.527 41.0464 101.368 40.605C101.197 40.1317 100.339 40.4353 99.8003 40.2612C99.3733 40.1238 98.907 40.1046 98.4521 39.7314ZM79.9418 59.3423C81.797 59.3087 81.7975 59.3086 82.399 57.5431C82.4449 57.4084 82.4882 57.2723 82.535 57.138C83.1115 55.481 83.1115 55.481 81.3289 55.4119C79.5389 55.3423 79.5389 55.3423 78.9256 56.9924C78.8459 57.2063 78.7624 57.4184 78.6841 57.6324C78.0463 59.3769 78.0467 59.3769 79.9418 59.3423ZM83.045 51.0312C83.245 51.0312 83.4506 51.0006 83.6435 51.0365C84.4541 51.1887 84.8911 50.8829 85.0998 50.0662C85.2892 49.3247 85.5923 48.6064 85.9034 47.9039C86.1273 47.3977 86.0473 47.2188 85.4751 47.1396C82.8583 46.7761 82.8604 46.7617 81.8923 49.2215C81.2012 50.9783 81.2012 50.9783 83.045 51.0312ZM91.1317 51.2871C92.7844 51.4061 92.7845 51.4061 93.3694 49.9524C93.4757 49.6882 93.581 49.4236 93.6878 49.1594C94.1742 47.9546 94.1742 47.9546 92.9152 47.8146C90.8767 47.588 90.8715 47.5858 90.1173 49.5238C89.9126 50.05 89.3881 50.6843 89.6173 51.0855C89.8619 51.5142 90.665 51.1655 91.1317 51.2871ZM98.5282 47.546C98.8252 47.6178 99.0334 47.5373 99.1472 47.1825C99.3904 46.4244 99.6708 45.6781 99.9385 44.9279C100.036 44.6549 99.9827 44.5158 99.6577 44.483C98.8082 44.3964 97.9613 44.2857 97.1152 44.172C96.806 44.1304 96.6441 44.2634 96.5334 44.536C96.2333 45.2739 95.9345 46.0132 95.6064 46.7389C95.4266 47.1361 95.4888 47.2809 95.9503 47.3068C96.8024 47.354 97.6511 47.4607 98.5282 47.546ZM103.946 44.1982C104.383 44.3986 104.409 44.0801 104.49 43.8491C104.771 43.0434 105.024 42.2266 105.338 41.4335C105.509 41 105.374 40.9292 104.966 40.8587C102.511 40.4331 102.513 40.4217 101.659 42.7726C101.592 42.9598 101.545 43.1575 101.455 43.333C101.257 43.7179 101.355 43.8968 101.791 43.9406C102.527 44.0136 103.26 44.1151 103.946 44.1982ZM85.6794 51.0308C86.5258 51.0806 87.2643 51.113 88.0005 51.173C88.3417 51.2005 88.5246 51.0741 88.644 50.7565C88.9861 49.8479 89.3531 48.9485 89.7061 48.0439C89.7739 47.8702 89.9367 47.6069 89.6283 47.5618C88.8387 47.4459 88.0403 47.385 87.2437 47.3221C87.0832 47.3094 87.0241 47.4879 86.9747 47.6182C86.5486 48.732 86.1269 49.8483 85.6794 51.0308ZM81.5892 54.5509C83.4099 54.6275 83.4099 54.6275 84.0275 52.9258C84.0953 52.739 84.1531 52.547 84.2367 52.3672C84.4576 51.893 84.2472 51.7587 83.7988 51.7617C83.2301 51.7657 82.6535 51.8007 82.094 51.7237C81.1815 51.5981 80.755 51.9415 80.4676 52.8326C79.93 54.4997 79.8643 54.4783 81.5892 54.5509ZM86.654 51.879C86.2419 52.0658 85.5481 51.4586 85.2319 52.2596C84.9812 52.8947 84.7572 53.5409 84.5302 54.1848C84.4567 54.3939 84.3377 54.6594 84.7144 54.6931C85.5075 54.764 86.3386 54.9722 87.084 54.8073C87.5088 54.7132 87.3885 53.8484 87.637 53.3746C87.6501 53.3497 87.6597 53.3226 87.6698 53.2959C88.1794 51.9114 88.1794 51.9114 86.654 51.879ZM105.258 40.0197C105.671 40.1168 105.899 39.9965 106.001 39.6102C106.081 39.3084 106.219 39.0223 106.33 38.7283C106.716 37.7047 106.716 37.7047 105.63 37.5188C103.683 37.1855 103.713 37.1968 103.01 39.0534C102.776 39.6702 102.993 39.7892 103.516 39.8334C104.112 39.8837 104.707 39.9598 105.258 40.0197Z" fill="white" fill-opacity="0.2"/>
<path d="M59.5736 55.3657C60.0399 55.4991 59.9502 55.8404 59.8164 56.1706C59.4091 57.1755 58.9804 58.1715 58.574 59.1764C57.6436 61.4774 56.7249 63.7832 55.7936 66.0837C55.6488 66.4411 55.4992 67.0583 55.1238 66.9332C54.6741 66.7836 54.8723 66.1642 55.0166 65.8003C56.3321 62.4857 57.6794 59.1838 59.0215 55.8797C59.1191 55.6409 59.2437 55.4103 59.5736 55.3657Z" fill="white" fill-opacity="0.2"/>
<path d="M72.7104 59.6196C72.7918 59.3501 72.8609 59.0124 72.9926 58.7005C74.0679 56.1501 75.1545 53.6046 76.2389 51.0582C76.3059 50.9007 76.3759 50.7432 76.4616 50.5954C76.5942 50.3657 76.7621 50.1317 77.0657 50.2621C77.375 50.3946 77.3216 50.6824 77.2263 50.9283C77.0714 51.3268 76.8838 51.7126 76.7167 52.1063C75.6799 54.5486 74.6453 56.9922 73.609 59.435C73.5535 59.5662 73.5075 59.7053 73.4305 59.8234C73.3124 60.0045 73.2542 60.3186 72.9812 60.2657C72.7026 60.2123 72.7944 59.8956 72.7104 59.6196Z" fill="white" fill-opacity="0.2"/>
<path d="M52.3947 65.8089C52.4236 65.7061 52.4757 65.4541 52.5641 65.2153C53.4661 62.7778 54.3733 60.3429 55.2806 57.9072C55.3405 57.7467 55.407 57.5883 55.4788 57.433C55.5951 57.1811 55.7749 56.9724 56.0719 57.0682C56.39 57.1705 56.3576 57.454 56.2924 57.7169C56.2719 57.7996 56.2334 57.8775 56.2036 57.9575C55.2364 60.5534 54.2692 63.1492 53.3011 65.7446C53.2513 65.8785 53.2102 66.0193 53.1362 66.1392C53.0238 66.3212 52.9626 66.6295 52.6673 66.5372C52.4258 66.462 52.3855 66.2026 52.3947 65.8089Z" fill="white" fill-opacity="0.2"/>
<path d="M62.0259 60.6172C61.1567 60.6701 61.3833 60.0481 61.5084 59.646C61.8216 58.6412 62.2113 57.6591 62.5897 56.6758C62.948 55.7453 63.3273 54.8231 63.7053 53.9006C63.8256 53.607 63.9747 53.2575 64.3684 53.3992C64.7792 53.5471 64.6427 53.9163 64.5299 54.205C63.6917 56.3529 62.8426 58.4969 61.9979 60.6412C61.9983 60.6404 62.0259 60.6172 62.0259 60.6172Z" fill="white" fill-opacity="0.2"/>
<path d="M49.8491 65.3884C50.2975 63.919 50.7643 62.3665 51.2499 60.8197C51.3207 60.5936 51.5224 60.4203 51.7827 60.4977C52.0968 60.5914 52.1173 60.8652 52.0377 61.129C51.5766 62.6539 51.1107 64.1772 50.633 65.6969C50.5683 65.9025 50.4664 66.1828 50.182 66.1146C49.8815 66.0424 49.8902 65.7358 49.8491 65.3884Z" fill="white" fill-opacity="0.2"/>
<path d="M66.3242 57.5196C66.6366 56.185 67.1309 54.8547 67.7052 53.5537C67.805 53.3275 68.0277 53.2169 68.2753 53.3599C68.5535 53.5205 68.5312 53.7873 68.4424 54.0388C68.1681 54.8166 67.8732 55.5874 67.6003 56.3652C67.4406 56.821 67.3089 57.2865 67.1602 57.7462C67.0815 57.989 66.9975 58.325 66.7075 58.2799C66.3838 58.2296 66.3833 57.8609 66.3242 57.5196Z" fill="white" fill-opacity="0.2"/>
<path d="M71.1167 54.96C71.4378 53.9333 71.8175 52.9188 72.3595 51.9726C72.478 51.7653 72.6766 51.6126 72.9317 51.7241C73.2449 51.8606 73.2178 52.1419 73.0992 52.3816C72.6421 53.3051 72.265 54.2596 71.9212 55.2299C71.8472 55.439 71.7619 55.7286 71.4846 55.6717C71.1381 55.6008 71.1421 55.2662 71.1167 54.96Z" fill="white" fill-opacity="0.2"/>
<path d="M69.7619 31.3298C70.0406 30.4199 70.5007 29.4732 70.9885 28.5401C71.0712 28.3822 71.2575 28.3245 71.4369 28.4089C71.6176 28.4942 71.6849 28.6801 71.6193 28.8398C71.1976 29.8656 70.7602 30.8844 70.3161 31.9006C70.2632 32.0218 70.1316 32.1627 69.9802 32.052C69.7829 31.9085 69.7304 31.6797 69.7619 31.3298Z" fill="white" fill-opacity="0.2"/>
<path d="M134 36.5367C134.903 34.4295 135.282 32.4246 135.583 30.3861C133.453 30.5576 133.209 30.8498 132.616 33.8691C132.657 33.8953 132.698 33.9452 132.738 33.9443C133.127 33.9347 133.67 33.4277 133.861 34.0143C134.063 34.6338 133.349 34.6631 132.962 34.7825C132.402 34.9553 132.113 35.2624 132.005 35.8376C131.905 36.366 131.705 36.8752 131.555 37.3709C131.651 37.5135 131.763 37.5008 131.878 37.4868C132.217 37.4466 132.7 37.1312 132.804 37.685C132.896 38.1727 132.339 38.2226 132.013 38.2795C131.36 38.3936 131.079 38.7607 130.878 39.3656C130.458 40.6356 130.11 41.937 129.477 43.129C129.424 43.2301 129.371 43.3324 129.304 43.4248C129.105 43.7052 128.892 44.0678 128.511 43.9742C128.012 43.8517 128.637 43.4326 128.305 43.1304C125.861 43.8001 123.363 44.4895 120.86 45.1649C120.473 45.2695 120.441 45.5792 120.339 45.8732C120.182 46.3299 120.103 46.822 119.778 47.207C119.62 47.3946 119.411 47.5206 119.176 47.3907C118.953 47.2673 119.048 47.0447 119.096 46.8526C119.19 46.4703 119.422 46.1238 119.401 45.6339C118.563 45.7375 117.749 46.0831 116.784 45.8513C117.499 45.1886 118.32 44.9589 119.121 44.7454C119.67 44.5989 119.932 44.3202 120.043 43.7865C120.166 43.2003 120.344 42.6251 120.512 42.0494C120.63 41.6426 120.493 41.4842 120.1 41.6369C119.387 41.9129 118.615 41.9641 117.918 42.3447C117.502 42.5722 116.959 42.1618 116.385 42.2419C117.95 41.5857 117.572 40.0612 117.956 38.8993C118.241 38.0367 118.336 37.1128 118.54 36.2213C118.608 35.9207 118.716 35.5397 119.13 35.6355C119.543 35.7309 119.465 36.0843 119.394 36.4098C119.051 37.992 118.719 39.5769 118.355 41.2869C119.158 41.0582 119.857 40.8429 120.565 40.664C120.923 40.5735 120.976 40.2926 121.036 40.0227C121.44 38.2103 121.917 36.4085 122.208 34.5777C122.678 31.6188 123.05 28.6415 122.668 25.6323C122.634 25.3611 122.674 25.0829 122.991 25.0203C123.321 24.9552 123.443 25.2097 123.487 25.4796C123.546 25.8454 123.601 26.215 123.617 26.5847C123.698 28.5313 123.653 30.4753 123.422 32.4115C123.367 32.8765 123.342 33.0913 123.962 32.9093C126.168 32.2615 126.142 32.2842 126.416 29.9836C126.751 27.1691 126.917 24.344 127.083 21.5177C127.102 21.1957 127.007 20.707 127.502 20.739C127.947 20.7678 127.898 21.2342 127.881 21.5706C127.729 24.6843 127.589 27.7994 127.141 30.89C127.092 31.2238 126.972 31.5585 127.14 31.9456C127.797 31.7523 128.445 31.5357 129.108 31.3752C129.504 31.2789 129.596 31.0143 129.61 30.6866C129.644 29.8869 129.662 29.086 129.683 28.2859C129.691 27.9687 129.657 27.5772 130.069 27.5378C130.549 27.4915 130.589 27.9311 130.6 28.2609C130.628 29.1144 130.609 29.9692 130.609 30.9119C131.115 30.7645 131.641 30.5939 132.178 30.46C132.588 30.3581 132.576 30.0309 132.638 29.7277C133.28 26.582 133.532 23.3895 133.784 20.1965C133.815 19.8028 133.655 19.1515 134.249 19.176C134.875 19.2018 134.619 19.8531 134.596 20.225C134.416 23.194 134.181 26.1581 133.638 29.0886C133.468 30.0051 133.5 29.9552 134.402 29.796C135.523 29.5978 135.946 28.9972 136.02 27.9079C136.14 26.1406 136.367 24.3808 136.547 22.6174C136.559 22.5037 136.556 22.3869 136.58 22.2762C136.641 21.9901 136.72 21.6633 137.089 21.7044C137.459 21.7456 137.477 22.0736 137.454 22.3715C137.366 23.4835 137.302 24.5986 137.174 25.7058C136.842 28.5733 136.416 31.4277 135.743 34.237C135.527 35.1421 135.302 36.0883 134 36.5367ZM128.025 39.5052C127.987 39.4776 127.964 39.4461 127.945 39.4492C127.833 39.4663 127.722 39.4956 127.609 39.5122C126.237 39.7139 125.118 40.1522 124.988 41.8215C124.943 42.4011 124.607 42.9514 123.849 43.0822C123.804 42.1247 124.47 41.3565 124.456 40.3875C123.623 40.6251 122.86 40.846 122.093 41.059C121.896 41.1137 121.671 41.1583 121.61 41.3674C121.348 42.2808 121.109 43.2012 120.838 44.2069C123.14 43.5949 125.29 43.0241 127.439 42.4514C127.797 42.3561 128.15 42.2384 128.511 42.1548C128.805 42.0866 129.049 41.9842 129.159 41.6706C129.476 40.7668 129.802 39.8661 130.137 38.9278C129.332 38.846 129.044 39.2226 128.913 39.8696C128.835 40.258 128.602 40.7712 128.176 40.6784C127.699 40.5748 128.017 40.0691 128.024 39.7331C128.027 39.6531 128.025 39.573 128.025 39.5052ZM125.976 33.1468C125.466 33.2951 125.143 33.4548 124.812 33.474C123.437 33.5545 123.043 34.3503 122.896 35.6193C122.718 37.1543 122.273 38.6583 121.926 40.2585C122.792 40.0118 123.553 39.7856 124.32 39.5818C124.591 39.5096 124.793 39.4015 124.849 39.1032C125.212 37.1767 125.578 35.2501 125.976 33.1468ZM129.365 32.2229C126.905 32.6009 126.905 32.6009 126.514 34.9539C126.495 35.0664 126.463 35.1762 126.442 35.2882C126.212 36.5572 125.983 37.8267 125.739 39.1723C126.496 38.9697 127.131 38.8101 127.759 38.6294C128.308 38.4715 128.866 37.3066 128.717 36.4011C128.617 35.7926 128 36.2829 127.675 36.0795C127.636 36.055 127.61 36.0091 127.566 35.9588C127.776 35.6215 128.154 35.5519 128.476 35.3936C128.695 35.286 128.956 35.2545 129.004 34.9163C129.128 34.023 129.364 33.1442 129.365 32.2229ZM129.966 34.9229C130.598 34.6005 131.368 34.7912 131.609 34.034C131.842 33.303 132.017 32.5532 132.21 31.8096C132.25 31.6525 132.316 31.4609 132.131 31.3528C131.916 31.2269 130.396 31.8887 130.357 32.1359C130.219 33.027 130.105 33.922 129.966 34.9229ZM131.122 35.4785C129.642 35.859 129.358 36.3332 129.482 38.1119C130.629 37.8761 130.787 37.6263 131.122 35.4785Z" fill="white" fill-opacity="0.2"/>
<path d="M116.011 30.6885C115.982 30.0931 115.941 29.3508 115.909 28.608C115.899 28.381 115.873 28.0979 116.165 28.0489C116.507 27.9916 116.578 28.2768 116.622 28.5424C116.887 30.1356 116.845 31.741 116.691 33.3329C116.187 38.5167 114.563 43.4341 113.025 48.369C112.974 48.5317 112.905 48.6914 112.823 48.8405C112.667 49.1196 112.449 49.4796 112.122 49.3314C111.758 49.1656 112.006 48.7828 112.094 48.5063C113.513 44.0719 114.909 39.6322 115.659 35.0201C115.885 33.633 115.966 32.2366 116.011 30.6885Z" fill="white" fill-opacity="0.2"/>
<path d="M109.315 21.6578C109.143 21.2361 109.388 20.9137 109.532 20.5953C110.622 18.205 111.729 15.8227 112.833 13.439C112.904 13.2841 112.981 13.1275 113.081 12.9915C113.187 12.8484 113.346 12.7513 113.529 12.8296C113.74 12.9206 113.814 13.1092 113.757 13.3261C113.714 13.4906 113.643 13.649 113.571 13.8043C112.554 16.0077 111.541 18.2133 110.511 20.4107C110.261 20.9448 110.007 21.5065 109.315 21.6578Z" fill="white" fill-opacity="0.2"/>
<path d="M114.778 17.6186C114.511 17.6483 114.497 17.4611 114.527 17.2892C114.562 17.0958 114.619 16.8998 114.705 16.7235C115.592 14.9072 116.482 13.0918 117.384 11.2829C117.529 10.992 117.681 10.5371 118.103 10.7322C118.59 10.9575 118.29 11.3604 118.133 11.6797C117.306 13.367 116.475 15.0516 115.64 16.7349C115.449 17.1194 115.251 17.5061 114.778 17.6186Z" fill="white" fill-opacity="0.2"/>
<path d="M120.525 11.4405C121.086 10.3582 121.633 9.28778 122.198 8.22565C122.279 8.07341 122.454 7.99861 122.641 8.07298C122.787 8.13072 122.85 8.25321 122.872 8.40325C122.974 9.09661 121.481 11.3333 120.783 11.5236C120.739 11.5354 120.681 11.493 120.525 11.4405Z" fill="white" fill-opacity="0.2"/>
<path d="M149.467 39.55C149.417 39.1834 149.605 38.9861 149.728 38.7748C153.323 32.5669 155.641 25.849 157.647 19.0046C157.757 18.6298 157.712 17.9416 158.287 18.0886C158.858 18.2343 158.509 18.8279 158.41 19.2002C156.781 25.2632 154.593 31.1194 151.825 36.7542C150.949 38.5373 150.483 39.0355 149.467 39.55Z" fill="white" fill-opacity="0.2"/>
<path d="M165.593 33.3223C165.603 32.9155 165.861 32.6727 166.087 32.4334C168.102 30.3 169.69 27.8568 171.238 25.383C171.359 25.1897 171.474 24.9885 171.623 24.8187C171.763 24.6595 171.958 24.593 172.161 24.7295C172.351 24.8577 172.403 25.044 172.329 25.2544C172.281 25.3879 172.214 25.5165 172.141 25.6381C170.7 28.0108 169.172 30.3232 167.329 32.4085C166.88 32.9168 166.403 33.4304 165.593 33.3223Z" fill="white" fill-opacity="0.2"/>
<path d="M169.798 77.3932C168.819 77.3932 168.133 77.4068 167.449 77.3866C167.16 77.3783 166.832 77.3031 166.83 76.9335C166.827 76.5647 167.13 76.4837 167.438 76.489C169.067 76.5174 170.693 76.4693 172.317 76.3223C172.588 76.2978 173.008 76.2593 173.055 76.5647C173.111 76.9295 172.673 77.0166 172.392 77.1106C171.456 77.4243 170.466 77.3022 169.798 77.3932Z" fill="white" fill-opacity="0.2"/>
<path d="M172.386 64.419C172.732 64.419 173.075 64.4076 173.415 64.4234C173.61 64.4326 173.861 64.4553 173.887 64.692C173.911 64.9129 173.688 65.0231 173.505 65.0997C173.322 65.1758 173.128 65.2502 172.934 65.2681C171.598 65.3915 170.26 65.503 168.923 65.6102C168.605 65.6356 168.225 65.6531 168.198 65.223C168.176 64.8635 168.515 64.7852 168.807 64.7563C170 64.6382 171.194 64.5306 172.386 64.419Z" fill="white" fill-opacity="0.2"/>
<path d="M160.832 50.6328C161.546 50.173 162.117 49.8012 162.693 49.4364C162.91 49.299 163.126 49.1498 163.364 49.0593C163.56 48.9845 163.834 48.8624 163.972 49.1201C164.077 49.3178 163.894 49.5029 163.75 49.638C163.076 50.2684 162.315 50.81 161.485 51.1722C160.263 51.705 159.652 52.6377 159.266 54.1224C160.811 53.0362 162.706 52.9067 163.548 51.0641C164.26 49.5068 165.12 48.0164 165.914 46.4963C165.993 46.344 166.059 46.1844 166.149 46.0387C166.311 45.7767 166.461 45.4004 166.848 45.5781C167.25 45.7622 167.054 46.11 166.923 46.393C166.779 46.7041 166.615 47.0063 166.457 47.3112C165.802 48.5777 165.147 49.8436 164.459 51.1739C164.862 51.2299 165.101 51.0033 165.355 50.8677C168.456 49.2102 171.55 47.5374 174.655 45.8856C175.295 45.5448 175.953 45.2036 176.842 45.2504C176.29 45.9167 175.643 46.2662 174.995 46.6135C172.953 47.7076 170.915 48.8069 168.869 49.89C168.498 50.086 168.26 50.3336 168.092 50.7356C167.621 51.8594 167.086 52.9561 166.464 54.3078C167.542 53.7317 168.4 53.2733 169.489 52.691C168.904 53.7833 168.138 54.3214 167.323 54.8232C165.594 55.8862 163.639 56.3962 161.775 57.1277C161.402 57.2742 161.066 57.4391 160.763 57.734C160.478 58.0109 160.186 58.7983 159.608 57.9662C159.562 57.9002 159.189 58.0419 158.978 58.1132C157.924 58.4693 156.703 58.5997 156.4 59.9947C156.379 60.094 156.267 60.1776 156.187 60.2594C156.002 60.4501 155.731 60.6679 155.521 60.5371C155.276 60.3849 155.435 60.0725 155.545 59.8376C156.127 58.5979 156.71 57.3586 157.35 55.9986C156.51 56.1766 155.856 56.3573 155.577 57.181C155.442 57.5821 155.222 57.9597 155.003 58.3263C154.887 58.5214 154.678 58.6915 154.426 58.5655C154.164 58.4352 154.23 58.1793 154.292 57.9592C154.367 57.6959 154.465 57.4391 154.594 57.0603C153.839 57.331 153.204 57.5563 152.571 57.7856C152.309 57.8805 152.034 57.9356 151.932 57.6018C151.848 57.3271 152.088 57.1937 152.303 57.1058C152.858 56.8783 153.402 56.5909 153.981 56.4627C155.197 56.1932 155.519 55.2672 155.83 54.1858C154.739 54.5576 153.736 54.9347 152.709 55.2326C152.283 55.3564 151.581 55.6749 151.441 55.0699C151.3 54.4583 152.08 54.6062 152.466 54.4867C153.672 54.1149 154.826 53.6228 155.979 53.118C156.438 52.9163 156.542 52.513 156.715 52.1254C157.04 51.3992 157.267 51.3616 157.666 52.0103C157.782 52.1985 157.857 52.1766 157.973 52.1166C158.671 51.7592 159.501 51.5659 159.744 50.6455C159.816 50.3729 159.964 50.1184 160.09 49.862C160.216 49.6052 160.348 49.2854 160.706 49.3992C161.13 49.5344 161.013 49.8743 160.905 50.184C160.88 50.2614 160.878 50.3463 160.832 50.6328ZM166.938 51.1241C164.205 51.8113 162.713 53.6565 161.831 56.2361C162.884 55.8236 163.883 55.4294 164.885 55.0427C165.088 54.9644 165.216 54.8244 165.303 54.6372C165.844 53.4775 166.383 52.3174 166.938 51.1241ZM157.724 57.5874C160.145 57.1351 161.364 56.0126 161.992 53.6241C160.198 54.5751 157.977 54.9846 157.724 57.5874ZM156.482 55.282C157.963 55.107 158.329 54.0021 158.708 52.8319C157.227 53.044 156.768 54.0698 156.482 55.282Z" fill="white" fill-opacity="0.2"/>
<path d="M175.217 42.7866C174.878 43.6453 174.299 44.0683 173.686 44.4275C172.06 45.3794 170.422 46.3133 168.77 47.2197C168.45 47.3952 167.989 47.938 167.697 47.3523C167.444 46.8444 168.094 46.6825 168.432 46.4839C170.057 45.5307 171.703 44.6125 173.333 43.6663C173.893 43.3413 174.426 42.969 175.217 42.7866Z" fill="white" fill-opacity="0.2"/>
</svg>
