<svg width="24" height="24" viewBox="0 0 24 24" fill="none" xmlns="http://www.w3.org/2000/svg">
<path d="M10.2598 9.30578C10.2598 9.1584 10.3862 9.03891 10.5422 9.03891H16.0122C16.1681 9.03891 16.2946 9.1584 16.2946 9.30578C16.2946 9.45316 16.1681 9.57265 16.0122 9.57265H10.5422C10.3862 9.57265 10.2598 9.45319 10.2598 9.30578ZM10.5422 7.89649H16.0122C16.1681 7.89649 16.2946 7.77699 16.2946 7.62961C16.2946 7.48223 16.1681 7.36274 16.0122 7.36274H10.5422C10.3862 7.36274 10.2598 7.48223 10.2598 7.62961C10.2598 7.77699 10.3862 7.89649 10.5422 7.89649ZM10.5422 6.22025H16.0122C16.1681 6.22025 16.2946 6.10076 16.2946 5.95338C16.2946 5.806 16.1681 5.68651 16.0122 5.68651H10.5422C10.3862 5.68651 10.2598 5.806 10.2598 5.95338C10.2598 6.10076 10.3862 6.22025 10.5422 6.22025ZM7.51708 11.2489H16.0122C16.1681 11.2489 16.2946 11.1294 16.2946 10.982C16.2946 10.8346 16.1681 10.7151 16.0122 10.7151H7.51708C7.36115 10.7151 7.23473 10.8346 7.23473 10.982C7.23473 11.1294 7.36115 11.2489 7.51708 11.2489ZM7.51708 12.925H16.0122C16.1681 12.925 16.2946 12.8055 16.2946 12.6581C16.2946 12.5108 16.1681 12.3913 16.0122 12.3913H7.51708C7.36115 12.3913 7.23473 12.5108 7.23473 12.6581C7.23473 12.8055 7.36115 12.925 7.51708 12.925ZM8.1498 7.92731H8.29126C8.48446 7.92731 8.64162 8.07586 8.64162 8.25847C8.64162 8.44108 8.48446 8.58962 8.29126 8.58962H8.09206C7.98046 8.58962 7.87422 8.53785 7.80787 8.45112C7.71653 8.33169 7.54002 8.30487 7.41364 8.39124C7.28725 8.4776 7.25891 8.64443 7.35028 8.76386C7.49188 8.94897 7.70456 9.07273 7.93818 9.11086V9.36743C7.93818 9.51481 8.0646 9.6343 8.22053 9.6343C8.37646 9.6343 8.50288 9.51481 8.50288 9.36743V9.10002C8.9058 9.00955 9.20633 8.66655 9.20633 8.25843C9.20633 7.78153 8.79582 7.39353 8.29126 7.39353H8.1498C7.9566 7.39353 7.79944 7.24495 7.79944 7.06234C7.79944 6.87973 7.9566 6.73118 8.1498 6.73118H8.349C8.4606 6.73118 8.5668 6.78296 8.63315 6.86969C8.72453 6.98912 8.901 7.01594 9.02739 6.92957C9.15378 6.8432 9.18212 6.67637 9.09074 6.55695C8.94911 6.37184 8.73646 6.24808 8.50285 6.20995V5.95338C8.50285 5.806 8.37642 5.68651 8.22049 5.68651C8.06457 5.68651 7.93814 5.806 7.93814 5.95338V6.22079C7.53529 6.31129 7.23469 6.65429 7.23469 7.06237C7.23473 7.53928 7.64524 7.92731 8.1498 7.92731ZM21 16.7465C21 18.5405 19.4558 20 17.5578 20C16.9915 20 16.4568 19.87 15.9852 19.6401H6.10172C5.80331 19.6401 5.56055 19.4106 5.56055 19.1286V7.02508H3.54116C3.24275 7.02508 3 6.79563 3 6.51358V5.47694C3 4.66255 3.70098 4 4.56261 4H16.406C17.2677 4 17.9687 4.66255 17.9687 5.47694V13.5162C19.6737 13.7088 21 15.0839 21 16.7465ZM5.56055 6.49133V5.47694C5.56055 4.95684 5.11288 4.53375 4.56265 4.53375C4.01238 4.53375 3.56471 4.95684 3.56471 5.47694V6.49133H5.56055ZM15.1906 19.1064C14.6942 18.6613 14.3377 18.0783 14.1906 17.4229C14.0227 17.3525 13.9081 17.2528 13.8185 17.1748C13.6982 17.0701 13.6446 17.0275 13.5236 17.0234C13.3601 17.0164 13.1472 17.2053 12.9412 17.3867C12.6393 17.6524 12.2971 17.9536 11.832 17.9536C11.1511 17.9536 11.0179 17.3783 10.9298 16.9977C10.8245 16.5426 10.7629 16.4506 10.5635 16.4506C10.3027 16.4506 10.1828 16.5531 9.95739 16.7663C9.66208 17.0456 9.25768 17.4281 8.28724 17.4281C8.13131 17.4281 8.00488 17.3086 8.00488 17.1612C8.00488 17.0139 8.13131 16.8944 8.28724 16.8944C9.02368 16.8944 9.2832 16.6489 9.55797 16.389C9.79197 16.1677 10.0572 15.9169 10.5635 15.9169C11.2577 15.9169 11.3924 16.4987 11.4815 16.8837C11.5848 17.3297 11.6437 17.4199 11.8321 17.4199C12.075 17.4199 12.3088 17.214 12.5564 16.9961C12.8466 16.7407 13.1474 16.4772 13.544 16.49C13.814 16.4992 13.9875 16.6068 14.1161 16.7103C14.1254 15.9033 14.4471 15.1659 14.9722 14.6012H7.51708C7.36115 14.6012 7.23473 14.4818 7.23473 14.3344C7.23473 14.187 7.36115 14.0675 7.51708 14.0675H15.6069C16.1222 13.7312 16.7389 13.5242 17.404 13.4964V5.47694C17.404 4.95684 16.9563 4.53375 16.4061 4.53375H5.76424C5.98959 4.78978 6.12526 5.11867 6.12526 5.47694V19.1064H15.1906ZM20.4353 16.7465C20.4353 15.2468 19.1444 14.0267 17.5578 14.0267C15.9711 14.0267 14.6802 15.2468 14.6802 16.7465C14.6802 18.2462 15.9711 19.4663 17.5578 19.4663C19.1444 19.4663 20.4353 18.2462 20.4353 16.7465ZM19.3087 15.4693C19.4521 15.604 19.5313 15.7834 19.5319 15.9745C19.5324 16.1656 19.4542 16.3454 19.3117 16.4809L17.6979 18.0205C17.5505 18.1606 17.3556 18.2308 17.1607 18.2308C16.9701 18.2308 16.7795 18.1637 16.6332 18.0292L15.8125 17.2732C15.6678 17.1402 15.5865 16.9616 15.5837 16.7705C15.5809 16.5794 15.657 16.3988 15.7979 16.2619C15.9389 16.1249 16.1278 16.048 16.33 16.0454C16.5325 16.0429 16.7232 16.1146 16.8682 16.2479L17.1516 16.5091L18.2381 15.4725C18.2382 15.4724 18.2384 15.4723 18.2385 15.4722C18.381 15.3367 18.5708 15.2617 18.773 15.2612H18.7752C18.9765 15.2612 19.1659 15.335 19.3087 15.4693ZM18.9672 15.9759C18.967 15.9275 18.9469 15.8819 18.9106 15.8477C18.8743 15.8137 18.8262 15.7949 18.7751 15.7949C18.775 15.7949 18.7748 15.7949 18.7746 15.7949C18.7234 15.795 18.6753 15.814 18.6391 15.8482L17.3557 17.0727C17.2466 17.1768 17.069 17.1783 16.958 17.076L16.4742 16.6302C16.4383 16.5972 16.3908 16.579 16.3405 16.579C16.3396 16.579 16.3387 16.579 16.3378 16.5791C16.2865 16.5797 16.2385 16.5992 16.2027 16.634C16.1669 16.6688 16.1476 16.7146 16.1483 16.7631C16.149 16.8116 16.1697 16.8569 16.2065 16.8908L17.0272 17.6468C17.102 17.7156 17.2232 17.7148 17.297 17.6445L18.9109 16.1049C18.9475 16.0701 18.9673 16.0245 18.9672 15.9759Z" fill="#827A63"/>
</svg>
